<?xml version="1.0" encoding="UTF-8" standalone="no"?>
<!-- Created with Inkscape (http://www.inkscape.org/) -->

<svg
   xmlns:dc="http://purl.org/dc/elements/1.1/"
   xmlns:cc="http://creativecommons.org/ns#"
   xmlns:rdf="http://www.w3.org/1999/02/22-rdf-syntax-ns#"
   xmlns:svg="http://www.w3.org/2000/svg"
   xmlns="http://www.w3.org/2000/svg"
   xmlns:sodipodi="http://sodipodi.sourceforge.net/DTD/sodipodi-0.dtd"
   xmlns:inkscape="http://www.inkscape.org/namespaces/inkscape"
   width="61.892857mm"
   height="27.410715mm"
   viewBox="0 0 61.892857 27.410715"
   version="1.1"
   id="svg10556"
   inkscape:version="0.92.4 (5da689c313, 2019-01-14)"
   sodipodi:docname="drawing-8.svg">
  <defs
     id="defs10550" />
  <sodipodi:namedview
     id="base"
     pagecolor="#ffffff"
     bordercolor="#666666"
     borderopacity="1.0"
     inkscape:pageopacity="0.0"
     inkscape:pageshadow="2"
     inkscape:zoom="0.35"
     inkscape:cx="-871.60855"
     inkscape:cy="83.228339"
     inkscape:document-units="mm"
     inkscape:current-layer="layer1"
     showgrid="false"
     inkscape:window-width="2560"
     inkscape:window-height="1377"
     inkscape:window-x="-8"
     inkscape:window-y="-8"
     inkscape:window-maximized="1" />
  <metadata
     id="metadata10553">
    <rdf:RDF>
      <cc:Work
         rdf:about="">
        <dc:format>image/svg+xml</dc:format>
        <dc:type
           rdf:resource="http://purl.org/dc/dcmitype/StillImage" />
        <dc:title></dc:title>
      </cc:Work>
    </rdf:RDF>
  </metadata>
  <g
     inkscape:label="Layer 1"
     inkscape:groupmode="layer"
     id="layer1"
     transform="translate(-70.351191,-143.44345)">
    <g
       transform="matrix(5.157738,0,0,3.9158164,70.351191,143.44345)"
       id="g4865">
      <path
         inkscape:connector-curvature="0"
         id="path4697"
         d="M 0,0 H 1 V 1 H 0"
         style="opacity:1;fill:#666666;fill-opacity:1" />
      <path
         inkscape:connector-curvature="0"
         id="path4699"
         d="M 1,0 H 2 V 1 H 1"
         style="opacity:1;fill:#fefefe;fill-opacity:1" />
      <path
         inkscape:connector-curvature="0"
         id="path4701"
         d="M 2,0 H 3 V 1 H 2"
         style="opacity:1;fill:#fefefe;fill-opacity:1" />
      <path
         inkscape:connector-curvature="0"
         id="path4703"
         d="M 3,0 H 4 V 1 H 3"
         style="opacity:1;fill:#666666;fill-opacity:1" />
      <path
         inkscape:connector-curvature="0"
         id="path4705"
         d="M 4,0 H 5 V 1 H 4"
         style="opacity:1;fill:#666666;fill-opacity:1" />
      <path
         inkscape:connector-curvature="0"
         id="path4707"
         d="M 5,0 H 6 V 1 H 5"
         style="opacity:1;fill:#d1d1d1;fill-opacity:1" />
      <path
         inkscape:connector-curvature="0"
         id="path4709"
         d="M 6,0 H 7 V 1 H 6"
         style="opacity:1;fill:#d1d1d1;fill-opacity:1" />
      <path
         inkscape:connector-curvature="0"
         id="path4711"
         d="M 7,0 H 8 V 1 H 7"
         style="opacity:1;fill:#666666;fill-opacity:1" />
      <path
         inkscape:connector-curvature="0"
         id="path4713"
         d="M 8,0 H 9 V 1 H 8"
         style="opacity:1;fill:#969696;fill-opacity:1" />
      <path
         inkscape:connector-curvature="0"
         id="path4715"
         d="m 9,0 h 1 V 1 H 9"
         style="opacity:1;fill:#969696;fill-opacity:1" />
      <path
         inkscape:connector-curvature="0"
         id="path4717"
         d="m 10,0 h 1 v 1 h -1"
         style="opacity:1;fill:#969696;fill-opacity:1" />
      <path
         inkscape:connector-curvature="0"
         id="path4719"
         d="m 11,0 h 1 v 1 h -1"
         style="opacity:1;fill:#000000;fill-opacity:0" />
      <path
         inkscape:connector-curvature="0"
         id="path4721"
         d="M 0,1 H 1 V 2 H 0"
         style="opacity:1;fill:#666666;fill-opacity:1" />
      <path
         inkscape:connector-curvature="0"
         id="path4723"
         d="M 1,1 H 2 V 2 H 1"
         style="opacity:1;fill:#fefefe;fill-opacity:1" />
      <path
         inkscape:connector-curvature="0"
         id="path4725"
         d="M 2,1 H 3 V 2 H 2"
         style="opacity:1;fill:#fefefe;fill-opacity:1" />
      <path
         inkscape:connector-curvature="0"
         id="path4727"
         d="M 3,1 H 4 V 2 H 3"
         style="opacity:1;fill:#666666;fill-opacity:1" />
      <path
         inkscape:connector-curvature="0"
         id="path4729"
         d="M 4,1 H 5 V 2 H 4"
         style="opacity:1;fill:#666666;fill-opacity:1" />
      <path
         inkscape:connector-curvature="0"
         id="path4731"
         d="M 5,1 H 6 V 2 H 5"
         style="opacity:1;fill:#d1d1d1;fill-opacity:1" />
      <path
         inkscape:connector-curvature="0"
         id="path4733"
         d="M 6,1 H 7 L 7.25,1.75 6.75,2.25 6,2"
         style="opacity:1;fill:#d1d1d1;fill-opacity:1" />
      <path
         inkscape:connector-curvature="0"
         id="path4735"
         d="M 7,1 H 8 V 2 L 7.25,1.75"
         style="opacity:1;fill:#000000;fill-opacity:0" />
      <path
         inkscape:connector-curvature="0"
         id="path4737"
         d="M 8,1 H 9 V 2 H 8"
         style="opacity:1;fill:#000000;fill-opacity:0" />
      <path
         inkscape:connector-curvature="0"
         id="path4739"
         d="m 9,1 h 1 V 2 H 9"
         style="opacity:1;fill:#434343;fill-opacity:1" />
      <path
         inkscape:connector-curvature="0"
         id="path4741"
         d="m 10,1 h 1 v 1 h -1"
         style="opacity:1;fill:#434343;fill-opacity:1" />
      <path
         inkscape:connector-curvature="0"
         id="path4743"
         d="m 11,1 h 1 v 1 h -1"
         style="opacity:1;fill:#000000;fill-opacity:0" />
      <path
         inkscape:connector-curvature="0"
         id="path4745"
         d="M 0,2 H 1 V 3 H 0"
         style="opacity:1;fill:#666666;fill-opacity:1" />
      <path
         inkscape:connector-curvature="0"
         id="path4747"
         d="M 1,2 H 2 V 3 H 1"
         style="opacity:1;fill:#fefefe;fill-opacity:1" />
      <path
         inkscape:connector-curvature="0"
         id="path4749"
         d="M 2,2 H 3 V 3 H 2"
         style="opacity:1;fill:#fefefe;fill-opacity:1" />
      <path
         inkscape:connector-curvature="0"
         id="path4751"
         d="M 3,2 H 4 V 3 H 3"
         style="opacity:1;fill:#666666;fill-opacity:1" />
      <path
         inkscape:connector-curvature="0"
         id="path4753"
         d="M 4,2 H 5 V 3 H 4"
         style="opacity:1;fill:#666666;fill-opacity:1" />
      <path
         inkscape:connector-curvature="0"
         id="path4755"
         d="M 5,2 H 6 V 3 H 5"
         style="opacity:1;fill:#d1d1d1;fill-opacity:1" />
      <path
         inkscape:connector-curvature="0"
         id="path4757"
         d="M 6,2 6.75,2.25 7,3 H 6"
         style="opacity:1;fill:#d1d1d1;fill-opacity:1" />
      <path
         inkscape:connector-curvature="0"
         id="path4759"
         d="M 6.75,2.25 7.25,1.75 8,2 V 3 H 7"
         style="opacity:1;fill:#d1d1d1;fill-opacity:1" />
      <path
         inkscape:connector-curvature="0"
         id="path4761"
         d="M 8,2 H 9 V 3 H 8"
         style="opacity:1;fill:#d1d1d1;fill-opacity:1" />
      <path
         inkscape:connector-curvature="0"
         id="path4763"
         d="m 9,2 h 1 V 3 H 9"
         style="opacity:1;fill:#d1d1d1;fill-opacity:1" />
      <path
         inkscape:connector-curvature="0"
         id="path4765"
         d="m 10,2 h 1 v 1 h -1"
         style="opacity:1;fill:#d1d1d1;fill-opacity:1" />
      <path
         inkscape:connector-curvature="0"
         id="path4767"
         d="m 11,2 h 1 v 1 h -1"
         style="opacity:1;fill:#d1d1d1;fill-opacity:1" />
      <path
         inkscape:connector-curvature="0"
         id="path4769"
         d="M 0,3 H 1 V 4 H 0"
         style="opacity:1;fill:#666666;fill-opacity:1" />
      <path
         inkscape:connector-curvature="0"
         id="path4771"
         d="M 1,3 H 2 V 4 H 1"
         style="opacity:1;fill:#fefefe;fill-opacity:1" />
      <path
         inkscape:connector-curvature="0"
         id="path4773"
         d="M 2,3 H 3 V 4 H 2"
         style="opacity:1;fill:#fefefe;fill-opacity:1" />
      <path
         inkscape:connector-curvature="0"
         id="path4775"
         d="M 3,3 H 4 V 4 H 3"
         style="opacity:1;fill:#666666;fill-opacity:1" />
      <path
         inkscape:connector-curvature="0"
         id="path4777"
         d="M 4,3 H 5 V 4 H 4"
         style="opacity:1;fill:#666666;fill-opacity:1" />
      <path
         inkscape:connector-curvature="0"
         id="path4779"
         d="M 5,3 H 6 V 4 H 5"
         style="opacity:1;fill:#d1d1d1;fill-opacity:1" />
      <path
         inkscape:connector-curvature="0"
         id="path4781"
         d="M 6,3 H 7 V 4 H 6"
         style="opacity:1;fill:#d1d1d1;fill-opacity:1" />
      <path
         inkscape:connector-curvature="0"
         id="path4783"
         d="M 7,3 H 8 V 4 H 7"
         style="opacity:1;fill:#d1d1d1;fill-opacity:1" />
      <path
         inkscape:connector-curvature="0"
         id="path4785"
         d="M 8,3 H 9 V 4 H 8"
         style="opacity:1;fill:#d1d1d1;fill-opacity:1" />
      <path
         inkscape:connector-curvature="0"
         id="path4787"
         d="m 9,3 h 1 V 4 H 9"
         style="opacity:1;fill:#d1d1d1;fill-opacity:1" />
      <path
         inkscape:connector-curvature="0"
         id="path4789"
         d="m 10,3 h 1 v 1 h -1"
         style="opacity:1;fill:#d1d1d1;fill-opacity:1" />
      <path
         inkscape:connector-curvature="0"
         id="path4791"
         d="m 11,3 h 1 v 1 h -1"
         style="opacity:1;fill:#d1d1d1;fill-opacity:1" />
      <path
         inkscape:connector-curvature="0"
         id="path4793"
         d="M 0,4 H 1 V 5 H 0"
         style="opacity:1;fill:#000000;fill-opacity:0" />
      <path
         inkscape:connector-curvature="0"
         id="path4795"
         d="M 1,4 H 2 V 5 H 1"
         style="opacity:1;fill:#000000;fill-opacity:0" />
      <path
         inkscape:connector-curvature="0"
         id="path4797"
         d="M 2,4 H 3 V 5 H 2"
         style="opacity:1;fill:#242424;fill-opacity:1" />
      <path
         inkscape:connector-curvature="0"
         id="path4799"
         d="M 3,4 H 4 V 5 H 3"
         style="opacity:1;fill:#242424;fill-opacity:1" />
      <path
         inkscape:connector-curvature="0"
         id="path4801"
         d="M 4,4 H 5 V 5 H 4"
         style="opacity:1;fill:#242424;fill-opacity:1" />
      <path
         inkscape:connector-curvature="0"
         id="path4803"
         d="M 5,4 H 6 V 5 H 5"
         style="opacity:1;fill:#d1d1d1;fill-opacity:1" />
      <path
         inkscape:connector-curvature="0"
         id="path4805"
         d="M 6,4 H 7 L 6.75,4.75 6,5"
         style="opacity:1;fill:#d1d1d1;fill-opacity:1" />
      <path
         inkscape:connector-curvature="0"
         id="path4807"
         d="M 7,4 H 8 V 5 L 7.25,5.25 6.75,4.75"
         style="opacity:1;fill:#d1d1d1;fill-opacity:1" />
      <path
         inkscape:connector-curvature="0"
         id="path4809"
         d="M 8,4 H 9 V 5 H 8"
         style="opacity:1;fill:#d1d1d1;fill-opacity:1" />
      <path
         inkscape:connector-curvature="0"
         id="path4811"
         d="m 9,4 h 1 V 5 H 9"
         style="opacity:1;fill:#d1d1d1;fill-opacity:1" />
      <path
         inkscape:connector-curvature="0"
         id="path4813"
         d="m 10,4 h 1 l 0.25,0.75 -0.5,0.5 L 10,5"
         style="opacity:1;fill:#d1d1d1;fill-opacity:1" />
      <path
         inkscape:connector-curvature="0"
         id="path4815"
         d="m 11,4 h 1 V 5 L 11.25,4.75"
         style="opacity:1;fill:#d1d1d1;fill-opacity:1" />
      <path
         inkscape:connector-curvature="0"
         id="path4817"
         d="M 0,5 H 1 V 6 H 0"
         style="opacity:1;fill:#000000;fill-opacity:0" />
      <path
         inkscape:connector-curvature="0"
         id="path4819"
         d="M 1,5 H 2 V 6 H 1"
         style="opacity:1;fill:#000000;fill-opacity:0" />
      <path
         inkscape:connector-curvature="0"
         id="path4821"
         d="M 2,5 H 3 V 6 H 2"
         style="opacity:1;fill:#616161;fill-opacity:1" />
      <path
         inkscape:connector-curvature="0"
         id="path4823"
         d="M 3,5 H 4 V 6 H 3"
         style="opacity:1;fill:#616161;fill-opacity:1" />
      <path
         inkscape:connector-curvature="0"
         id="path4825"
         d="M 4,5 H 5 V 6 H 4"
         style="opacity:1;fill:#616161;fill-opacity:1" />
      <path
         inkscape:connector-curvature="0"
         id="path4827"
         d="M 5,5 H 6 V 6 H 5"
         style="opacity:1;fill:#d1d1d1;fill-opacity:1" />
      <path
         inkscape:connector-curvature="0"
         id="path4829"
         d="M 6,5 6.75,4.75 7.25,5.25 7,6 H 6"
         style="opacity:1;fill:#d1d1d1;fill-opacity:1" />
      <path
         inkscape:connector-curvature="0"
         id="path4831"
         d="M 7.25,5.25 8,5 V 6 H 7"
         style="opacity:1;fill:#a0a0a0;fill-opacity:1" />
      <path
         inkscape:connector-curvature="0"
         id="path4833"
         d="M 8,5 H 9 V 6 H 8"
         style="opacity:1;fill:#a0a0a0;fill-opacity:1" />
      <path
         inkscape:connector-curvature="0"
         id="path4835"
         d="m 9,5 h 1 V 6 H 9"
         style="opacity:1;fill:#a0a0a0;fill-opacity:1" />
      <path
         inkscape:connector-curvature="0"
         id="path4837"
         d="M 10,5 10.75,5.25 11,6 h -1"
         style="opacity:1;fill:#a0a0a0;fill-opacity:1" />
      <path
         inkscape:connector-curvature="0"
         id="path4839"
         d="M 10.75,5.25 11.25,4.75 12,5 v 1 h -1"
         style="opacity:1;fill:#d1d1d1;fill-opacity:1" />
      <path
         inkscape:connector-curvature="0"
         id="path4841"
         d="M 0,6 H 1 V 7 H 0"
         style="opacity:1;fill:#000000;fill-opacity:0" />
      <path
         inkscape:connector-curvature="0"
         id="path4843"
         d="M 1,6 H 2 V 7 H 1"
         style="opacity:1;fill:#000000;fill-opacity:0" />
      <path
         inkscape:connector-curvature="0"
         id="path4845"
         d="M 2,6 H 3 V 7 H 2"
         style="opacity:1;fill:#616161;fill-opacity:1" />
      <path
         inkscape:connector-curvature="0"
         id="path4847"
         d="M 3,6 H 4 V 7 H 3"
         style="opacity:1;fill:#616161;fill-opacity:1" />
      <path
         inkscape:connector-curvature="0"
         id="path4849"
         d="M 4,6 H 5 V 7 H 4"
         style="opacity:1;fill:#616161;fill-opacity:1" />
      <path
         inkscape:connector-curvature="0"
         id="path4851"
         d="M 5,6 H 6 V 7 H 5"
         style="opacity:1;fill:#d1d1d1;fill-opacity:1" />
      <path
         inkscape:connector-curvature="0"
         id="path4853"
         d="M 6,6 H 7 V 7 H 6"
         style="opacity:1;fill:#d1d1d1;fill-opacity:1" />
      <path
         inkscape:connector-curvature="0"
         id="path4855"
         d="M 7,6 H 8 V 7 H 7"
         style="opacity:1;fill:#a0a0a0;fill-opacity:1" />
      <path
         inkscape:connector-curvature="0"
         id="path4857"
         d="M 8,6 H 9 V 7 H 8"
         style="opacity:1;fill:#a0a0a0;fill-opacity:1" />
      <path
         inkscape:connector-curvature="0"
         id="path4859"
         d="m 9,6 h 1 V 7 H 9"
         style="opacity:1;fill:#a0a0a0;fill-opacity:1" />
      <path
         inkscape:connector-curvature="0"
         id="path4861"
         d="m 10,6 h 1 v 1 h -1"
         style="opacity:1;fill:#a0a0a0;fill-opacity:1" />
      <path
         inkscape:connector-curvature="0"
         id="path4863"
         d="m 11,6 h 1 v 1 h -1"
         style="opacity:1;fill:#d1d1d1;fill-opacity:1" />
    </g>
  </g>
</svg>
