<?xml version="1.0" encoding="UTF-8" standalone="no"?>
<!-- Created with Inkscape (http://www.inkscape.org/) -->

<svg
   xmlns:dc="http://purl.org/dc/elements/1.1/"
   xmlns:cc="http://creativecommons.org/ns#"
   xmlns:rdf="http://www.w3.org/1999/02/22-rdf-syntax-ns#"
   xmlns:svg="http://www.w3.org/2000/svg"
   xmlns="http://www.w3.org/2000/svg"
   xmlns:sodipodi="http://sodipodi.sourceforge.net/DTD/sodipodi-0.dtd"
   xmlns:inkscape="http://www.inkscape.org/namespaces/inkscape"
   width="27.827372mm"
   height="67.06192mm"
   viewBox="0 0 27.827372 67.06192"
   version="1.1"
   id="svg10293"
   inkscape:version="0.92.4 (5da689c313, 2019-01-14)"
   sodipodi:docname="drawing-7.svg">
  <defs
     id="defs10287" />
  <sodipodi:namedview
     id="base"
     pagecolor="#ffffff"
     bordercolor="#666666"
     borderopacity="1.0"
     inkscape:pageopacity="0.0"
     inkscape:pageshadow="2"
     inkscape:zoom="0.35"
     inkscape:cx="-944.5557"
     inkscape:cy="123.87403"
     inkscape:document-units="mm"
     inkscape:current-layer="layer1"
     showgrid="false"
     inkscape:window-width="2560"
     inkscape:window-height="1377"
     inkscape:window-x="-8"
     inkscape:window-y="-8"
     inkscape:window-maximized="1" />
  <metadata
     id="metadata10290">
    <rdf:RDF>
      <cc:Work
         rdf:about="">
        <dc:format>image/svg+xml</dc:format>
        <dc:type
           rdf:resource="http://purl.org/dc/dcmitype/StillImage" />
        <dc:title></dc:title>
      </cc:Work>
    </rdf:RDF>
  </metadata>
  <g
     inkscape:label="Layer 1"
     inkscape:groupmode="layer"
     id="layer1"
     transform="translate(-89.651791,-114.54642)">
    <g
       transform="matrix(4.6378953,0,0,5.158609,89.651791,114.54642)"
       id="g4172">
      <path
         inkscape:connector-curvature="0"
         id="path4016"
         d="M 0,0 H 1 V 1 H 0"
         style="opacity:1;fill:#000000;fill-opacity:0" />
      <path
         inkscape:connector-curvature="0"
         id="path4018"
         d="M 1,0 H 2 V 1 H 1"
         style="opacity:1;fill:#000000;fill-opacity:0" />
      <path
         inkscape:connector-curvature="0"
         id="path4020"
         d="M 2,0 H 3 V 1 H 2"
         style="opacity:1;fill:#d3d3d3;fill-opacity:1" />
      <path
         inkscape:connector-curvature="0"
         id="path4022"
         d="M 3,0 H 4 V 1 H 3"
         style="opacity:1;fill:#d3d3d3;fill-opacity:1" />
      <path
         inkscape:connector-curvature="0"
         id="path4024"
         d="M 4,0 H 5 V 1 H 4"
         style="opacity:1;fill:#000000;fill-opacity:0" />
      <path
         inkscape:connector-curvature="0"
         id="path4026"
         d="M 5,0 H 6 V 1 H 5"
         style="opacity:1;fill:#000000;fill-opacity:0" />
      <path
         inkscape:connector-curvature="0"
         id="path4028"
         d="M 0,1 H 1 V 2 H 0"
         style="opacity:1;fill:#000000;fill-opacity:0" />
      <path
         inkscape:connector-curvature="0"
         id="path4030"
         d="M 1,1 H 2 V 2 H 1"
         style="opacity:1;fill:#000000;fill-opacity:0" />
      <path
         inkscape:connector-curvature="0"
         id="path4032"
         d="M 2,1 H 3 V 2 H 2"
         style="opacity:1;fill:#969696;fill-opacity:1" />
      <path
         inkscape:connector-curvature="0"
         id="path4034"
         d="M 3,1 H 4 V 2 H 3"
         style="opacity:1;fill:#969696;fill-opacity:1" />
      <path
         inkscape:connector-curvature="0"
         id="path4036"
         d="M 4,1 H 5 V 2 H 4"
         style="opacity:1;fill:#000000;fill-opacity:0" />
      <path
         inkscape:connector-curvature="0"
         id="path4038"
         d="M 5,1 H 6 V 2 H 5"
         style="opacity:1;fill:#000000;fill-opacity:0" />
      <path
         inkscape:connector-curvature="0"
         id="path4040"
         d="M 0,2 H 1 V 3 H 0"
         style="opacity:1;fill:#d3d3d3;fill-opacity:1" />
      <path
         inkscape:connector-curvature="0"
         id="path4042"
         d="M 1,2 H 2 V 3 H 1"
         style="opacity:1;fill:#d3d3d3;fill-opacity:1" />
      <path
         inkscape:connector-curvature="0"
         id="path4044"
         d="M 2,2 H 3 V 3 H 2"
         style="opacity:1;fill:#d3d3d3;fill-opacity:1" />
      <path
         inkscape:connector-curvature="0"
         id="path4046"
         d="M 3,2 H 4 V 3 H 3"
         style="opacity:1;fill:#d3d3d3;fill-opacity:1" />
      <path
         inkscape:connector-curvature="0"
         id="path4048"
         d="M 4,2 H 5 V 3 H 4"
         style="opacity:1;fill:#d3d3d3;fill-opacity:1" />
      <path
         inkscape:connector-curvature="0"
         id="path4050"
         d="M 5,2 H 6 V 3 H 5"
         style="opacity:1;fill:#d3d3d3;fill-opacity:1" />
      <path
         inkscape:connector-curvature="0"
         id="path4052"
         d="M 0,3 H 1 V 4 H 0"
         style="opacity:1;fill:#d3d3d3;fill-opacity:1" />
      <path
         inkscape:connector-curvature="0"
         id="path4054"
         d="M 1,3 H 2 V 4 H 1"
         style="opacity:1;fill:#d3d3d3;fill-opacity:1" />
      <path
         inkscape:connector-curvature="0"
         id="path4056"
         d="M 2,3 H 3 V 4 H 2"
         style="opacity:1;fill:#d3d3d3;fill-opacity:1" />
      <path
         inkscape:connector-curvature="0"
         id="path4058"
         d="M 3,3 H 4 V 4 H 3"
         style="opacity:1;fill:#d3d3d3;fill-opacity:1" />
      <path
         inkscape:connector-curvature="0"
         id="path4060"
         d="M 4,3 H 5 V 4 H 4"
         style="opacity:1;fill:#d3d3d3;fill-opacity:1" />
      <path
         inkscape:connector-curvature="0"
         id="path4062"
         d="M 5,3 H 6 V 4 H 5"
         style="opacity:1;fill:#d3d3d3;fill-opacity:1" />
      <path
         inkscape:connector-curvature="0"
         id="path4064"
         d="M 0,4 H 1 V 5 H 0"
         style="opacity:1;fill:#808080;fill-opacity:1" />
      <path
         inkscape:connector-curvature="0"
         id="path4066"
         d="M 1,4 H 2 V 5 H 1"
         style="opacity:1;fill:#808080;fill-opacity:1" />
      <path
         inkscape:connector-curvature="0"
         id="path4068"
         d="M 2,4 H 3 V 5 H 2"
         style="opacity:1;fill:#808080;fill-opacity:1" />
      <path
         inkscape:connector-curvature="0"
         id="path4070"
         d="M 3,4 H 4 V 5 H 3"
         style="opacity:1;fill:#808080;fill-opacity:1" />
      <path
         inkscape:connector-curvature="0"
         id="path4072"
         d="M 4,4 H 5 V 5 H 4"
         style="opacity:1;fill:#808080;fill-opacity:1" />
      <path
         inkscape:connector-curvature="0"
         id="path4074"
         d="M 5,4 H 6 V 5 H 5"
         style="opacity:1;fill:#808080;fill-opacity:1" />
      <path
         inkscape:connector-curvature="0"
         id="path4076"
         d="M 0,5 H 1 L 1.25,5.75 0.75,6.25 0,6"
         style="opacity:1;fill:#808080;fill-opacity:1" />
      <path
         inkscape:connector-curvature="0"
         id="path4078"
         d="M 1,5 H 2 V 6 L 1.25,5.75"
         style="opacity:1;fill:#808080;fill-opacity:1" />
      <path
         inkscape:connector-curvature="0"
         id="path4080"
         d="M 2,5 H 3 V 6 H 2"
         style="opacity:1;fill:#808080;fill-opacity:1" />
      <path
         inkscape:connector-curvature="0"
         id="path4082"
         d="M 3,5 H 4 V 6 H 3"
         style="opacity:1;fill:#808080;fill-opacity:1" />
      <path
         inkscape:connector-curvature="0"
         id="path4084"
         d="M 4,5 H 5 L 4.75,5.75 4,6"
         style="opacity:1;fill:#808080;fill-opacity:1" />
      <path
         inkscape:connector-curvature="0"
         id="path4086"
         d="M 5,5 H 6 V 6 L 5.25,6.25 4.75,5.75"
         style="opacity:1;fill:#808080;fill-opacity:1" />
      <path
         inkscape:connector-curvature="0"
         id="path4088"
         d="M 0,6 0.75,6.25 1,7 H 0"
         style="opacity:1;fill:#505050;fill-opacity:1" />
      <path
         inkscape:connector-curvature="0"
         id="path4090"
         d="M 0.75,6.25 1.25,5.75 2,6 V 7 H 1"
         style="opacity:1;fill:#808080;fill-opacity:1" />
      <path
         inkscape:connector-curvature="0"
         id="path4092"
         d="M 2,6 H 3 V 7 H 2"
         style="opacity:1;fill:#808080;fill-opacity:1" />
      <path
         inkscape:connector-curvature="0"
         id="path4094"
         d="M 3,6 H 4 V 7 H 3"
         style="opacity:1;fill:#808080;fill-opacity:1" />
      <path
         inkscape:connector-curvature="0"
         id="path4096"
         d="M 4,6 4.75,5.75 5.25,6.25 5,7 H 4"
         style="opacity:1;fill:#808080;fill-opacity:1" />
      <path
         inkscape:connector-curvature="0"
         id="path4098"
         d="M 5.25,6.25 6,6 V 7 H 5"
         style="opacity:1;fill:#505050;fill-opacity:1" />
      <path
         inkscape:connector-curvature="0"
         id="path4100"
         d="M 0,7 H 1 V 8 H 0"
         style="opacity:1;fill:#505050;fill-opacity:1" />
      <path
         inkscape:connector-curvature="0"
         id="path4102"
         d="M 1,7 H 2 V 8 H 1"
         style="opacity:1;fill:#808080;fill-opacity:1" />
      <path
         inkscape:connector-curvature="0"
         id="path4104"
         d="M 2,7 H 3 V 8 H 2"
         style="opacity:1;fill:#808080;fill-opacity:1" />
      <path
         inkscape:connector-curvature="0"
         id="path4106"
         d="M 3,7 H 4 V 8 H 3"
         style="opacity:1;fill:#808080;fill-opacity:1" />
      <path
         inkscape:connector-curvature="0"
         id="path4108"
         d="M 4,7 H 5 V 8 H 4"
         style="opacity:1;fill:#808080;fill-opacity:1" />
      <path
         inkscape:connector-curvature="0"
         id="path4110"
         d="M 5,7 H 6 V 8 H 5"
         style="opacity:1;fill:#505050;fill-opacity:1" />
      <path
         inkscape:connector-curvature="0"
         id="path4112"
         d="M 0,8 H 1 V 9 H 0"
         style="opacity:1;fill:#505050;fill-opacity:1" />
      <path
         inkscape:connector-curvature="0"
         id="path4114"
         d="M 1,8 H 2 V 9 H 1"
         style="opacity:1;fill:#808080;fill-opacity:1" />
      <path
         inkscape:connector-curvature="0"
         id="path4116"
         d="M 2,8 H 3 V 9 H 2"
         style="opacity:1;fill:#808080;fill-opacity:1" />
      <path
         inkscape:connector-curvature="0"
         id="path4118"
         d="M 3,8 H 4 V 9 H 3"
         style="opacity:1;fill:#808080;fill-opacity:1" />
      <path
         inkscape:connector-curvature="0"
         id="path4120"
         d="M 4,8 H 5 V 9 H 4"
         style="opacity:1;fill:#808080;fill-opacity:1" />
      <path
         inkscape:connector-curvature="0"
         id="path4122"
         d="M 5,8 H 6 V 9 H 5"
         style="opacity:1;fill:#505050;fill-opacity:1" />
      <path
         inkscape:connector-curvature="0"
         id="path4124"
         d="M 0,9 H 1 L 0.75,9.75 0,10"
         style="opacity:1;fill:#505050;fill-opacity:1" />
      <path
         inkscape:connector-curvature="0"
         id="path4126"
         d="m 1,9 h 1 v 1 l -0.75,0.25 -0.5,-0.5"
         style="opacity:1;fill:#808080;fill-opacity:1" />
      <path
         inkscape:connector-curvature="0"
         id="path4128"
         d="m 2,9 h 1 v 1 H 2"
         style="opacity:1;fill:#808080;fill-opacity:1" />
      <path
         inkscape:connector-curvature="0"
         id="path4130"
         d="m 3,9 h 1 v 1 H 3"
         style="opacity:1;fill:#808080;fill-opacity:1" />
      <path
         inkscape:connector-curvature="0"
         id="path4132"
         d="M 4,9 H 5 L 5.25,9.75 4.75,10.25 4,10"
         style="opacity:1;fill:#808080;fill-opacity:1" />
      <path
         inkscape:connector-curvature="0"
         id="path4134"
         d="m 5,9 h 1 v 1 L 5.25,9.75"
         style="opacity:1;fill:#505050;fill-opacity:1" />
      <path
         inkscape:connector-curvature="0"
         id="path4136"
         d="M 0,10 0.75,9.75 1.25,10.25 1,11 H 0"
         style="opacity:1;fill:#808080;fill-opacity:1" />
      <path
         inkscape:connector-curvature="0"
         id="path4138"
         d="M 1.25,10.25 2,10 v 1 H 1"
         style="opacity:1;fill:#808080;fill-opacity:1" />
      <path
         inkscape:connector-curvature="0"
         id="path4140"
         d="m 2,10 h 1 v 1 H 2"
         style="opacity:1;fill:#808080;fill-opacity:1" />
      <path
         inkscape:connector-curvature="0"
         id="path4142"
         d="m 3,10 h 1 v 1 H 3"
         style="opacity:1;fill:#808080;fill-opacity:1" />
      <path
         inkscape:connector-curvature="0"
         id="path4144"
         d="M 4,10 4.75,10.25 5,11 H 4"
         style="opacity:1;fill:#808080;fill-opacity:1" />
      <path
         inkscape:connector-curvature="0"
         id="path4146"
         d="M 4.75,10.25 5.25,9.75 6,10 v 1 H 5"
         style="opacity:1;fill:#808080;fill-opacity:1" />
      <path
         inkscape:connector-curvature="0"
         id="path4148"
         d="m 0,11 h 1 v 1 H 0"
         style="opacity:1;fill:#808080;fill-opacity:1" />
      <path
         inkscape:connector-curvature="0"
         id="path4150"
         d="m 1,11 h 1 v 1 H 1"
         style="opacity:1;fill:#808080;fill-opacity:1" />
      <path
         inkscape:connector-curvature="0"
         id="path4152"
         d="m 2,11 h 1 v 1 H 2"
         style="opacity:1;fill:#808080;fill-opacity:1" />
      <path
         inkscape:connector-curvature="0"
         id="path4154"
         d="m 3,11 h 1 v 1 H 3"
         style="opacity:1;fill:#808080;fill-opacity:1" />
      <path
         inkscape:connector-curvature="0"
         id="path4156"
         d="m 4,11 h 1 v 1 H 4"
         style="opacity:1;fill:#808080;fill-opacity:1" />
      <path
         inkscape:connector-curvature="0"
         id="path4158"
         d="m 5,11 h 1 v 1 H 5"
         style="opacity:1;fill:#808080;fill-opacity:1" />
      <path
         inkscape:connector-curvature="0"
         id="path4160"
         d="m 0,12 h 1 v 1 H 0"
         style="opacity:1;fill:#d3d3d3;fill-opacity:1" />
      <path
         inkscape:connector-curvature="0"
         id="path4162"
         d="m 1,12 h 1 v 1 H 1"
         style="opacity:1;fill:#d3d3d3;fill-opacity:1" />
      <path
         inkscape:connector-curvature="0"
         id="path4164"
         d="m 2,12 h 1 v 1 H 2"
         style="opacity:1;fill:#d3d3d3;fill-opacity:1" />
      <path
         inkscape:connector-curvature="0"
         id="path4166"
         d="m 3,12 h 1 v 1 H 3"
         style="opacity:1;fill:#d3d3d3;fill-opacity:1" />
      <path
         inkscape:connector-curvature="0"
         id="path4168"
         d="m 4,12 h 1 v 1 H 4"
         style="opacity:1;fill:#d3d3d3;fill-opacity:1" />
      <path
         inkscape:connector-curvature="0"
         id="path4170"
         d="m 5,12 h 1 v 1 H 5"
         style="opacity:1;fill:#d3d3d3;fill-opacity:1" />
    </g>
  </g>
</svg>
