<?xml version="1.0" encoding="UTF-8" standalone="no"?>
<svg
   xmlns:dc="http://purl.org/dc/elements/1.1/"
   xmlns:cc="http://creativecommons.org/ns#"
   xmlns:rdf="http://www.w3.org/1999/02/22-rdf-syntax-ns#"
   xmlns:svg="http://www.w3.org/2000/svg"
   xmlns="http://www.w3.org/2000/svg"
   xmlns:sodipodi="http://sodipodi.sourceforge.net/DTD/sodipodi-0.dtd"
   xmlns:inkscape="http://www.inkscape.org/namespaces/inkscape"
   width="38.214287mm"
   height="55.333332mm"
   viewBox="0 0 38.214287 55.333332"
   version="1.1"
   id="svg8087"
   sodipodi:docname="drawing-1.svg"
   inkscape:version="0.92.4 (5da689c313, 2019-01-14)">
  <sodipodi:namedview
     pagecolor="#ffffff"
     bordercolor="#666666"
     borderopacity="1"
     objecttolerance="10"
     gridtolerance="10"
     guidetolerance="10"
     inkscape:pageopacity="0"
     inkscape:pageshadow="2"
     inkscape:window-width="2560"
     inkscape:window-height="1377"
     id="namedview307"
     showgrid="false"
     inkscape:zoom="1.1284639"
     inkscape:cx="72.215975"
     inkscape:cy="104.56693"
     inkscape:window-x="-8"
     inkscape:window-y="-8"
     inkscape:window-maximized="1"
     inkscape:current-layer="svg8087" />
  <defs
     id="defs8081" />
  <metadata
     id="metadata8084">
    <rdf:RDF>
      <cc:Work
         rdf:about="">
        <dc:format>image/svg+xml</dc:format>
        <dc:type
           rdf:resource="http://purl.org/dc/dcmitype/StillImage" />
        <dc:title></dc:title>
      </cc:Work>
    </rdf:RDF>
  </metadata>
  <g
     transform="translate(-85.970238,-131.75)"
     id="layer1">
    <g
       id="g4684"
       transform="matrix(3.474026,0,0,4.2564103,85.970238,131.75)">
      <path
         style="opacity:1;fill:#000000;fill-opacity:0"
         d="M 0,0 H 1 V 1 H 0"
         id="path4398" />
      <path
         style="opacity:1;fill:#000000;fill-opacity:0"
         d="M 1,0 H 2 L 1.75,0.75 1,1"
         id="path4400" />
      <path
         style="opacity:1;fill:#000000;fill-opacity:0"
         d="M 2,0 H 3 V 1 L 2.25,1.25 1.75,0.75"
         id="path4402" />
      <path
         style="opacity:1;fill:#000000;fill-opacity:0"
         d="M 3,0 H 4 V 1 H 3"
         id="path4404" />
      <path
         style="opacity:1;fill:#434343;fill-opacity:1"
         d="M 4,0 H 5 V 1 H 4"
         id="path4406" />
      <path
         style="opacity:1;fill:#434343;fill-opacity:1"
         d="M 5,0 H 6 V 1 H 5"
         id="path4408" />
      <path
         style="opacity:1;fill:#000000;fill-opacity:0"
         d="M 6,0 H 7 V 1 H 6"
         id="path4410" />
      <path
         style="opacity:1;fill:#000000;fill-opacity:0"
         d="M 7,0 H 8 V 1 H 7"
         id="path4412" />
      <path
         style="opacity:1;fill:#434343;fill-opacity:1"
         d="M 8,0 H 9 V 1 H 8"
         id="path4414" />
      <path
         style="opacity:1;fill:#434343;fill-opacity:1"
         d="m 9,0 h 1 V 1 H 9"
         id="path4416" />
      <path
         style="opacity:1;fill:#000000;fill-opacity:0"
         d="m 10,0 h 1 v 1 h -1"
         id="path4418" />
      <path
         style="opacity:1;fill:#000000;fill-opacity:0"
         d="M 0,1 H 1 V 2 H 0"
         id="path4420" />
      <path
         style="opacity:1;fill:#000000;fill-opacity:0"
         d="M 1,1 1.75,0.75 2.25,1.25 2,2 H 1"
         id="path4422" />
      <path
         style="opacity:1;fill:#d3d3d3;fill-opacity:1"
         d="M 2.25,1.25 3,1 2.75,1.75 2,2"
         id="path4424" />
      <path
         style="opacity:1;fill:#d3d3d3;fill-opacity:1"
         d="M 3,1 H 4 V 2 L 3.25,2.25 2.75,1.75"
         id="path4426" />
      <path
         style="opacity:1;fill:#d3d3d3;fill-opacity:1"
         d="M 4,1 H 5 V 2 H 4"
         id="path4428" />
      <path
         style="opacity:1;fill:#d3d3d3;fill-opacity:1"
         d="M 5,1 H 6 V 2 H 5"
         id="path4430" />
      <path
         style="opacity:1;fill:#d3d3d3;fill-opacity:1"
         d="M 6,1 H 7 V 2 H 6"
         id="path4432" />
      <path
         style="opacity:1;fill:#d3d3d3;fill-opacity:1"
         d="M 7,1 H 8 L 8.25,1.75 7.75,2.25 7,2"
         id="path4434" />
      <path
         style="opacity:1;fill:#d3d3d3;fill-opacity:1"
         d="M 8,1 H 9 V 2 L 8.25,1.75"
         id="path4436" />
      <path
         style="opacity:1;fill:#969696;fill-opacity:1"
         d="m 9,1 h 1 V 2 H 9"
         id="path4438" />
      <path
         style="opacity:1;fill:#969696;fill-opacity:1"
         d="m 10,1 h 1 v 1 h -1"
         id="path4440" />
      <path
         style="opacity:1;fill:#000000;fill-opacity:0"
         d="M 0,2 H 1 V 3 H 0"
         id="path4442" />
      <path
         style="opacity:1;fill:#000000;fill-opacity:0"
         d="M 1,2 H 2 V 3 H 1"
         id="path4444" />
      <path
         style="opacity:1;fill:#d3d3d3;fill-opacity:1"
         d="M 2,2 2.75,1.75 3.25,2.25 3,3 H 2"
         id="path4446" />
      <path
         style="opacity:1;fill:#505050;fill-opacity:1"
         d="M 3.25,2.25 4,2 3.75,2.75 3,3"
         id="path4448" />
      <path
         style="opacity:1;fill:#505050;fill-opacity:1"
         d="m 4,2 h 1 l 0.25,0.75 -0.5,0.5 h -0.5 l -0.5,-0.5"
         id="path4450" />
      <path
         style="opacity:1;fill:#505050;fill-opacity:1"
         d="M 5,2 H 6 V 3 L 5.25,2.75"
         id="path4452" />
      <path
         style="opacity:1;fill:#505050;fill-opacity:1"
         d="M 6,2 H 7 V 3 H 6"
         id="path4454" />
      <path
         style="opacity:1;fill:#505050;fill-opacity:1"
         d="M 7,2 7.75,2.25 8,3 H 7"
         id="path4456" />
      <path
         style="opacity:1;fill:#d3d3d3;fill-opacity:1"
         d="M 7.75,2.25 8.25,1.75 9,2 V 3 H 8"
         id="path4458" />
      <path
         style="opacity:1;fill:#969696;fill-opacity:1"
         d="m 9,2 h 1 V 3 H 9"
         id="path4460" />
      <path
         style="opacity:1;fill:#969696;fill-opacity:1"
         d="m 10,2 h 1 v 1 h -1"
         id="path4462" />
      <path
         style="opacity:1;fill:#000000;fill-opacity:0"
         d="M 0,3 H 1 V 4 H 0"
         id="path4464" />
      <path
         style="opacity:1;fill:#000000;fill-opacity:0"
         d="M 1,3 H 2 V 4 H 1"
         id="path4466" />
      <path
         style="opacity:1;fill:#d3d3d3;fill-opacity:1"
         d="M 2,3 H 3 V 4 H 2"
         id="path4468" />
      <path
         style="opacity:1;fill:#505050;fill-opacity:1"
         d="M 3,3 3.75,2.75 4.25,3.25 4,4 H 3"
         id="path4470" />
      <path
         style="opacity:1;fill:#aeaeae;fill-opacity:1"
         d="m 4.25,3.25 h 0.5 L 5,4 H 4"
         id="path4472" />
      <path
         style="opacity:1;fill:#505050;fill-opacity:1"
         d="M 4.75,3.25 5.25,2.75 6,3 V 4 H 5"
         id="path4474" />
      <path
         style="opacity:1;fill:#505050;fill-opacity:1"
         d="M 6,3 H 7 V 4 H 6"
         id="path4476" />
      <path
         style="opacity:1;fill:#505050;fill-opacity:1"
         d="M 7,3 H 8 V 4 H 7"
         id="path4478" />
      <path
         style="opacity:1;fill:#d3d3d3;fill-opacity:1"
         d="M 8,3 H 9 V 4 H 8"
         id="path4480" />
      <path
         style="opacity:1;fill:#969696;fill-opacity:1"
         d="m 9,3 h 1 V 4 H 9"
         id="path4482" />
      <path
         style="opacity:1;fill:#969696;fill-opacity:1"
         d="m 10,3 h 1 v 1 h -1"
         id="path4484" />
      <path
         style="opacity:1;fill:#000000;fill-opacity:0"
         d="M 0,4 H 1 V 5 H 0"
         id="path4486" />
      <path
         style="opacity:1;fill:#000000;fill-opacity:0"
         d="M 1,4 H 2 V 5 H 1"
         id="path4488" />
      <path
         style="opacity:1;fill:#d3d3d3;fill-opacity:1"
         d="M 2,4 H 3 L 3.25,4.75 2.75,5.25 2,5"
         id="path4490" />
      <path
         style="opacity:1;fill:#808080;fill-opacity:1"
         d="M 3,4 H 4 V 5 L 3.25,4.75"
         id="path4492" />
      <path
         style="opacity:1;fill:#808080;fill-opacity:1"
         d="M 4,4 H 5 V 5 H 4"
         id="path4494" />
      <path
         style="opacity:1;fill:#808080;fill-opacity:1"
         d="M 5,4 H 6 V 5 H 5"
         id="path4496" />
      <path
         style="opacity:1;fill:#808080;fill-opacity:1"
         d="M 6,4 H 7 V 5 H 6"
         id="path4498" />
      <path
         style="opacity:1;fill:#808080;fill-opacity:1"
         d="M 7,4 H 8 L 7.75,4.75 7,5"
         id="path4500" />
      <path
         style="opacity:1;fill:#d3d3d3;fill-opacity:1"
         d="M 8,4 H 9 V 5 L 8.25,5.25 7.75,4.75"
         id="path4502" />
      <path
         style="opacity:1;fill:#969696;fill-opacity:1"
         d="m 9,4 h 1 V 5 H 9"
         id="path4504" />
      <path
         style="opacity:1;fill:#969696;fill-opacity:1"
         d="m 10,4 h 1 v 1 h -1"
         id="path4506" />
      <path
         style="opacity:1;fill:#000000;fill-opacity:0"
         d="M 0,5 H 1 L 0.75,5.75 0,6"
         id="path4508" />
      <path
         style="opacity:1;fill:#000000;fill-opacity:0"
         d="M 1,5 H 2 V 6 L 1.25,6.25 0.75,5.75"
         id="path4510" />
      <path
         style="opacity:1;fill:#d3d3d3;fill-opacity:1"
         d="M 2,5 2.75,5.25 3,6 H 2"
         id="path4512" />
      <path
         style="opacity:1;fill:#d3d3d3;fill-opacity:1"
         d="M 2.75,5.25 3.25,4.75 4,5 V 6 H 3"
         id="path4514" />
      <path
         style="opacity:1;fill:#d3d3d3;fill-opacity:1"
         d="M 4,5 H 5 V 6 H 4"
         id="path4516" />
      <path
         style="opacity:1;fill:#d3d3d3;fill-opacity:1"
         d="M 5,5 H 6 V 6 H 5"
         id="path4518" />
      <path
         style="opacity:1;fill:#d3d3d3;fill-opacity:1"
         d="M 6,5 H 7 V 6 H 6"
         id="path4520" />
      <path
         style="opacity:1;fill:#d3d3d3;fill-opacity:1"
         d="M 7,5 7.75,4.75 8.25,5.25 8,6 H 7"
         id="path4522" />
      <path
         style="opacity:1;fill:#d3d3d3;fill-opacity:1"
         d="M 8.25,5.25 9,5 V 6 H 8"
         id="path4524" />
      <path
         style="opacity:1;fill:#969696;fill-opacity:1"
         d="m 9,5 h 1 V 6 H 9"
         id="path4526" />
      <path
         style="opacity:1;fill:#969696;fill-opacity:1"
         d="m 10,5 h 1 v 1 h -1"
         id="path4528" />
      <path
         style="opacity:1;fill:#000000;fill-opacity:0"
         d="M 0,6 0.75,5.75 1.25,6.25 1,7 H 0"
         id="path4530" />
      <path
         style="opacity:1;fill:#737373;fill-opacity:1"
         d="M 1.25,6.25 2,6 1.75,6.75 1,7"
         id="path4532" />
      <path
         style="opacity:1;fill:#737373;fill-opacity:1"
         d="M 2,6 H 3 V 7 L 2.25,7.25 1.75,6.75"
         id="path4534" />
      <path
         style="opacity:1;fill:#737373;fill-opacity:1"
         d="M 3,6 H 4 L 4.25,6.75 3.75,7.25 3,7"
         id="path4536" />
      <path
         style="opacity:1;fill:#737373;fill-opacity:1"
         d="M 4,6 H 5 V 7 L 4.25,6.75"
         id="path4538" />
      <path
         style="opacity:1;fill:#737373;fill-opacity:1"
         d="M 5,6 H 6 L 5.75,6.75 5,7"
         id="path4540" />
      <path
         style="opacity:1;fill:#737373;fill-opacity:1"
         d="m 6,6 h 1 l 0.25,0.75 -0.5,0.5 h -0.5 l -0.5,-0.5"
         id="path4542" />
      <path
         style="opacity:1;fill:#737373;fill-opacity:1"
         d="M 7,6 H 8 V 7 L 7.25,6.75"
         id="path4544" />
      <path
         style="opacity:1;fill:#4b4b4b;fill-opacity:1"
         d="M 8,6 H 9 V 7 H 8"
         id="path4546" />
      <path
         style="opacity:1;fill:#969696;fill-opacity:1"
         d="m 9,6 h 1 V 7 H 9"
         id="path4548" />
      <path
         style="opacity:1;fill:#969696;fill-opacity:1"
         d="m 10,6 h 1 v 1 h -1"
         id="path4550" />
      <path
         style="opacity:1;fill:#000000;fill-opacity:0"
         d="M 0,7 H 1 V 8 H 0"
         id="path4552" />
      <path
         style="opacity:1;fill:#737373;fill-opacity:1"
         d="M 1,7 1.75,6.75 2.25,7.25 2,8 H 1"
         id="path4554" />
      <path
         style="opacity:1;fill:#434343;fill-opacity:1"
         d="M 2.25,7.25 3,7 3.25,7.75 2.75,8.25 2,8"
         id="path4556" />
      <path
         style="opacity:1;fill:#434343;fill-opacity:1"
         d="M 3,7 3.75,7.25 4,8 3.25,7.75"
         id="path4558" />
      <path
         style="opacity:1;fill:#737373;fill-opacity:1"
         d="M 3.75,7.25 4.25,6.75 5,7 V 8 H 4"
         id="path4560" />
      <path
         style="opacity:1;fill:#737373;fill-opacity:1"
         d="m 5,7 0.75,-0.25 0.5,0.5 v 0.5 L 5.75,8.25 5,8"
         id="path4562" />
      <path
         style="opacity:1;fill:#434343;fill-opacity:1"
         d="m 6.25,7.25 h 0.5 v 0.5 h -0.5"
         id="path4564" />
      <path
         style="opacity:1;fill:#737373;fill-opacity:1"
         d="M 6.75,7.25 7.25,6.75 8,7 V 8 L 7.25,8.25 6.75,7.75"
         id="path4566" />
      <path
         style="opacity:1;fill:#4b4b4b;fill-opacity:1"
         d="M 8,7 H 9 V 8 H 8"
         id="path4568" />
      <path
         style="opacity:1;fill:#969696;fill-opacity:1"
         d="m 9,7 h 1 V 8 H 9"
         id="path4570" />
      <path
         style="opacity:1;fill:#969696;fill-opacity:1"
         d="m 10,7 h 1 v 1 h -1"
         id="path4572" />
      <path
         style="opacity:1;fill:#d3d3d3;fill-opacity:1"
         d="M 0,8 H 1 V 9 H 0"
         id="path4574" />
      <path
         style="opacity:1;fill:#969696;fill-opacity:1"
         d="M 1,8 H 2 V 9 H 1"
         id="path4576" />
      <path
         style="opacity:1;fill:#969696;fill-opacity:1"
         d="m 2,8 0.75,0.25 v 0.5 L 2,9"
         id="path4578" />
      <path
         style="opacity:1;fill:#434343;fill-opacity:1"
         d="M 2.75,8.25 3.25,7.75 4,8 V 9 L 3.25,9.25 2.75,8.75"
         id="path4580" />
      <path
         style="opacity:1;fill:#737373;fill-opacity:1"
         d="M 4,8 H 5 L 4.75,8.75 4,9"
         id="path4582" />
      <path
         style="opacity:1;fill:#737373;fill-opacity:1"
         d="m 5,8 0.75,0.25 0.5,0.5 -0.5,0.5 h -0.5 l -0.5,-0.5"
         id="path4584" />
      <path
         style="opacity:1;fill:#737373;fill-opacity:1"
         d="m 5.75,8.25 0.5,-0.5 h 0.5 L 7.25,8.25 7,9 6.25,8.75"
         id="path4586" />
      <path
         style="opacity:1;fill:#737373;fill-opacity:1"
         d="M 7.25,8.25 8,8 V 9 H 7"
         id="path4588" />
      <path
         style="opacity:1;fill:#4b4b4b;fill-opacity:1"
         d="M 8,8 H 9 L 9.25,8.75 8.75,9.25 8,9"
         id="path4590" />
      <path
         style="opacity:1;fill:#969696;fill-opacity:1"
         d="m 9,8 h 1 V 9 L 9.25,8.75"
         id="path4592" />
      <path
         style="opacity:1;fill:#969696;fill-opacity:1"
         d="m 10,8 h 1 v 1 h -1"
         id="path4594" />
      <path
         style="opacity:1;fill:#000000;fill-opacity:0"
         d="m 0,9 h 1 v 1 H 0"
         id="path4596" />
      <path
         style="opacity:1;fill:#737373;fill-opacity:1"
         d="M 1,9 H 2 L 2.25,9.75 1.75,10.25 1,10"
         id="path4598" />
      <path
         style="opacity:1;fill:#434343;fill-opacity:1"
         d="M 2,9 2.75,8.75 3.25,9.25 3,10 2.25,9.75"
         id="path4600" />
      <path
         style="opacity:1;fill:#434343;fill-opacity:1"
         d="M 3.25,9.25 4,9 3.75,9.75 3,10"
         id="path4602" />
      <path
         style="opacity:1;fill:#737373;fill-opacity:1"
         d="m 4,9 0.75,-0.25 0.5,0.5 v 0.5 l -0.5,0.5 h -0.5 l -0.5,-0.5"
         id="path4604" />
      <path
         style="opacity:1;fill:#434343;fill-opacity:1"
         d="m 5.25,9.25 h 0.5 v 0.5 h -0.5"
         id="path4606" />
      <path
         style="opacity:1;fill:#737373;fill-opacity:1"
         d="M 5.75,9.25 6.25,8.75 7,9 v 1 l -0.75,0.25 -0.5,-0.5"
         id="path4608" />
      <path
         style="opacity:1;fill:#737373;fill-opacity:1"
         d="m 7,9 h 1 v 1 H 7"
         id="path4610" />
      <path
         style="opacity:1;fill:#4b4b4b;fill-opacity:1"
         d="M 8,9 8.75,9.25 9,10 H 8"
         id="path4612" />
      <path
         style="opacity:1;fill:#4b4b4b;fill-opacity:1"
         d="M 8.75,9.25 9.25,8.75 10,9 v 1 H 9"
         id="path4614" />
      <path
         style="opacity:1;fill:#4b4b4b;fill-opacity:1"
         d="m 10,9 h 1 v 1 h -1"
         id="path4616" />
      <path
         style="opacity:1;fill:#000000;fill-opacity:0"
         d="m 0,10 h 1 v 1 H 0"
         id="path4618" />
      <path
         style="opacity:1;fill:#737373;fill-opacity:1"
         d="M 1,10 1.75,10.25 2,11 H 1"
         id="path4620" />
      <path
         style="opacity:1;fill:#737373;fill-opacity:1"
         d="M 1.75,10.25 2.25,9.75 3,10 v 1 H 2"
         id="path4622" />
      <path
         style="opacity:1;fill:#737373;fill-opacity:1"
         d="M 3,10 3.75,9.75 4.25,10.25 4,11 H 3"
         id="path4624" />
      <path
         style="opacity:1;fill:#737373;fill-opacity:1"
         d="m 4.25,10.25 h 0.5 L 5,11 H 4"
         id="path4626" />
      <path
         style="opacity:1;fill:#737373;fill-opacity:1"
         d="m 4.75,10.25 0.5,-0.5 h 0.5 l 0.5,0.5 L 6,11 H 5"
         id="path4628" />
      <path
         style="opacity:1;fill:#737373;fill-opacity:1"
         d="M 6.25,10.25 7,10 v 1 H 6"
         id="path4630" />
      <path
         style="opacity:1;fill:#737373;fill-opacity:1"
         d="m 7,10 h 1 v 1 H 7"
         id="path4632" />
      <path
         style="opacity:1;fill:#4b4b4b;fill-opacity:1"
         d="m 8,10 h 1 v 1 H 8"
         id="path4634" />
      <path
         style="opacity:1;fill:#4b4b4b;fill-opacity:1"
         d="m 9,10 h 1 v 1 H 9"
         id="path4636" />
      <path
         style="opacity:1;fill:#4b4b4b;fill-opacity:1"
         d="m 10,10 h 1 v 1 h -1"
         id="path4638" />
      <path
         style="opacity:1;fill:#000000;fill-opacity:0"
         d="m 0,11 h 1 v 1 H 0"
         id="path4640" />
      <path
         style="opacity:1;fill:#737373;fill-opacity:1"
         d="m 1,11 h 1 v 1 H 1"
         id="path4642" />
      <path
         style="opacity:1;fill:#737373;fill-opacity:1"
         d="m 2,11 h 1 v 1 H 2"
         id="path4644" />
      <path
         style="opacity:1;fill:#737373;fill-opacity:1"
         d="m 3,11 h 1 v 1 H 3"
         id="path4646" />
      <path
         style="opacity:1;fill:#737373;fill-opacity:1"
         d="m 4,11 h 1 v 1 H 4"
         id="path4648" />
      <path
         style="opacity:1;fill:#737373;fill-opacity:1"
         d="m 5,11 h 1 v 1 H 5"
         id="path4650" />
      <path
         style="opacity:1;fill:#737373;fill-opacity:1"
         d="m 6,11 h 1 v 1 H 6"
         id="path4652" />
      <path
         style="opacity:1;fill:#737373;fill-opacity:1"
         d="m 7,11 h 1 v 1 H 7"
         id="path4654" />
      <path
         style="opacity:1;fill:#4b4b4b;fill-opacity:1"
         d="m 8,11 h 1 v 1 H 8"
         id="path4656" />
      <path
         style="opacity:1;fill:#4b4b4b;fill-opacity:1"
         d="m 9,11 h 1 v 1 H 9"
         id="path4658" />
      <path
         style="opacity:1;fill:#4b4b4b;fill-opacity:1"
         d="m 10,11 h 1 v 1 h -1"
         id="path4660" />
      <path
         style="opacity:1;fill:#000000;fill-opacity:0"
         d="m 0,12 h 1 v 1 H 0"
         id="path4662" />
      <path
         style="opacity:1;fill:#737373;fill-opacity:1"
         d="m 1,12 h 1 v 1 H 1"
         id="path4664" />
      <path
         style="opacity:1;fill:#737373;fill-opacity:1"
         d="m 2,12 h 1 v 1 H 2"
         id="path4666" />
      <path
         style="opacity:1;fill:#737373;fill-opacity:1"
         d="m 3,12 h 1 v 1 H 3"
         id="path4668" />
      <path
         style="opacity:1;fill:#737373;fill-opacity:1"
         d="m 4,12 h 1 v 1 H 4"
         id="path4670" />
      <path
         style="opacity:1;fill:#737373;fill-opacity:1"
         d="m 5,12 h 1 v 1 H 5"
         id="path4672" />
      <path
         style="opacity:1;fill:#737373;fill-opacity:1"
         d="m 6,12 h 1 v 1 H 6"
         id="path4674" />
      <path
         style="opacity:1;fill:#737373;fill-opacity:1"
         d="m 7,12 h 1 v 1 H 7"
         id="path4676" />
      <path
         style="opacity:1;fill:#4b4b4b;fill-opacity:1"
         d="m 8,12 h 1 v 1 H 8"
         id="path4678" />
      <path
         style="opacity:1;fill:#4b4b4b;fill-opacity:1"
         d="m 9,12 h 1 v 1 H 9"
         id="path4680" />
      <path
         style="opacity:1;fill:#4b4b4b;fill-opacity:1"
         d="m 10,12 h 1 v 1 h -1"
         id="path4682" />
    </g>
  </g>
</svg>
