<?xml version="1.0" encoding="UTF-8" standalone="no"?>
<!-- Created with Inkscape (http://www.inkscape.org/) -->

<svg
   xmlns:dc="http://purl.org/dc/elements/1.1/"
   xmlns:cc="http://creativecommons.org/ns#"
   xmlns:rdf="http://www.w3.org/1999/02/22-rdf-syntax-ns#"
   xmlns:svg="http://www.w3.org/2000/svg"
   xmlns="http://www.w3.org/2000/svg"
   xmlns:sodipodi="http://sodipodi.sourceforge.net/DTD/sodipodi-0.dtd"
   xmlns:inkscape="http://www.inkscape.org/namespaces/inkscape"
   width="35.970238mm"
   height="49.553574mm"
   viewBox="0 0 35.970238 49.553574"
   version="1.1"
   id="svg10835"
   inkscape:version="0.92.4 (5da689c313, 2019-01-14)"
   sodipodi:docname="drawing-9.svg">
  <defs
     id="defs10829" />
  <sodipodi:namedview
     id="base"
     pagecolor="#ffffff"
     bordercolor="#666666"
     borderopacity="1.0"
     inkscape:pageopacity="0.0"
     inkscape:pageshadow="2"
     inkscape:zoom="0.35"
     inkscape:cx="-929.1676"
     inkscape:cy="82.215983"
     inkscape:document-units="mm"
     inkscape:current-layer="layer1"
     showgrid="false"
     inkscape:window-width="2560"
     inkscape:window-height="1377"
     inkscape:window-x="-8"
     inkscape:window-y="-8"
     inkscape:window-maximized="1" />
  <metadata
     id="metadata10832">
    <rdf:RDF>
      <cc:Work
         rdf:about="">
        <dc:format>image/svg+xml</dc:format>
        <dc:type
           rdf:resource="http://purl.org/dc/dcmitype/StillImage" />
        <dc:title></dc:title>
      </cc:Work>
    </rdf:RDF>
  </metadata>
  <g
     inkscape:label="Layer 1"
     inkscape:groupmode="layer"
     id="layer1"
     transform="translate(-85.580357,-121.03274)">
    <g
       transform="matrix(4.4962797,0,0,4.5048702,85.580357,121.03274)"
       id="g5355">
      <path
         inkscape:connector-curvature="0"
         id="path5179"
         d="M 0,0 H 1 V 1 H 0"
         style="opacity:1;fill:#000000;fill-opacity:0" />
      <path
         inkscape:connector-curvature="0"
         id="path5181"
         d="M 1,0 H 2 V 1 H 1"
         style="opacity:1;fill:#000000;fill-opacity:0" />
      <path
         inkscape:connector-curvature="0"
         id="path5183"
         d="M 2,0 H 3 V 1 H 2"
         style="opacity:1;fill:#969696;fill-opacity:1" />
      <path
         inkscape:connector-curvature="0"
         id="path5185"
         d="M 3,0 H 4 V 1 H 3"
         style="opacity:1;fill:#969696;fill-opacity:1" />
      <path
         inkscape:connector-curvature="0"
         id="path5187"
         d="M 4,0 H 5 L 5.25,0.75 4.75,1.25 4,1"
         style="opacity:1;fill:#969696;fill-opacity:1" />
      <path
         inkscape:connector-curvature="0"
         id="path5189"
         d="M 5,0 H 6 V 1 L 5.25,0.75"
         style="opacity:1;fill:#969696;fill-opacity:1" />
      <path
         inkscape:connector-curvature="0"
         id="path5191"
         d="M 6,0 H 7 V 1 H 6"
         style="opacity:1;fill:#000000;fill-opacity:0" />
      <path
         inkscape:connector-curvature="0"
         id="path5193"
         d="M 7,0 H 8 V 1 H 7"
         style="opacity:1;fill:#000000;fill-opacity:0" />
      <path
         inkscape:connector-curvature="0"
         id="path5195"
         d="M 0,1 H 1 V 2 H 0"
         style="opacity:1;fill:#000000;fill-opacity:0" />
      <path
         inkscape:connector-curvature="0"
         id="path5197"
         d="M 1,1 H 2 V 2 H 1"
         style="opacity:1;fill:#000000;fill-opacity:0" />
      <path
         inkscape:connector-curvature="0"
         id="path5199"
         d="M 2,1 H 3 V 2 H 2"
         style="opacity:1;fill:#434343;fill-opacity:1" />
      <path
         inkscape:connector-curvature="0"
         id="path5201"
         d="M 3,1 H 4 V 2 H 3"
         style="opacity:1;fill:#000000;fill-opacity:0" />
      <path
         inkscape:connector-curvature="0"
         id="path5203"
         d="M 4,1 4.75,1.25 5,2 H 4"
         style="opacity:1;fill:#000000;fill-opacity:0" />
      <path
         inkscape:connector-curvature="0"
         id="path5205"
         d="M 4.75,1.25 5.25,0.75 6,1 V 2 H 5"
         style="opacity:1;fill:#666666;fill-opacity:1" />
      <path
         inkscape:connector-curvature="0"
         id="path5207"
         d="M 6,1 H 7 V 2 H 6"
         style="opacity:1;fill:#000000;fill-opacity:0" />
      <path
         inkscape:connector-curvature="0"
         id="path5209"
         d="M 7,1 H 8 V 2 H 7"
         style="opacity:1;fill:#000000;fill-opacity:0" />
      <path
         inkscape:connector-curvature="0"
         id="path5211"
         d="M 0,2 H 1 V 3 H 0"
         style="opacity:1;fill:#737373;fill-opacity:1" />
      <path
         inkscape:connector-curvature="0"
         id="path5213"
         d="M 1,2 H 2 V 3 H 1"
         style="opacity:1;fill:#737373;fill-opacity:1" />
      <path
         inkscape:connector-curvature="0"
         id="path5215"
         d="M 2,2 H 3 V 3 H 2"
         style="opacity:1;fill:#737373;fill-opacity:1" />
      <path
         inkscape:connector-curvature="0"
         id="path5217"
         d="M 3,2 H 4 V 3 H 3"
         style="opacity:1;fill:#737373;fill-opacity:1" />
      <path
         inkscape:connector-curvature="0"
         id="path5219"
         d="M 4,2 H 5 V 3 H 4"
         style="opacity:1;fill:#737373;fill-opacity:1" />
      <path
         inkscape:connector-curvature="0"
         id="path5221"
         d="M 5,2 H 6 V 3 H 5"
         style="opacity:1;fill:#4b4b4b;fill-opacity:1" />
      <path
         inkscape:connector-curvature="0"
         id="path5223"
         d="M 6,2 H 7 V 3 H 6"
         style="opacity:1;fill:#4b4b4b;fill-opacity:1" />
      <path
         inkscape:connector-curvature="0"
         id="path5225"
         d="M 7,2 H 8 V 3 H 7"
         style="opacity:1;fill:#4b4b4b;fill-opacity:1" />
      <path
         inkscape:connector-curvature="0"
         id="path5227"
         d="M 0,3 H 1 V 4 H 0"
         style="opacity:1;fill:#737373;fill-opacity:1" />
      <path
         inkscape:connector-curvature="0"
         id="path5229"
         d="M 1,3 H 2 V 4 H 1"
         style="opacity:1;fill:#737373;fill-opacity:1" />
      <path
         inkscape:connector-curvature="0"
         id="path5231"
         d="M 2,3 H 3 V 4 H 2"
         style="opacity:1;fill:#737373;fill-opacity:1" />
      <path
         inkscape:connector-curvature="0"
         id="path5233"
         d="M 3,3 H 4 V 4 H 3"
         style="opacity:1;fill:#737373;fill-opacity:1" />
      <path
         inkscape:connector-curvature="0"
         id="path5235"
         d="M 4,3 H 5 V 4 H 4"
         style="opacity:1;fill:#737373;fill-opacity:1" />
      <path
         inkscape:connector-curvature="0"
         id="path5237"
         d="M 5,3 H 6 V 4 H 5"
         style="opacity:1;fill:#4b4b4b;fill-opacity:1" />
      <path
         inkscape:connector-curvature="0"
         id="path5239"
         d="M 6,3 H 7 V 4 H 6"
         style="opacity:1;fill:#4b4b4b;fill-opacity:1" />
      <path
         inkscape:connector-curvature="0"
         id="path5241"
         d="M 7,3 H 8 V 4 H 7"
         style="opacity:1;fill:#4b4b4b;fill-opacity:1" />
      <path
         inkscape:connector-curvature="0"
         id="path5243"
         d="M 0,4 H 1 V 5 H 0"
         style="opacity:1;fill:#434343;fill-opacity:1" />
      <path
         inkscape:connector-curvature="0"
         id="path5245"
         d="M 1,4 H 2 V 5 H 1"
         style="opacity:1;fill:#000000;fill-opacity:0" />
      <path
         inkscape:connector-curvature="0"
         id="path5247"
         d="M 2,4 H 3 V 5 H 2"
         style="opacity:1;fill:#fefefe;fill-opacity:1" />
      <path
         inkscape:connector-curvature="0"
         id="path5249"
         d="M 3,4 H 4 V 5 H 3"
         style="opacity:1;fill:#fefefe;fill-opacity:1" />
      <path
         inkscape:connector-curvature="0"
         id="path5251"
         d="M 4,4 H 5 V 5 H 4"
         style="opacity:1;fill:#fefefe;fill-opacity:1" />
      <path
         inkscape:connector-curvature="0"
         id="path5253"
         d="M 5,4 H 6 V 5 H 5"
         style="opacity:1;fill:#fefefe;fill-opacity:1" />
      <path
         inkscape:connector-curvature="0"
         id="path5255"
         d="M 6,4 H 7 V 5 H 6"
         style="opacity:1;fill:#000000;fill-opacity:0" />
      <path
         inkscape:connector-curvature="0"
         id="path5257"
         d="M 7,4 H 8 V 5 H 7"
         style="opacity:1;fill:#434343;fill-opacity:1" />
      <path
         inkscape:connector-curvature="0"
         id="path5259"
         d="M 0,5 H 1 V 6 H 0"
         style="opacity:1;fill:#666666;fill-opacity:1" />
      <path
         inkscape:connector-curvature="0"
         id="path5261"
         d="M 1,5 H 2 V 6 H 1"
         style="opacity:1;fill:#000000;fill-opacity:0" />
      <path
         inkscape:connector-curvature="0"
         id="path5263"
         d="M 2,5 H 3 V 6 H 2"
         style="opacity:1;fill:#fefefe;fill-opacity:1" />
      <path
         inkscape:connector-curvature="0"
         id="path5265"
         d="M 3,5 H 4 V 6 H 3"
         style="opacity:1;fill:#fefefe;fill-opacity:1" />
      <path
         inkscape:connector-curvature="0"
         id="path5267"
         d="M 4,5 H 5 V 6 H 4"
         style="opacity:1;fill:#fefefe;fill-opacity:1" />
      <path
         inkscape:connector-curvature="0"
         id="path5269"
         d="M 5,5 H 6 V 6 H 5"
         style="opacity:1;fill:#fefefe;fill-opacity:1" />
      <path
         inkscape:connector-curvature="0"
         id="path5271"
         d="M 6,5 H 7 V 6 H 6"
         style="opacity:1;fill:#000000;fill-opacity:0" />
      <path
         inkscape:connector-curvature="0"
         id="path5273"
         d="M 7,5 H 8 V 6 H 7"
         style="opacity:1;fill:#666666;fill-opacity:1" />
      <path
         inkscape:connector-curvature="0"
         id="path5275"
         d="M 0,6 H 1 V 7 H 0"
         style="opacity:1;fill:#666666;fill-opacity:1" />
      <path
         inkscape:connector-curvature="0"
         id="path5277"
         d="M 1,6 H 2 V 7 H 1"
         style="opacity:1;fill:#000000;fill-opacity:0" />
      <path
         inkscape:connector-curvature="0"
         id="path5279"
         d="M 2,6 H 3 V 7 H 2"
         style="opacity:1;fill:#fefefe;fill-opacity:1" />
      <path
         inkscape:connector-curvature="0"
         id="path5281"
         d="M 3,6 H 4 V 7 H 3"
         style="opacity:1;fill:#fefefe;fill-opacity:1" />
      <path
         inkscape:connector-curvature="0"
         id="path5283"
         d="M 4,6 H 5 V 7 H 4"
         style="opacity:1;fill:#fefefe;fill-opacity:1" />
      <path
         inkscape:connector-curvature="0"
         id="path5285"
         d="M 5,6 H 6 V 7 H 5"
         style="opacity:1;fill:#fefefe;fill-opacity:1" />
      <path
         inkscape:connector-curvature="0"
         id="path5287"
         d="M 6,6 H 7 V 7 H 6"
         style="opacity:1;fill:#000000;fill-opacity:0" />
      <path
         inkscape:connector-curvature="0"
         id="path5289"
         d="M 7,6 H 8 V 7 H 7"
         style="opacity:1;fill:#666666;fill-opacity:1" />
      <path
         inkscape:connector-curvature="0"
         id="path5291"
         d="M 0,7 H 1 V 8 H 0"
         style="opacity:1;fill:#737373;fill-opacity:1" />
      <path
         inkscape:connector-curvature="0"
         id="path5293"
         d="M 1,7 H 2 V 8 H 1"
         style="opacity:1;fill:#737373;fill-opacity:1" />
      <path
         inkscape:connector-curvature="0"
         id="path5295"
         d="M 2,7 H 3 V 8 H 2"
         style="opacity:1;fill:#737373;fill-opacity:1" />
      <path
         inkscape:connector-curvature="0"
         id="path5297"
         d="M 3,7 H 4 V 8 H 3"
         style="opacity:1;fill:#737373;fill-opacity:1" />
      <path
         inkscape:connector-curvature="0"
         id="path5299"
         d="M 4,7 H 5 V 8 H 4"
         style="opacity:1;fill:#737373;fill-opacity:1" />
      <path
         inkscape:connector-curvature="0"
         id="path5301"
         d="M 5,7 H 6 V 8 H 5"
         style="opacity:1;fill:#4b4b4b;fill-opacity:1" />
      <path
         inkscape:connector-curvature="0"
         id="path5303"
         d="M 6,7 H 7 V 8 H 6"
         style="opacity:1;fill:#4b4b4b;fill-opacity:1" />
      <path
         inkscape:connector-curvature="0"
         id="path5305"
         d="M 7,7 H 8 V 8 H 7"
         style="opacity:1;fill:#4b4b4b;fill-opacity:1" />
      <path
         inkscape:connector-curvature="0"
         id="path5307"
         d="M 0,8 H 1 V 9 H 0"
         style="opacity:1;fill:#737373;fill-opacity:1" />
      <path
         inkscape:connector-curvature="0"
         id="path5309"
         d="M 1,8 H 2 L 1.75,8.75 1,9"
         style="opacity:1;fill:#737373;fill-opacity:1" />
      <path
         inkscape:connector-curvature="0"
         id="path5311"
         d="M 2,8 H 3 V 9 L 2.25,9.25 1.75,8.75"
         style="opacity:1;fill:#737373;fill-opacity:1" />
      <path
         inkscape:connector-curvature="0"
         id="path5313"
         d="M 3,8 H 4 V 9 H 3"
         style="opacity:1;fill:#737373;fill-opacity:1" />
      <path
         inkscape:connector-curvature="0"
         id="path5315"
         d="M 4,8 H 5 V 9 H 4"
         style="opacity:1;fill:#737373;fill-opacity:1" />
      <path
         inkscape:connector-curvature="0"
         id="path5317"
         d="M 5,8 H 6 L 6.25,8.75 5.75,9.25 5,9"
         style="opacity:1;fill:#4b4b4b;fill-opacity:1" />
      <path
         inkscape:connector-curvature="0"
         id="path5319"
         d="M 6,8 H 7 V 9 L 6.25,8.75"
         style="opacity:1;fill:#4b4b4b;fill-opacity:1" />
      <path
         inkscape:connector-curvature="0"
         id="path5321"
         d="M 7,8 H 8 V 9 H 7"
         style="opacity:1;fill:#4b4b4b;fill-opacity:1" />
      <path
         inkscape:connector-curvature="0"
         id="path5323"
         d="m 0,9 h 1 v 1 H 0"
         style="opacity:1;fill:#737373;fill-opacity:1" />
      <path
         inkscape:connector-curvature="0"
         id="path5325"
         d="M 1,9 1.75,8.75 2.25,9.25 2,10 H 1"
         style="opacity:1;fill:#737373;fill-opacity:1" />
      <path
         inkscape:connector-curvature="0"
         id="path5327"
         d="M 2.25,9.25 3,9 v 1 H 2"
         style="opacity:1;fill:#969696;fill-opacity:1" />
      <path
         inkscape:connector-curvature="0"
         id="path5329"
         d="m 3,9 h 1 v 1 H 3"
         style="opacity:1;fill:#969696;fill-opacity:1" />
      <path
         inkscape:connector-curvature="0"
         id="path5331"
         d="m 4,9 h 1 v 1 H 4"
         style="opacity:1;fill:#969696;fill-opacity:1" />
      <path
         inkscape:connector-curvature="0"
         id="path5333"
         d="M 5,9 5.75,9.25 6,10 H 5"
         style="opacity:1;fill:#434343;fill-opacity:1" />
      <path
         inkscape:connector-curvature="0"
         id="path5335"
         d="M 5.75,9.25 6.25,8.75 7,9 v 1 H 6"
         style="opacity:1;fill:#4b4b4b;fill-opacity:1" />
      <path
         inkscape:connector-curvature="0"
         id="path5337"
         d="m 7,9 h 1 v 1 H 7"
         style="opacity:1;fill:#4b4b4b;fill-opacity:1" />
      <path
         inkscape:connector-curvature="0"
         id="path5339"
         d="m 0,10 h 1 v 1 H 0"
         style="opacity:1;fill:#737373;fill-opacity:1" />
      <path
         inkscape:connector-curvature="0"
         id="path5341"
         d="m 1,10 h 1 v 1 H 1"
         style="opacity:1;fill:#737373;fill-opacity:1" />
      <path
         inkscape:connector-curvature="0"
         id="path5343"
         d="m 2,10 h 1 v 1 H 2"
         style="opacity:1;fill:#969696;fill-opacity:1" />
      <path
         inkscape:connector-curvature="0"
         id="path5345"
         d="m 3,10 h 1 v 1 H 3"
         style="opacity:1;fill:#969696;fill-opacity:1" />
      <path
         inkscape:connector-curvature="0"
         id="path5347"
         d="m 4,10 h 1 v 1 H 4"
         style="opacity:1;fill:#969696;fill-opacity:1" />
      <path
         inkscape:connector-curvature="0"
         id="path5349"
         d="m 5,10 h 1 v 1 H 5"
         style="opacity:1;fill:#434343;fill-opacity:1" />
      <path
         inkscape:connector-curvature="0"
         id="path5351"
         d="m 6,10 h 1 v 1 H 6"
         style="opacity:1;fill:#4b4b4b;fill-opacity:1" />
      <path
         inkscape:connector-curvature="0"
         id="path5353"
         d="m 7,10 h 1 v 1 H 7"
         style="opacity:1;fill:#4b4b4b;fill-opacity:1" />
    </g>
  </g>
</svg>
