<?xml version="1.0" encoding="UTF-8" standalone="no"?>
<svg
   xmlns:dc="http://purl.org/dc/elements/1.1/"
   xmlns:cc="http://creativecommons.org/ns#"
   xmlns:rdf="http://www.w3.org/1999/02/22-rdf-syntax-ns#"
   xmlns:svg="http://www.w3.org/2000/svg"
   xmlns="http://www.w3.org/2000/svg"
   id="svg9258"
   version="1.1"
   viewBox="0 0 64.709518 48.632938"
   height="48.632938mm"
   width="64.709518mm">
  <defs
     id="defs9252" />
  <metadata
     id="metadata9255">
    <rdf:RDF>
      <cc:Work
         rdf:about="">
        <dc:format>image/svg+xml</dc:format>
        <dc:type
           rdf:resource="http://purl.org/dc/dcmitype/StillImage" />
        <dc:title></dc:title>
      </cc:Work>
    </rdf:RDF>
  </metadata>
  <g
     transform="translate(-70.454764,-121.49305)"
     id="layer1">
    <g
       id="g4003"
       transform="matrix(5.39246,0,0,4.8632938,70.454764,121.49305)">
      <path
         style="opacity:1;fill:#000000;fill-opacity:0"
         d="M 0,0 H 1 V 1 H 0"
         id="path3763" />
      <path
         style="opacity:1;fill:#000000;fill-opacity:0"
         d="M 1,0 H 2 V 1 H 1"
         id="path3765" />
      <path
         style="opacity:1;fill:#969696;fill-opacity:1"
         d="M 2,0 H 3 V 1 H 2"
         id="path3767" />
      <path
         style="opacity:1;fill:#000000;fill-opacity:0"
         d="M 3,0 H 4 V 1 H 3"
         id="path3769" />
      <path
         style="opacity:1;fill:#000000;fill-opacity:0"
         d="M 4,0 H 5 V 1 H 4"
         id="path3771" />
      <path
         style="opacity:1;fill:#000000;fill-opacity:0"
         d="M 5,0 H 6 V 1 H 5"
         id="path3773" />
      <path
         style="opacity:1;fill:#000000;fill-opacity:0"
         d="M 6,0 H 7 V 1 H 6"
         id="path3775" />
      <path
         style="opacity:1;fill:#000000;fill-opacity:0"
         d="M 7,0 H 8 V 1 H 7"
         id="path3777" />
      <path
         style="opacity:1;fill:#000000;fill-opacity:0"
         d="M 8,0 H 9 V 1 H 8"
         id="path3779" />
      <path
         style="opacity:1;fill:#969696;fill-opacity:1"
         d="m 9,0 h 1 V 1 H 9"
         id="path3781" />
      <path
         style="opacity:1;fill:#000000;fill-opacity:0"
         d="m 10,0 h 1 v 1 h -1"
         id="path3783" />
      <path
         style="opacity:1;fill:#000000;fill-opacity:0"
         d="m 11,0 h 1 v 1 h -1"
         id="path3785" />
      <path
         style="opacity:1;fill:#000000;fill-opacity:0"
         d="M 0,1 H 1 V 2 H 0"
         id="path3787" />
      <path
         style="opacity:1;fill:#000000;fill-opacity:0"
         d="M 1,1 H 2 V 2 H 1"
         id="path3789" />
      <path
         style="opacity:1;fill:#434343;fill-opacity:1"
         d="M 2,1 H 3 V 2 H 2"
         id="path3791" />
      <path
         style="opacity:1;fill:#000000;fill-opacity:0"
         d="M 3,1 H 4 V 2 H 3"
         id="path3793" />
      <path
         style="opacity:1;fill:#000000;fill-opacity:0"
         d="M 4,1 H 5 V 2 H 4"
         id="path3795" />
      <path
         style="opacity:1;fill:#000000;fill-opacity:0"
         d="M 5,1 H 6 V 2 H 5"
         id="path3797" />
      <path
         style="opacity:1;fill:#000000;fill-opacity:0"
         d="M 6,1 H 7 V 2 H 6"
         id="path3799" />
      <path
         style="opacity:1;fill:#000000;fill-opacity:0"
         d="M 7,1 H 8 V 2 H 7"
         id="path3801" />
      <path
         style="opacity:1;fill:#000000;fill-opacity:0"
         d="M 8,1 H 9 V 2 H 8"
         id="path3803" />
      <path
         style="opacity:1;fill:#434343;fill-opacity:1"
         d="m 9,1 h 1 V 2 H 9"
         id="path3805" />
      <path
         style="opacity:1;fill:#000000;fill-opacity:0"
         d="m 10,1 h 1 v 1 h -1"
         id="path3807" />
      <path
         style="opacity:1;fill:#000000;fill-opacity:0"
         d="m 11,1 h 1 v 1 h -1"
         id="path3809" />
      <path
         style="opacity:1;fill:#d1d1d1;fill-opacity:1"
         d="M 0,2 H 1 V 3 H 0"
         id="path3811" />
      <path
         style="opacity:1;fill:#d1d1d1;fill-opacity:1"
         d="M 1,2 H 2 V 3 H 1"
         id="path3813" />
      <path
         style="opacity:1;fill:#d1d1d1;fill-opacity:1"
         d="M 2,2 H 3 V 3 H 2"
         id="path3815" />
      <path
         style="opacity:1;fill:#d1d1d1;fill-opacity:1"
         d="M 3,2 H 4 V 3 H 3"
         id="path3817" />
      <path
         style="opacity:1;fill:#d1d1d1;fill-opacity:1"
         d="M 4,2 H 5 V 3 H 4"
         id="path3819" />
      <path
         style="opacity:1;fill:#d1d1d1;fill-opacity:1"
         d="M 5,2 H 6 V 3 H 5"
         id="path3821" />
      <path
         style="opacity:1;fill:#d1d1d1;fill-opacity:1"
         d="M 6,2 H 7 V 3 H 6"
         id="path3823" />
      <path
         style="opacity:1;fill:#d1d1d1;fill-opacity:1"
         d="M 7,2 H 8 V 3 H 7"
         id="path3825" />
      <path
         style="opacity:1;fill:#d1d1d1;fill-opacity:1"
         d="M 8,2 H 9 V 3 H 8"
         id="path3827" />
      <path
         style="opacity:1;fill:#a0a0a0;fill-opacity:1"
         d="m 9,2 h 1 V 3 H 9"
         id="path3829" />
      <path
         style="opacity:1;fill:#a0a0a0;fill-opacity:1"
         d="m 10,2 h 1 v 1 h -1"
         id="path3831" />
      <path
         style="opacity:1;fill:#a0a0a0;fill-opacity:1"
         d="m 11,2 h 1 v 1 h -1"
         id="path3833" />
      <path
         style="opacity:1;fill:#d1d1d1;fill-opacity:1"
         d="M 0,3 H 1 V 4 H 0"
         id="path3835" />
      <path
         style="opacity:1;fill:#d1d1d1;fill-opacity:1"
         d="M 1,3 H 2 V 4 H 1"
         id="path3837" />
      <path
         style="opacity:1;fill:#d1d1d1;fill-opacity:1"
         d="M 2,3 H 3 V 4 H 2"
         id="path3839" />
      <path
         style="opacity:1;fill:#d1d1d1;fill-opacity:1"
         d="M 3,3 H 4 V 4 H 3"
         id="path3841" />
      <path
         style="opacity:1;fill:#d1d1d1;fill-opacity:1"
         d="M 4,3 H 5 V 4 H 4"
         id="path3843" />
      <path
         style="opacity:1;fill:#d1d1d1;fill-opacity:1"
         d="M 5,3 H 6 V 4 H 5"
         id="path3845" />
      <path
         style="opacity:1;fill:#d1d1d1;fill-opacity:1"
         d="M 6,3 H 7 V 4 H 6"
         id="path3847" />
      <path
         style="opacity:1;fill:#d1d1d1;fill-opacity:1"
         d="M 7,3 H 8 V 4 H 7"
         id="path3849" />
      <path
         style="opacity:1;fill:#d1d1d1;fill-opacity:1"
         d="M 8,3 H 9 V 4 H 8"
         id="path3851" />
      <path
         style="opacity:1;fill:#a0a0a0;fill-opacity:1"
         d="m 9,3 h 1 V 4 H 9"
         id="path3853" />
      <path
         style="opacity:1;fill:#a0a0a0;fill-opacity:1"
         d="m 10,3 h 1 v 1 h -1"
         id="path3855" />
      <path
         style="opacity:1;fill:#a0a0a0;fill-opacity:1"
         d="m 11,3 h 1 v 1 h -1"
         id="path3857" />
      <path
         style="opacity:1;fill:#434343;fill-opacity:1"
         d="M 0,4 H 1 V 5 H 0"
         id="path3859" />
      <path
         style="opacity:1;fill:#434343;fill-opacity:1"
         d="M 1,4 H 2 L 1.75,4.75 1,5"
         id="path3861" />
      <path
         style="opacity:1;fill:#666666;fill-opacity:1"
         d="M 2,4 H 3 V 5 L 2.25,5.25 1.75,4.75"
         id="path3863" />
      <path
         style="opacity:1;fill:#666666;fill-opacity:1"
         d="M 3,4 H 4 V 5 H 3"
         id="path3865" />
      <path
         style="opacity:1;fill:#666666;fill-opacity:1"
         d="M 4,4 H 5 V 5 H 4"
         id="path3867" />
      <path
         style="opacity:1;fill:#666666;fill-opacity:1"
         d="M 5,4 H 6 V 5 H 5"
         id="path3869" />
      <path
         style="opacity:1;fill:#666666;fill-opacity:1"
         d="M 6,4 H 7 L 7.25,4.75 6.75,5.25 6,5"
         id="path3871" />
      <path
         style="opacity:1;fill:#434343;fill-opacity:1"
         d="M 7,4 H 8 V 5 L 7.25,4.75"
         id="path3873" />
      <path
         style="opacity:1;fill:#434343;fill-opacity:1"
         d="M 8,4 H 9 L 9.25,4.75 8.75,5.25 8,5"
         id="path3875" />
      <path
         style="opacity:1;fill:#242424;fill-opacity:1"
         d="m 9,4 h 1 V 5 L 9.25,4.75"
         id="path3877" />
      <path
         style="opacity:1;fill:#242424;fill-opacity:1"
         d="m 10,4 h 1 v 1 h -1"
         id="path3879" />
      <path
         style="opacity:1;fill:#242424;fill-opacity:1"
         d="m 11,4 h 1 v 1 h -1"
         id="path3881" />
      <path
         style="opacity:1;fill:#666666;fill-opacity:1"
         d="M 0,5 H 1 V 6 H 0"
         id="path3883" />
      <path
         style="opacity:1;fill:#666666;fill-opacity:1"
         d="M 1,5 1.75,4.75 2.25,5.25 2,6 H 1"
         id="path3885" />
      <path
         style="opacity:1;fill:#969696;fill-opacity:1"
         d="M 2.25,5.25 3,5 V 6 H 2"
         id="path3887" />
      <path
         style="opacity:1;fill:#969696;fill-opacity:1"
         d="M 3,5 H 4 V 6 H 3"
         id="path3889" />
      <path
         style="opacity:1;fill:#969696;fill-opacity:1"
         d="M 4,5 H 5 V 6 H 4"
         id="path3891" />
      <path
         style="opacity:1;fill:#969696;fill-opacity:1"
         d="M 5,5 H 6 V 6 H 5"
         id="path3893" />
      <path
         style="opacity:1;fill:#969696;fill-opacity:1"
         d="M 6,5 6.75,5.25 7,6 H 6"
         id="path3895" />
      <path
         style="opacity:1;fill:#666666;fill-opacity:1"
         d="M 6.75,5.25 7.25,4.75 8,5 V 6 H 7"
         id="path3897" />
      <path
         style="opacity:1;fill:#666666;fill-opacity:1"
         d="M 8,5 8.75,5.25 9,6 H 8"
         id="path3899" />
      <path
         style="opacity:1;fill:#434343;fill-opacity:1"
         d="M 8.75,5.25 9.25,4.75 10,5 V 6 H 9"
         id="path3901" />
      <path
         style="opacity:1;fill:#434343;fill-opacity:1"
         d="m 10,5 h 1 v 1 h -1"
         id="path3903" />
      <path
         style="opacity:1;fill:#434343;fill-opacity:1"
         d="m 11,5 h 1 v 1 h -1"
         id="path3905" />
      <path
         style="opacity:1;fill:#666666;fill-opacity:1"
         d="M 0,6 H 1 V 7 H 0"
         id="path3907" />
      <path
         style="opacity:1;fill:#666666;fill-opacity:1"
         d="M 1,6 H 2 V 7 H 1"
         id="path3909" />
      <path
         style="opacity:1;fill:#969696;fill-opacity:1"
         d="M 2,6 H 3 V 7 H 2"
         id="path3911" />
      <path
         style="opacity:1;fill:#969696;fill-opacity:1"
         d="M 3,6 H 4 V 7 H 3"
         id="path3913" />
      <path
         style="opacity:1;fill:#969696;fill-opacity:1"
         d="M 4,6 H 5 V 7 H 4"
         id="path3915" />
      <path
         style="opacity:1;fill:#969696;fill-opacity:1"
         d="M 5,6 H 6 V 7 H 5"
         id="path3917" />
      <path
         style="opacity:1;fill:#969696;fill-opacity:1"
         d="M 6,6 H 7 V 7 H 6"
         id="path3919" />
      <path
         style="opacity:1;fill:#666666;fill-opacity:1"
         d="M 7,6 H 8 V 7 H 7"
         id="path3921" />
      <path
         style="opacity:1;fill:#666666;fill-opacity:1"
         d="M 8,6 H 9 V 7 H 8"
         id="path3923" />
      <path
         style="opacity:1;fill:#434343;fill-opacity:1"
         d="m 9,6 h 1 V 7 H 9"
         id="path3925" />
      <path
         style="opacity:1;fill:#434343;fill-opacity:1"
         d="m 10,6 h 1 v 1 h -1"
         id="path3927" />
      <path
         style="opacity:1;fill:#434343;fill-opacity:1"
         d="m 11,6 h 1 v 1 h -1"
         id="path3929" />
      <path
         style="opacity:1;fill:#666666;fill-opacity:1"
         d="M 0,7 H 1 V 8 H 0"
         id="path3931" />
      <path
         style="opacity:1;fill:#666666;fill-opacity:1"
         d="M 1,7 H 2 V 8 H 1"
         id="path3933" />
      <path
         style="opacity:1;fill:#666666;fill-opacity:1"
         d="M 2,7 H 3 V 8 H 2"
         id="path3935" />
      <path
         style="opacity:1;fill:#666666;fill-opacity:1"
         d="M 3,7 H 4 V 8 H 3"
         id="path3937" />
      <path
         style="opacity:1;fill:#666666;fill-opacity:1"
         d="M 4,7 H 5 V 8 H 4"
         id="path3939" />
      <path
         style="opacity:1;fill:#666666;fill-opacity:1"
         d="M 5,7 H 6 V 8 H 5"
         id="path3941" />
      <path
         style="opacity:1;fill:#666666;fill-opacity:1"
         d="M 6,7 H 7 V 8 H 6"
         id="path3943" />
      <path
         style="opacity:1;fill:#666666;fill-opacity:1"
         d="M 7,7 H 8 V 8 H 7"
         id="path3945" />
      <path
         style="opacity:1;fill:#666666;fill-opacity:1"
         d="M 8,7 H 9 V 8 H 8"
         id="path3947" />
      <path
         style="opacity:1;fill:#434343;fill-opacity:1"
         d="m 9,7 h 1 V 8 H 9"
         id="path3949" />
      <path
         style="opacity:1;fill:#434343;fill-opacity:1"
         d="m 10,7 h 1 v 1 h -1"
         id="path3951" />
      <path
         style="opacity:1;fill:#434343;fill-opacity:1"
         d="m 11,7 h 1 v 1 h -1"
         id="path3953" />
      <path
         style="opacity:1;fill:#666666;fill-opacity:1"
         d="M 0,8 H 1 V 9 H 0"
         id="path3955" />
      <path
         style="opacity:1;fill:#666666;fill-opacity:1"
         d="M 1,8 H 2 V 9 H 1"
         id="path3957" />
      <path
         style="opacity:1;fill:#666666;fill-opacity:1"
         d="M 2,8 H 3 V 9 H 2"
         id="path3959" />
      <path
         style="opacity:1;fill:#666666;fill-opacity:1"
         d="M 3,8 H 4 V 9 H 3"
         id="path3961" />
      <path
         style="opacity:1;fill:#666666;fill-opacity:1"
         d="M 4,8 H 5 V 9 H 4"
         id="path3963" />
      <path
         style="opacity:1;fill:#666666;fill-opacity:1"
         d="M 5,8 H 6 V 9 H 5"
         id="path3965" />
      <path
         style="opacity:1;fill:#666666;fill-opacity:1"
         d="M 6,8 H 7 V 9 H 6"
         id="path3967" />
      <path
         style="opacity:1;fill:#666666;fill-opacity:1"
         d="M 7,8 H 8 V 9 H 7"
         id="path3969" />
      <path
         style="opacity:1;fill:#666666;fill-opacity:1"
         d="M 8,8 H 9 V 9 H 8"
         id="path3971" />
      <path
         style="opacity:1;fill:#434343;fill-opacity:1"
         d="m 9,8 h 1 V 9 H 9"
         id="path3973" />
      <path
         style="opacity:1;fill:#434343;fill-opacity:1"
         d="m 10,8 h 1 v 1 h -1"
         id="path3975" />
      <path
         style="opacity:1;fill:#434343;fill-opacity:1"
         d="m 11,8 h 1 v 1 h -1"
         id="path3977" />
      <path
         style="opacity:1;fill:#666666;fill-opacity:1"
         d="m 0,9 h 1 v 1 H 0"
         id="path3979" />
      <path
         style="opacity:1;fill:#666666;fill-opacity:1"
         d="m 1,9 h 1 v 1 H 1"
         id="path3981" />
      <path
         style="opacity:1;fill:#666666;fill-opacity:1"
         d="m 2,9 h 1 v 1 H 2"
         id="path3983" />
      <path
         style="opacity:1;fill:#666666;fill-opacity:1"
         d="m 3,9 h 1 v 1 H 3"
         id="path3985" />
      <path
         style="opacity:1;fill:#666666;fill-opacity:1"
         d="m 4,9 h 1 v 1 H 4"
         id="path3987" />
      <path
         style="opacity:1;fill:#666666;fill-opacity:1"
         d="m 5,9 h 1 v 1 H 5"
         id="path3989" />
      <path
         style="opacity:1;fill:#666666;fill-opacity:1"
         d="m 6,9 h 1 v 1 H 6"
         id="path3991" />
      <path
         style="opacity:1;fill:#666666;fill-opacity:1"
         d="m 7,9 h 1 v 1 H 7"
         id="path3993" />
      <path
         style="opacity:1;fill:#666666;fill-opacity:1"
         d="m 8,9 h 1 v 1 H 8"
         id="path3995" />
      <path
         style="opacity:1;fill:#434343;fill-opacity:1"
         d="m 9,9 h 1 v 1 H 9"
         id="path3997" />
      <path
         style="opacity:1;fill:#434343;fill-opacity:1"
         d="m 10,9 h 1 v 1 h -1"
         id="path3999" />
      <path
         style="opacity:1;fill:#434343;fill-opacity:1"
         d="m 11,9 h 1 v 1 h -1"
         id="path4001" />
    </g>
  </g>
</svg>
