<?xml version="1.0" encoding="UTF-8" standalone="no"?>
<!-- Created with Inkscape (http://www.inkscape.org/) -->

<svg
   xmlns:dc="http://purl.org/dc/elements/1.1/"
   xmlns:cc="http://creativecommons.org/ns#"
   xmlns:rdf="http://www.w3.org/1999/02/22-rdf-syntax-ns#"
   xmlns:svg="http://www.w3.org/2000/svg"
   xmlns="http://www.w3.org/2000/svg"
   xmlns:sodipodi="http://sodipodi.sourceforge.net/DTD/sodipodi-0.dtd"
   xmlns:inkscape="http://www.inkscape.org/namespaces/inkscape"
   width="40.994045mm"
   height="61.404762mm"
   viewBox="0 0 40.994045 61.404762"
   version="1.1"
   id="svg8915"
   inkscape:version="0.92.4 (5da689c313, 2019-01-14)"
   sodipodi:docname="drawing-3.svg">
  <defs
     id="defs8909" />
  <sodipodi:namedview
     id="base"
     pagecolor="#ffffff"
     bordercolor="#666666"
     borderopacity="1.0"
     inkscape:pageopacity="0.0"
     inkscape:pageshadow="2"
     inkscape:zoom="0.35"
     inkscape:cx="-902.53093"
     inkscape:cy="81.754767"
     inkscape:document-units="mm"
     inkscape:current-layer="layer1"
     showgrid="false"
     inkscape:window-width="2560"
     inkscape:window-height="1377"
     inkscape:window-x="-8"
     inkscape:window-y="-8"
     inkscape:window-maximized="1" />
  <metadata
     id="metadata8912">
    <rdf:RDF>
      <cc:Work
         rdf:about="">
        <dc:format>image/svg+xml</dc:format>
        <dc:type
           rdf:resource="http://purl.org/dc/dcmitype/StillImage" />
        <dc:title></dc:title>
      </cc:Work>
    </rdf:RDF>
  </metadata>
  <g
     inkscape:label="Layer 1"
     inkscape:groupmode="layer"
     id="layer1"
     transform="translate(-78.532738,-109.05952)">
    <g
       transform="matrix(4.0994047,0,0,6.1404762,78.532738,109.05952)"
       id="g4385">
      <path
         inkscape:connector-curvature="0"
         id="path4185"
         d="M 0,0 H 1 V 1 H 0"
         style="opacity:1;fill:#000000;fill-opacity:0" />
      <path
         inkscape:connector-curvature="0"
         id="path4187"
         d="M 1,0 H 2 V 1 H 1"
         style="opacity:1;fill:#000000;fill-opacity:0" />
      <path
         inkscape:connector-curvature="0"
         id="path4189"
         d="M 2,0 H 3 V 1 H 2"
         style="opacity:1;fill:#fefefe;fill-opacity:1" />
      <path
         inkscape:connector-curvature="0"
         id="path4191"
         d="M 3,0 H 4 V 1 H 3"
         style="opacity:1;fill:#fefefe;fill-opacity:1" />
      <path
         inkscape:connector-curvature="0"
         id="path4193"
         d="M 4,0 H 5 V 1 H 4"
         style="opacity:1;fill:#000000;fill-opacity:0" />
      <path
         inkscape:connector-curvature="0"
         id="path4195"
         d="M 5,0 H 6 V 1 H 5"
         style="opacity:1;fill:#000000;fill-opacity:0" />
      <path
         inkscape:connector-curvature="0"
         id="path4197"
         d="M 6,0 H 7 V 1 H 6"
         style="opacity:1;fill:#fefefe;fill-opacity:1" />
      <path
         inkscape:connector-curvature="0"
         id="path4199"
         d="M 7,0 H 8 V 1 H 7"
         style="opacity:1;fill:#fefefe;fill-opacity:1" />
      <path
         inkscape:connector-curvature="0"
         id="path4201"
         d="M 8,0 H 9 V 1 H 8"
         style="opacity:1;fill:#000000;fill-opacity:0" />
      <path
         inkscape:connector-curvature="0"
         id="path4203"
         d="m 9,0 h 1 V 1 H 9"
         style="opacity:1;fill:#000000;fill-opacity:0" />
      <path
         inkscape:connector-curvature="0"
         id="path4205"
         d="M 0,1 H 1 V 2 H 0"
         style="opacity:1;fill:#000000;fill-opacity:0" />
      <path
         inkscape:connector-curvature="0"
         id="path4207"
         d="M 1,1 H 2 V 2 H 1"
         style="opacity:1;fill:#000000;fill-opacity:0" />
      <path
         inkscape:connector-curvature="0"
         id="path4209"
         d="M 2,1 H 3 V 2 H 2"
         style="opacity:1;fill:#d1d1d1;fill-opacity:1" />
      <path
         inkscape:connector-curvature="0"
         id="path4211"
         d="M 3,1 H 4 V 2 H 3"
         style="opacity:1;fill:#d1d1d1;fill-opacity:1" />
      <path
         inkscape:connector-curvature="0"
         id="path4213"
         d="M 4,1 H 5 V 2 H 4"
         style="opacity:1;fill:#a0a0a0;fill-opacity:1" />
      <path
         inkscape:connector-curvature="0"
         id="path4215"
         d="M 5,1 H 6 V 2 H 5"
         style="opacity:1;fill:#a0a0a0;fill-opacity:1" />
      <path
         inkscape:connector-curvature="0"
         id="path4217"
         d="M 6,1 H 7 V 2 H 6"
         style="opacity:1;fill:#d1d1d1;fill-opacity:1" />
      <path
         inkscape:connector-curvature="0"
         id="path4219"
         d="M 7,1 H 8 V 2 H 7"
         style="opacity:1;fill:#d1d1d1;fill-opacity:1" />
      <path
         inkscape:connector-curvature="0"
         id="path4221"
         d="M 8,1 H 9 V 2 H 8"
         style="opacity:1;fill:#000000;fill-opacity:0" />
      <path
         inkscape:connector-curvature="0"
         id="path4223"
         d="m 9,1 h 1 V 2 H 9"
         style="opacity:1;fill:#000000;fill-opacity:0" />
      <path
         inkscape:connector-curvature="0"
         id="path4225"
         d="M 0,2 H 1 V 3 H 0"
         style="opacity:1;fill:#000000;fill-opacity:0" />
      <path
         inkscape:connector-curvature="0"
         id="path4227"
         d="M 1,2 H 2 V 3 H 1"
         style="opacity:1;fill:#000000;fill-opacity:0" />
      <path
         inkscape:connector-curvature="0"
         id="path4229"
         d="M 2,2 H 3 V 3 H 2"
         style="opacity:1;fill:#d1d1d1;fill-opacity:1" />
      <path
         inkscape:connector-curvature="0"
         id="path4231"
         d="M 3,2 H 4 V 3 H 3"
         style="opacity:1;fill:#d1d1d1;fill-opacity:1" />
      <path
         inkscape:connector-curvature="0"
         id="path4233"
         d="M 4,2 H 5 V 3 H 4"
         style="opacity:1;fill:#a0a0a0;fill-opacity:1" />
      <path
         inkscape:connector-curvature="0"
         id="path4235"
         d="M 5,2 H 6 V 3 H 5"
         style="opacity:1;fill:#a0a0a0;fill-opacity:1" />
      <path
         inkscape:connector-curvature="0"
         id="path4237"
         d="M 6,2 H 7 V 3 H 6"
         style="opacity:1;fill:#d1d1d1;fill-opacity:1" />
      <path
         inkscape:connector-curvature="0"
         id="path4239"
         d="M 7,2 H 8 V 3 H 7"
         style="opacity:1;fill:#d1d1d1;fill-opacity:1" />
      <path
         inkscape:connector-curvature="0"
         id="path4241"
         d="M 8,2 H 9 V 3 H 8"
         style="opacity:1;fill:#000000;fill-opacity:0" />
      <path
         inkscape:connector-curvature="0"
         id="path4243"
         d="m 9,2 h 1 V 3 H 9"
         style="opacity:1;fill:#000000;fill-opacity:0" />
      <path
         inkscape:connector-curvature="0"
         id="path4245"
         d="M 0,3 H 1 V 4 H 0"
         style="opacity:1;fill:#000000;fill-opacity:0" />
      <path
         inkscape:connector-curvature="0"
         id="path4247"
         d="M 1,3 H 2 V 4 H 1"
         style="opacity:1;fill:#000000;fill-opacity:0" />
      <path
         inkscape:connector-curvature="0"
         id="path4249"
         d="M 2,3 H 3 V 4 H 2"
         style="opacity:1;fill:#666666;fill-opacity:1" />
      <path
         inkscape:connector-curvature="0"
         id="path4251"
         d="M 3,3 H 4 L 4.25,3.75 3.75,4.25 3,4"
         style="opacity:1;fill:#666666;fill-opacity:1" />
      <path
         inkscape:connector-curvature="0"
         id="path4253"
         d="M 4,3 H 5 V 4 L 4.25,3.75"
         style="opacity:1;fill:#434343;fill-opacity:1" />
      <path
         inkscape:connector-curvature="0"
         id="path4255"
         d="M 5,3 H 6 L 5.75,3.75 5,4"
         style="opacity:1;fill:#434343;fill-opacity:1" />
      <path
         inkscape:connector-curvature="0"
         id="path4257"
         d="M 6,3 H 7 V 4 L 6.25,4.25 5.75,3.75"
         style="opacity:1;fill:#666666;fill-opacity:1" />
      <path
         inkscape:connector-curvature="0"
         id="path4259"
         d="M 7,3 H 8 V 4 H 7"
         style="opacity:1;fill:#666666;fill-opacity:1" />
      <path
         inkscape:connector-curvature="0"
         id="path4261"
         d="M 8,3 H 9 V 4 H 8"
         style="opacity:1;fill:#000000;fill-opacity:0" />
      <path
         inkscape:connector-curvature="0"
         id="path4263"
         d="m 9,3 h 1 V 4 H 9"
         style="opacity:1;fill:#000000;fill-opacity:0" />
      <path
         inkscape:connector-curvature="0"
         id="path4265"
         d="M 0,4 H 1 V 5 H 0"
         style="opacity:1;fill:#a0a0a0;fill-opacity:1" />
      <path
         inkscape:connector-curvature="0"
         id="path4267"
         d="M 1,4 H 2 L 2.25,4.75 1.75,5.25 1,5"
         style="opacity:1;fill:#d1d1d1;fill-opacity:1" />
      <path
         inkscape:connector-curvature="0"
         id="path4269"
         d="M 2,4 H 3 V 5 L 2.25,4.75"
         style="opacity:1;fill:#d1d1d1;fill-opacity:1" />
      <path
         inkscape:connector-curvature="0"
         id="path4271"
         d="M 3,4 3.75,4.25 4,5 H 3"
         style="opacity:1;fill:#d1d1d1;fill-opacity:1" />
      <path
         inkscape:connector-curvature="0"
         id="path4273"
         d="M 3.75,4.25 4.25,3.75 5,4 V 5 H 4"
         style="opacity:1;fill:#434343;fill-opacity:1" />
      <path
         inkscape:connector-curvature="0"
         id="path4275"
         d="M 5,4 5.75,3.75 6.25,4.25 6,5 H 5"
         style="opacity:1;fill:#434343;fill-opacity:1" />
      <path
         inkscape:connector-curvature="0"
         id="path4277"
         d="M 6.25,4.25 7,4 V 5 H 6"
         style="opacity:1;fill:#d1d1d1;fill-opacity:1" />
      <path
         inkscape:connector-curvature="0"
         id="path4279"
         d="M 7,4 H 8 L 7.75,4.75 7,5"
         style="opacity:1;fill:#d1d1d1;fill-opacity:1" />
      <path
         inkscape:connector-curvature="0"
         id="path4281"
         d="M 8,4 H 9 V 5 L 8.25,5.25 7.75,4.75"
         style="opacity:1;fill:#d1d1d1;fill-opacity:1" />
      <path
         inkscape:connector-curvature="0"
         id="path4283"
         d="m 9,4 h 1 V 5 H 9"
         style="opacity:1;fill:#a0a0a0;fill-opacity:1" />
      <path
         inkscape:connector-curvature="0"
         id="path4285"
         d="M 0,5 H 1 V 6 H 0"
         style="opacity:1;fill:#616161;fill-opacity:1" />
      <path
         inkscape:connector-curvature="0"
         id="path4287"
         d="M 1,5 1.75,5.25 2,6 H 1"
         style="opacity:1;fill:#616161;fill-opacity:1" />
      <path
         inkscape:connector-curvature="0"
         id="path4289"
         d="M 1.75,5.25 2.25,4.75 3,5 V 6 H 2"
         style="opacity:1;fill:#d1d1d1;fill-opacity:1" />
      <path
         inkscape:connector-curvature="0"
         id="path4291"
         d="M 3,5 H 4 V 6 H 3"
         style="opacity:1;fill:#d1d1d1;fill-opacity:1" />
      <path
         inkscape:connector-curvature="0"
         id="path4293"
         d="M 4,5 H 5 V 6 H 4"
         style="opacity:1;fill:#000000;fill-opacity:0" />
      <path
         inkscape:connector-curvature="0"
         id="path4295"
         d="M 5,5 H 6 V 6 H 5"
         style="opacity:1;fill:#000000;fill-opacity:0" />
      <path
         inkscape:connector-curvature="0"
         id="path4297"
         d="M 6,5 H 7 V 6 H 6"
         style="opacity:1;fill:#d1d1d1;fill-opacity:1" />
      <path
         inkscape:connector-curvature="0"
         id="path4299"
         d="M 7,5 7.75,4.75 8.25,5.25 8,6 H 7"
         style="opacity:1;fill:#d1d1d1;fill-opacity:1" />
      <path
         inkscape:connector-curvature="0"
         id="path4301"
         d="M 8.25,5.25 9,5 V 6 H 8"
         style="opacity:1;fill:#616161;fill-opacity:1" />
      <path
         inkscape:connector-curvature="0"
         id="path4303"
         d="m 9,5 h 1 V 6 H 9"
         style="opacity:1;fill:#616161;fill-opacity:1" />
      <path
         inkscape:connector-curvature="0"
         id="path4305"
         d="M 0,6 H 1 V 7 H 0"
         style="opacity:1;fill:#616161;fill-opacity:1" />
      <path
         inkscape:connector-curvature="0"
         id="path4307"
         d="M 1,6 H 2 V 7 H 1"
         style="opacity:1;fill:#616161;fill-opacity:1" />
      <path
         inkscape:connector-curvature="0"
         id="path4309"
         d="M 2,6 H 3 V 7 H 2"
         style="opacity:1;fill:#d1d1d1;fill-opacity:1" />
      <path
         inkscape:connector-curvature="0"
         id="path4311"
         d="M 3,6 H 4 V 7 H 3"
         style="opacity:1;fill:#d1d1d1;fill-opacity:1" />
      <path
         inkscape:connector-curvature="0"
         id="path4313"
         d="M 4,6 H 5 V 7 H 4"
         style="opacity:1;fill:#666666;fill-opacity:1" />
      <path
         inkscape:connector-curvature="0"
         id="path4315"
         d="M 5,6 H 6 V 7 H 5"
         style="opacity:1;fill:#666666;fill-opacity:1" />
      <path
         inkscape:connector-curvature="0"
         id="path4317"
         d="M 6,6 H 7 V 7 H 6"
         style="opacity:1;fill:#d1d1d1;fill-opacity:1" />
      <path
         inkscape:connector-curvature="0"
         id="path4319"
         d="M 7,6 H 8 V 7 H 7"
         style="opacity:1;fill:#d1d1d1;fill-opacity:1" />
      <path
         inkscape:connector-curvature="0"
         id="path4321"
         d="M 8,6 H 9 V 7 H 8"
         style="opacity:1;fill:#616161;fill-opacity:1" />
      <path
         inkscape:connector-curvature="0"
         id="path4323"
         d="m 9,6 h 1 V 7 H 9"
         style="opacity:1;fill:#616161;fill-opacity:1" />
      <path
         inkscape:connector-curvature="0"
         id="path4325"
         d="M 0,7 H 1 V 8 H 0"
         style="opacity:1;fill:#616161;fill-opacity:1" />
      <path
         inkscape:connector-curvature="0"
         id="path4327"
         d="M 1,7 H 2 L 1.75,7.75 1,8"
         style="opacity:1;fill:#616161;fill-opacity:1" />
      <path
         inkscape:connector-curvature="0"
         id="path4329"
         d="M 2,7 H 3 V 8 L 2.25,8.25 1.75,7.75"
         style="opacity:1;fill:#d1d1d1;fill-opacity:1" />
      <path
         inkscape:connector-curvature="0"
         id="path4331"
         d="M 3,7 H 4 V 8 H 3"
         style="opacity:1;fill:#d1d1d1;fill-opacity:1" />
      <path
         inkscape:connector-curvature="0"
         id="path4333"
         d="M 4,7 H 5 V 8 H 4"
         style="opacity:1;fill:#666666;fill-opacity:1" />
      <path
         inkscape:connector-curvature="0"
         id="path4335"
         d="M 5,7 H 6 V 8 H 5"
         style="opacity:1;fill:#666666;fill-opacity:1" />
      <path
         inkscape:connector-curvature="0"
         id="path4337"
         d="M 6,7 H 7 V 8 H 6"
         style="opacity:1;fill:#d1d1d1;fill-opacity:1" />
      <path
         inkscape:connector-curvature="0"
         id="path4339"
         d="M 7,7 H 8 L 8.25,7.75 7.75,8.25 7,8"
         style="opacity:1;fill:#d1d1d1;fill-opacity:1" />
      <path
         inkscape:connector-curvature="0"
         id="path4341"
         d="M 8,7 H 9 V 8 L 8.25,7.75"
         style="opacity:1;fill:#616161;fill-opacity:1" />
      <path
         inkscape:connector-curvature="0"
         id="path4343"
         d="m 9,7 h 1 V 8 H 9"
         style="opacity:1;fill:#616161;fill-opacity:1" />
      <path
         inkscape:connector-curvature="0"
         id="path4345"
         d="M 0,8 H 1 L 0.75,8.75 0,9"
         style="opacity:1;fill:#a0a0a0;fill-opacity:1" />
      <path
         inkscape:connector-curvature="0"
         id="path4347"
         d="M 1,8 1.75,7.75 2.25,8.25 2,9 1.25,9.25 0.75,8.75"
         style="opacity:1;fill:#d1d1d1;fill-opacity:1" />
      <path
         inkscape:connector-curvature="0"
         id="path4349"
         d="M 2.25,8.25 3,8 V 9 H 2"
         style="opacity:1;fill:#d1d1d1;fill-opacity:1" />
      <path
         inkscape:connector-curvature="0"
         id="path4351"
         d="M 3,8 H 4 V 9 H 3"
         style="opacity:1;fill:#d1d1d1;fill-opacity:1" />
      <path
         inkscape:connector-curvature="0"
         id="path4353"
         d="M 4,8 H 5 V 9 H 4"
         style="opacity:1;fill:#000000;fill-opacity:0" />
      <path
         inkscape:connector-curvature="0"
         id="path4355"
         d="M 5,8 H 6 V 9 H 5"
         style="opacity:1;fill:#000000;fill-opacity:0" />
      <path
         inkscape:connector-curvature="0"
         id="path4357"
         d="M 6,8 H 7 V 9 H 6"
         style="opacity:1;fill:#d1d1d1;fill-opacity:1" />
      <path
         inkscape:connector-curvature="0"
         id="path4359"
         d="M 7,8 7.75,8.25 8,9 H 7"
         style="opacity:1;fill:#d1d1d1;fill-opacity:1" />
      <path
         inkscape:connector-curvature="0"
         id="path4361"
         d="M 7.75,8.25 8.25,7.75 9,8 9.25,8.75 8.75,9.25 8,9"
         style="opacity:1;fill:#d1d1d1;fill-opacity:1" />
      <path
         inkscape:connector-curvature="0"
         id="path4363"
         d="m 9,8 h 1 V 9 L 9.25,8.75"
         style="opacity:1;fill:#a0a0a0;fill-opacity:1" />
      <path
         inkscape:connector-curvature="0"
         id="path4365"
         d="M 0,9 0.75,8.75 1.25,9.25 1,10 H 0"
         style="opacity:1;fill:#d1d1d1;fill-opacity:1" />
      <path
         inkscape:connector-curvature="0"
         id="path4367"
         d="M 1.25,9.25 2,9 v 1 H 1"
         style="opacity:1;fill:#fefefe;fill-opacity:1" />
      <path
         inkscape:connector-curvature="0"
         id="path4369"
         d="m 2,9 h 1 v 1 H 2"
         style="opacity:1;fill:#fefefe;fill-opacity:1" />
      <path
         inkscape:connector-curvature="0"
         id="path4371"
         d="m 3,9 h 1 v 1 H 3"
         style="opacity:1;fill:#fefefe;fill-opacity:1" />
      <path
         inkscape:connector-curvature="0"
         id="path4373"
         d="m 4,9 h 1 v 1 H 4"
         style="opacity:1;fill:#000000;fill-opacity:0" />
      <path
         inkscape:connector-curvature="0"
         id="path4375"
         d="m 5,9 h 1 v 1 H 5"
         style="opacity:1;fill:#000000;fill-opacity:0" />
      <path
         inkscape:connector-curvature="0"
         id="path4377"
         d="m 6,9 h 1 v 1 H 6"
         style="opacity:1;fill:#fefefe;fill-opacity:1" />
      <path
         inkscape:connector-curvature="0"
         id="path4379"
         d="m 7,9 h 1 v 1 H 7"
         style="opacity:1;fill:#fefefe;fill-opacity:1" />
      <path
         inkscape:connector-curvature="0"
         id="path4381"
         d="M 8,9 8.75,9.25 9,10 H 8"
         style="opacity:1;fill:#fefefe;fill-opacity:1" />
      <path
         inkscape:connector-curvature="0"
         id="path4383"
         d="M 8.75,9.25 9.25,8.75 10,9 v 1 H 9"
         style="opacity:1;fill:#d1d1d1;fill-opacity:1" />
    </g>
  </g>
</svg>
