<?xml version="1.0" encoding="UTF-8" standalone="no"?>
<!-- Created with Inkscape (http://www.inkscape.org/) -->

<svg
   xmlns:dc="http://purl.org/dc/elements/1.1/"
   xmlns:cc="http://creativecommons.org/ns#"
   xmlns:rdf="http://www.w3.org/1999/02/22-rdf-syntax-ns#"
   xmlns:svg="http://www.w3.org/2000/svg"
   xmlns="http://www.w3.org/2000/svg"
   xmlns:sodipodi="http://sodipodi.sourceforge.net/DTD/sodipodi-0.dtd"
   xmlns:inkscape="http://www.inkscape.org/namespaces/inkscape"
   width="46.017857mm"
   height="55.845238mm"
   viewBox="0 0 46.017857 55.845238"
   version="1.1"
   id="svg9904"
   inkscape:version="0.92.4 (5da689c313, 2019-01-14)"
   sodipodi:docname="drawing-6.svg">
  <defs
     id="defs9898" />
  <sodipodi:namedview
     id="base"
     pagecolor="#ffffff"
     bordercolor="#666666"
     borderopacity="1.0"
     inkscape:pageopacity="0.0"
     inkscape:pageshadow="2"
     inkscape:zoom="0.35"
     inkscape:cx="-904.46569"
     inkscape:cy="88.391445"
     inkscape:document-units="mm"
     inkscape:current-layer="layer1"
     showgrid="false"
     inkscape:window-width="2560"
     inkscape:window-height="1377"
     inkscape:window-x="-8"
     inkscape:window-y="-8"
     inkscape:window-maximized="1" />
  <metadata
     id="metadata9901">
    <rdf:RDF>
      <cc:Work
         rdf:about="">
        <dc:format>image/svg+xml</dc:format>
        <dc:type
           rdf:resource="http://purl.org/dc/dcmitype/StillImage" />
        <dc:title></dc:title>
      </cc:Work>
    </rdf:RDF>
  </metadata>
  <g
     inkscape:label="Layer 1"
     inkscape:groupmode="layer"
     id="layer1"
     transform="translate(-79.044643,-116.375)">
    <g
       transform="matrix(3.8348214,0,0,4.6537697,79.044643,116.375)"
       id="g5166">
      <path
         inkscape:connector-curvature="0"
         id="path4878"
         d="M 0,0 H 1 V 1 H 0"
         style="opacity:1;fill:#000000;fill-opacity:0" />
      <path
         inkscape:connector-curvature="0"
         id="path4880"
         d="M 1,0 H 2 V 1 H 1"
         style="opacity:1;fill:#000000;fill-opacity:0" />
      <path
         inkscape:connector-curvature="0"
         id="path4882"
         d="M 2,0 H 3 V 1 H 2"
         style="opacity:1;fill:#000000;fill-opacity:0" />
      <path
         inkscape:connector-curvature="0"
         id="path4884"
         d="M 3,0 H 4 V 1 H 3"
         style="opacity:1;fill:#000000;fill-opacity:0" />
      <path
         inkscape:connector-curvature="0"
         id="path4886"
         d="M 4,0 H 5 V 1 H 4"
         style="opacity:1;fill:#505050;fill-opacity:1" />
      <path
         inkscape:connector-curvature="0"
         id="path4888"
         d="M 5,0 H 6 V 1 H 5"
         style="opacity:1;fill:#505050;fill-opacity:1" />
      <path
         inkscape:connector-curvature="0"
         id="path4890"
         d="M 6,0 H 7 V 1 H 6"
         style="opacity:1;fill:#505050;fill-opacity:1" />
      <path
         inkscape:connector-curvature="0"
         id="path4892"
         d="M 7,0 H 8 V 1 H 7"
         style="opacity:1;fill:#505050;fill-opacity:1" />
      <path
         inkscape:connector-curvature="0"
         id="path4894"
         d="M 8,0 H 9 V 1 H 8"
         style="opacity:1;fill:#000000;fill-opacity:0" />
      <path
         inkscape:connector-curvature="0"
         id="path4896"
         d="m 9,0 h 1 V 1 H 9"
         style="opacity:1;fill:#000000;fill-opacity:0" />
      <path
         inkscape:connector-curvature="0"
         id="path4898"
         d="m 10,0 h 1 v 1 h -1"
         style="opacity:1;fill:#000000;fill-opacity:0" />
      <path
         inkscape:connector-curvature="0"
         id="path4900"
         d="m 11,0 h 1 v 1 h -1"
         style="opacity:1;fill:#000000;fill-opacity:0" />
      <path
         inkscape:connector-curvature="0"
         id="path4902"
         d="M 0,1 H 1 V 2 H 0"
         style="opacity:1;fill:#000000;fill-opacity:0" />
      <path
         inkscape:connector-curvature="0"
         id="path4904"
         d="M 1,1 H 2 V 2 H 1"
         style="opacity:1;fill:#000000;fill-opacity:0" />
      <path
         inkscape:connector-curvature="0"
         id="path4906"
         d="M 2,1 H 3 V 2 H 2"
         style="opacity:1;fill:#000000;fill-opacity:0" />
      <path
         inkscape:connector-curvature="0"
         id="path4908"
         d="M 3,1 H 4 V 2 H 3"
         style="opacity:1;fill:#000000;fill-opacity:0" />
      <path
         inkscape:connector-curvature="0"
         id="path4910"
         d="M 4,1 H 5 V 2 H 4"
         style="opacity:1;fill:#505050;fill-opacity:1" />
      <path
         inkscape:connector-curvature="0"
         id="path4912"
         d="M 5,1 H 6 V 2 H 5"
         style="opacity:1;fill:#505050;fill-opacity:1" />
      <path
         inkscape:connector-curvature="0"
         id="path4914"
         d="M 6,1 H 7 V 2 H 6"
         style="opacity:1;fill:#505050;fill-opacity:1" />
      <path
         inkscape:connector-curvature="0"
         id="path4916"
         d="M 7,1 H 8 V 2 H 7"
         style="opacity:1;fill:#505050;fill-opacity:1" />
      <path
         inkscape:connector-curvature="0"
         id="path4918"
         d="M 8,1 H 9 V 2 H 8"
         style="opacity:1;fill:#000000;fill-opacity:0" />
      <path
         inkscape:connector-curvature="0"
         id="path4920"
         d="m 9,1 h 1 V 2 H 9"
         style="opacity:1;fill:#000000;fill-opacity:0" />
      <path
         inkscape:connector-curvature="0"
         id="path4922"
         d="m 10,1 h 1 v 1 h -1"
         style="opacity:1;fill:#000000;fill-opacity:0" />
      <path
         inkscape:connector-curvature="0"
         id="path4924"
         d="m 11,1 h 1 v 1 h -1"
         style="opacity:1;fill:#000000;fill-opacity:0" />
      <path
         inkscape:connector-curvature="0"
         id="path4926"
         d="M 0,2 H 1 V 3 H 0"
         style="opacity:1;fill:#969696;fill-opacity:1" />
      <path
         inkscape:connector-curvature="0"
         id="path4928"
         d="M 1,2 H 2 V 3 H 1"
         style="opacity:1;fill:#666666;fill-opacity:1" />
      <path
         inkscape:connector-curvature="0"
         id="path4930"
         d="M 2,2 H 3 V 3 H 2"
         style="opacity:1;fill:#969696;fill-opacity:1" />
      <path
         inkscape:connector-curvature="0"
         id="path4932"
         d="M 3,2 H 4 V 3 H 3"
         style="opacity:1;fill:#434343;fill-opacity:1" />
      <path
         inkscape:connector-curvature="0"
         id="path4934"
         d="M 4,2 H 5 V 3 H 4"
         style="opacity:1;fill:#505050;fill-opacity:1" />
      <path
         inkscape:connector-curvature="0"
         id="path4936"
         d="M 5,2 H 6 V 3 H 5"
         style="opacity:1;fill:#505050;fill-opacity:1" />
      <path
         inkscape:connector-curvature="0"
         id="path4938"
         d="M 6,2 H 7 V 3 H 6"
         style="opacity:1;fill:#505050;fill-opacity:1" />
      <path
         inkscape:connector-curvature="0"
         id="path4940"
         d="M 7,2 H 8 V 3 H 7"
         style="opacity:1;fill:#505050;fill-opacity:1" />
      <path
         inkscape:connector-curvature="0"
         id="path4942"
         d="M 8,2 H 9 V 3 H 8"
         style="opacity:1;fill:#434343;fill-opacity:1" />
      <path
         inkscape:connector-curvature="0"
         id="path4944"
         d="m 9,2 h 1 V 3 H 9"
         style="opacity:1;fill:#969696;fill-opacity:1" />
      <path
         inkscape:connector-curvature="0"
         id="path4946"
         d="m 10,2 h 1 v 1 h -1"
         style="opacity:1;fill:#666666;fill-opacity:1" />
      <path
         inkscape:connector-curvature="0"
         id="path4948"
         d="m 11,2 h 1 v 1 h -1"
         style="opacity:1;fill:#969696;fill-opacity:1" />
      <path
         inkscape:connector-curvature="0"
         id="path4950"
         d="M 0,3 H 1 V 4 H 0"
         style="opacity:1;fill:#969696;fill-opacity:1" />
      <path
         inkscape:connector-curvature="0"
         id="path4952"
         d="M 1,3 H 2 V 4 H 1"
         style="opacity:1;fill:#666666;fill-opacity:1" />
      <path
         inkscape:connector-curvature="0"
         id="path4954"
         d="M 2,3 H 3 V 4 H 2"
         style="opacity:1;fill:#969696;fill-opacity:1" />
      <path
         inkscape:connector-curvature="0"
         id="path4956"
         d="M 3,3 H 4 V 4 H 3"
         style="opacity:1;fill:#434343;fill-opacity:1" />
      <path
         inkscape:connector-curvature="0"
         id="path4958"
         d="M 4,3 H 5 V 4 H 4"
         style="opacity:1;fill:#aeaeae;fill-opacity:1" />
      <path
         inkscape:connector-curvature="0"
         id="path4960"
         d="M 5,3 H 6 V 4 H 5"
         style="opacity:1;fill:#aeaeae;fill-opacity:1" />
      <path
         inkscape:connector-curvature="0"
         id="path4962"
         d="M 6,3 H 7 V 4 H 6"
         style="opacity:1;fill:#aeaeae;fill-opacity:1" />
      <path
         inkscape:connector-curvature="0"
         id="path4964"
         d="M 7,3 H 8 V 4 H 7"
         style="opacity:1;fill:#aeaeae;fill-opacity:1" />
      <path
         inkscape:connector-curvature="0"
         id="path4966"
         d="M 8,3 H 9 V 4 H 8"
         style="opacity:1;fill:#434343;fill-opacity:1" />
      <path
         inkscape:connector-curvature="0"
         id="path4968"
         d="m 9,3 h 1 V 4 H 9"
         style="opacity:1;fill:#969696;fill-opacity:1" />
      <path
         inkscape:connector-curvature="0"
         id="path4970"
         d="m 10,3 h 1 v 1 h -1"
         style="opacity:1;fill:#666666;fill-opacity:1" />
      <path
         inkscape:connector-curvature="0"
         id="path4972"
         d="m 11,3 h 1 v 1 h -1"
         style="opacity:1;fill:#969696;fill-opacity:1" />
      <path
         inkscape:connector-curvature="0"
         id="path4974"
         d="M 0,4 H 1 V 5 H 0"
         style="opacity:1;fill:#000000;fill-opacity:0" />
      <path
         inkscape:connector-curvature="0"
         id="path4976"
         d="M 1,4 H 2 V 5 H 1"
         style="opacity:1;fill:#000000;fill-opacity:0" />
      <path
         inkscape:connector-curvature="0"
         id="path4978"
         d="M 2,4 H 3 V 5 H 2"
         style="opacity:1;fill:#000000;fill-opacity:0" />
      <path
         inkscape:connector-curvature="0"
         id="path4980"
         d="M 3,4 H 4 V 5 H 3"
         style="opacity:1;fill:#000000;fill-opacity:0" />
      <path
         inkscape:connector-curvature="0"
         id="path4982"
         d="M 4,4 H 5 V 5 H 4"
         style="opacity:1;fill:#aeaeae;fill-opacity:1" />
      <path
         inkscape:connector-curvature="0"
         id="path4984"
         d="M 5,4 H 6 V 5 H 5"
         style="opacity:1;fill:#aeaeae;fill-opacity:1" />
      <path
         inkscape:connector-curvature="0"
         id="path4986"
         d="M 6,4 H 7 L 7.25,4.75 6.75,5.25 6,5"
         style="opacity:1;fill:#aeaeae;fill-opacity:1" />
      <path
         inkscape:connector-curvature="0"
         id="path4988"
         d="M 7,4 H 8 V 5 L 7.25,4.75"
         style="opacity:1;fill:#aeaeae;fill-opacity:1" />
      <path
         inkscape:connector-curvature="0"
         id="path4990"
         d="M 8,4 H 9 V 5 H 8"
         style="opacity:1;fill:#000000;fill-opacity:0" />
      <path
         inkscape:connector-curvature="0"
         id="path4992"
         d="m 9,4 h 1 V 5 H 9"
         style="opacity:1;fill:#000000;fill-opacity:0" />
      <path
         inkscape:connector-curvature="0"
         id="path4994"
         d="m 10,4 h 1 v 1 h -1"
         style="opacity:1;fill:#000000;fill-opacity:0" />
      <path
         inkscape:connector-curvature="0"
         id="path4996"
         d="m 11,4 h 1 v 1 h -1"
         style="opacity:1;fill:#000000;fill-opacity:0" />
      <path
         inkscape:connector-curvature="0"
         id="path4998"
         d="M 0,5 H 1 V 6 H 0"
         style="opacity:1;fill:#434343;fill-opacity:1" />
      <path
         inkscape:connector-curvature="0"
         id="path5000"
         d="M 1,5 H 2 V 6 H 1"
         style="opacity:1;fill:#666666;fill-opacity:1" />
      <path
         inkscape:connector-curvature="0"
         id="path5002"
         d="M 2,5 H 3 V 6 H 2"
         style="opacity:1;fill:#666666;fill-opacity:1" />
      <path
         inkscape:connector-curvature="0"
         id="path5004"
         d="M 3,5 H 4 V 6 H 3"
         style="opacity:1;fill:#434343;fill-opacity:1" />
      <path
         inkscape:connector-curvature="0"
         id="path5006"
         d="M 4,5 H 5 V 6 H 4"
         style="opacity:1;fill:#808080;fill-opacity:1" />
      <path
         inkscape:connector-curvature="0"
         id="path5008"
         d="M 5,5 H 6 V 6 H 5"
         style="opacity:1;fill:#808080;fill-opacity:1" />
      <path
         inkscape:connector-curvature="0"
         id="path5010"
         d="M 6,5 6.75,5.25 7,6 H 6"
         style="opacity:1;fill:#808080;fill-opacity:1" />
      <path
         inkscape:connector-curvature="0"
         id="path5012"
         d="M 6.75,5.25 7.25,4.75 8,5 V 6 H 7"
         style="opacity:1;fill:#aeaeae;fill-opacity:1" />
      <path
         inkscape:connector-curvature="0"
         id="path5014"
         d="M 8,5 H 9 V 6 H 8"
         style="opacity:1;fill:#434343;fill-opacity:1" />
      <path
         inkscape:connector-curvature="0"
         id="path5016"
         d="m 9,5 h 1 V 6 H 9"
         style="opacity:1;fill:#666666;fill-opacity:1" />
      <path
         inkscape:connector-curvature="0"
         id="path5018"
         d="m 10,5 h 1 v 1 h -1"
         style="opacity:1;fill:#666666;fill-opacity:1" />
      <path
         inkscape:connector-curvature="0"
         id="path5020"
         d="m 11,5 h 1 v 1 h -1"
         style="opacity:1;fill:#434343;fill-opacity:1" />
      <path
         inkscape:connector-curvature="0"
         id="path5022"
         d="M 0,6 H 1 V 7 H 0"
         style="opacity:1;fill:#000000;fill-opacity:0" />
      <path
         inkscape:connector-curvature="0"
         id="path5024"
         d="M 1,6 H 2 V 7 H 1"
         style="opacity:1;fill:#000000;fill-opacity:0" />
      <path
         inkscape:connector-curvature="0"
         id="path5026"
         d="M 2,6 H 3 V 7 H 2"
         style="opacity:1;fill:#000000;fill-opacity:0" />
      <path
         inkscape:connector-curvature="0"
         id="path5028"
         d="M 3,6 H 4 V 7 H 3"
         style="opacity:1;fill:#000000;fill-opacity:0" />
      <path
         inkscape:connector-curvature="0"
         id="path5030"
         d="M 4,6 H 5 V 7 H 4"
         style="opacity:1;fill:#808080;fill-opacity:1" />
      <path
         inkscape:connector-curvature="0"
         id="path5032"
         d="M 5,6 H 6 V 7 H 5"
         style="opacity:1;fill:#808080;fill-opacity:1" />
      <path
         inkscape:connector-curvature="0"
         id="path5034"
         d="M 6,6 H 7 L 6.75,6.75 6,7"
         style="opacity:1;fill:#808080;fill-opacity:1" />
      <path
         inkscape:connector-curvature="0"
         id="path5036"
         d="M 7,6 H 8 V 7 L 7.25,7.25 6.75,6.75"
         style="opacity:1;fill:#aeaeae;fill-opacity:1" />
      <path
         inkscape:connector-curvature="0"
         id="path5038"
         d="M 8,6 H 9 V 7 H 8"
         style="opacity:1;fill:#000000;fill-opacity:0" />
      <path
         inkscape:connector-curvature="0"
         id="path5040"
         d="m 9,6 h 1 V 7 H 9"
         style="opacity:1;fill:#000000;fill-opacity:0" />
      <path
         inkscape:connector-curvature="0"
         id="path5042"
         d="m 10,6 h 1 v 1 h -1"
         style="opacity:1;fill:#000000;fill-opacity:0" />
      <path
         inkscape:connector-curvature="0"
         id="path5044"
         d="m 11,6 h 1 v 1 h -1"
         style="opacity:1;fill:#000000;fill-opacity:0" />
      <path
         inkscape:connector-curvature="0"
         id="path5046"
         d="M 0,7 H 1 V 8 H 0"
         style="opacity:1;fill:#000000;fill-opacity:0" />
      <path
         inkscape:connector-curvature="0"
         id="path5048"
         d="M 1,7 H 2 V 8 H 1"
         style="opacity:1;fill:#000000;fill-opacity:0" />
      <path
         inkscape:connector-curvature="0"
         id="path5050"
         d="M 2,7 H 3 V 8 H 2"
         style="opacity:1;fill:#000000;fill-opacity:0" />
      <path
         inkscape:connector-curvature="0"
         id="path5052"
         d="M 3,7 H 4 L 4.25,7.75 3.75,8.25 3,8"
         style="opacity:1;fill:#000000;fill-opacity:0" />
      <path
         inkscape:connector-curvature="0"
         id="path5054"
         d="M 4,7 H 5 V 8 L 4.25,7.75"
         style="opacity:1;fill:#aeaeae;fill-opacity:1" />
      <path
         inkscape:connector-curvature="0"
         id="path5056"
         d="M 5,7 H 6 V 8 H 5"
         style="opacity:1;fill:#aeaeae;fill-opacity:1" />
      <path
         inkscape:connector-curvature="0"
         id="path5058"
         d="M 6,7 6.75,6.75 7.25,7.25 7,8 H 6"
         style="opacity:1;fill:#aeaeae;fill-opacity:1" />
      <path
         inkscape:connector-curvature="0"
         id="path5060"
         d="M 7.25,7.25 8,7 7.75,7.75 7,8"
         style="opacity:1;fill:#aeaeae;fill-opacity:1" />
      <path
         inkscape:connector-curvature="0"
         id="path5062"
         d="M 8,7 H 9 V 8 L 8.25,8.25 7.75,7.75"
         style="opacity:1;fill:#000000;fill-opacity:0" />
      <path
         inkscape:connector-curvature="0"
         id="path5064"
         d="m 9,7 h 1 V 8 H 9"
         style="opacity:1;fill:#000000;fill-opacity:0" />
      <path
         inkscape:connector-curvature="0"
         id="path5066"
         d="m 10,7 h 1 v 1 h -1"
         style="opacity:1;fill:#000000;fill-opacity:0" />
      <path
         inkscape:connector-curvature="0"
         id="path5068"
         d="m 11,7 h 1 v 1 h -1"
         style="opacity:1;fill:#000000;fill-opacity:0" />
      <path
         inkscape:connector-curvature="0"
         id="path5070"
         d="M 0,8 H 1 V 9 H 0"
         style="opacity:1;fill:#000000;fill-opacity:0" />
      <path
         inkscape:connector-curvature="0"
         id="path5072"
         d="M 1,8 H 2 V 9 H 1"
         style="opacity:1;fill:#000000;fill-opacity:0" />
      <path
         inkscape:connector-curvature="0"
         id="path5074"
         d="M 2,8 H 3 V 9 H 2"
         style="opacity:1;fill:#000000;fill-opacity:0" />
      <path
         inkscape:connector-curvature="0"
         id="path5076"
         d="M 3,8 3.75,8.25 4,9 H 3"
         style="opacity:1;fill:#000000;fill-opacity:0" />
      <path
         inkscape:connector-curvature="0"
         id="path5078"
         d="M 3.75,8.25 4.25,7.75 5,8 V 9 H 4"
         style="opacity:1;fill:#000000;fill-opacity:0" />
      <path
         inkscape:connector-curvature="0"
         id="path5080"
         d="M 5,8 H 6 V 9 H 5"
         style="opacity:1;fill:#666666;fill-opacity:1" />
      <path
         inkscape:connector-curvature="0"
         id="path5082"
         d="M 6,8 H 7 V 9 H 6"
         style="opacity:1;fill:#666666;fill-opacity:1" />
      <path
         inkscape:connector-curvature="0"
         id="path5084"
         d="M 7,8 7.75,7.75 8.25,8.25 8,9 H 7"
         style="opacity:1;fill:#000000;fill-opacity:0" />
      <path
         inkscape:connector-curvature="0"
         id="path5086"
         d="M 8.25,8.25 9,8 V 9 H 8"
         style="opacity:1;fill:#000000;fill-opacity:0" />
      <path
         inkscape:connector-curvature="0"
         id="path5088"
         d="m 9,8 h 1 V 9 H 9"
         style="opacity:1;fill:#000000;fill-opacity:0" />
      <path
         inkscape:connector-curvature="0"
         id="path5090"
         d="m 10,8 h 1 v 1 h -1"
         style="opacity:1;fill:#000000;fill-opacity:0" />
      <path
         inkscape:connector-curvature="0"
         id="path5092"
         d="m 11,8 h 1 v 1 h -1"
         style="opacity:1;fill:#000000;fill-opacity:0" />
      <path
         inkscape:connector-curvature="0"
         id="path5094"
         d="m 0,9 h 1 v 1 H 0"
         style="opacity:1;fill:#000000;fill-opacity:0" />
      <path
         inkscape:connector-curvature="0"
         id="path5096"
         d="m 1,9 h 1 v 1 H 1"
         style="opacity:1;fill:#000000;fill-opacity:0" />
      <path
         inkscape:connector-curvature="0"
         id="path5098"
         d="m 2,9 h 1 v 1 H 2"
         style="opacity:1;fill:#000000;fill-opacity:0" />
      <path
         inkscape:connector-curvature="0"
         id="path5100"
         d="m 3,9 h 1 v 1 H 3"
         style="opacity:1;fill:#000000;fill-opacity:0" />
      <path
         inkscape:connector-curvature="0"
         id="path5102"
         d="m 4,9 h 1 v 1 H 4"
         style="opacity:1;fill:#000000;fill-opacity:0" />
      <path
         inkscape:connector-curvature="0"
         id="path5104"
         d="m 5,9 h 1 v 1 H 5"
         style="opacity:1;fill:#d3d3d3;fill-opacity:1" />
      <path
         inkscape:connector-curvature="0"
         id="path5106"
         d="m 6,9 h 1 v 1 H 6"
         style="opacity:1;fill:#d3d3d3;fill-opacity:1" />
      <path
         inkscape:connector-curvature="0"
         id="path5108"
         d="m 7,9 h 1 v 1 H 7"
         style="opacity:1;fill:#000000;fill-opacity:0" />
      <path
         inkscape:connector-curvature="0"
         id="path5110"
         d="m 8,9 h 1 v 1 H 8"
         style="opacity:1;fill:#000000;fill-opacity:0" />
      <path
         inkscape:connector-curvature="0"
         id="path5112"
         d="m 9,9 h 1 v 1 H 9"
         style="opacity:1;fill:#000000;fill-opacity:0" />
      <path
         inkscape:connector-curvature="0"
         id="path5114"
         d="m 10,9 h 1 v 1 h -1"
         style="opacity:1;fill:#000000;fill-opacity:0" />
      <path
         inkscape:connector-curvature="0"
         id="path5116"
         d="m 11,9 h 1 v 1 h -1"
         style="opacity:1;fill:#000000;fill-opacity:0" />
      <path
         inkscape:connector-curvature="0"
         id="path5118"
         d="m 0,10 h 1 v 1 H 0"
         style="opacity:1;fill:#000000;fill-opacity:0" />
      <path
         inkscape:connector-curvature="0"
         id="path5120"
         d="m 1,10 h 1 v 1 H 1"
         style="opacity:1;fill:#000000;fill-opacity:0" />
      <path
         inkscape:connector-curvature="0"
         id="path5122"
         d="m 2,10 h 1 v 1 H 2"
         style="opacity:1;fill:#000000;fill-opacity:0" />
      <path
         inkscape:connector-curvature="0"
         id="path5124"
         d="m 3,10 h 1 v 1 H 3"
         style="opacity:1;fill:#000000;fill-opacity:0" />
      <path
         inkscape:connector-curvature="0"
         id="path5126"
         d="m 4,10 h 1 v 1 H 4"
         style="opacity:1;fill:#000000;fill-opacity:0" />
      <path
         inkscape:connector-curvature="0"
         id="path5128"
         d="m 5,10 h 1 v 1 H 5"
         style="opacity:1;fill:#d3d3d3;fill-opacity:1" />
      <path
         inkscape:connector-curvature="0"
         id="path5130"
         d="m 6,10 h 1 v 1 H 6"
         style="opacity:1;fill:#d3d3d3;fill-opacity:1" />
      <path
         inkscape:connector-curvature="0"
         id="path5132"
         d="m 7,10 h 1 v 1 H 7"
         style="opacity:1;fill:#000000;fill-opacity:0" />
      <path
         inkscape:connector-curvature="0"
         id="path5134"
         d="m 8,10 h 1 v 1 H 8"
         style="opacity:1;fill:#000000;fill-opacity:0" />
      <path
         inkscape:connector-curvature="0"
         id="path5136"
         d="m 9,10 h 1 v 1 H 9"
         style="opacity:1;fill:#000000;fill-opacity:0" />
      <path
         inkscape:connector-curvature="0"
         id="path5138"
         d="m 10,10 h 1 v 1 h -1"
         style="opacity:1;fill:#000000;fill-opacity:0" />
      <path
         inkscape:connector-curvature="0"
         id="path5140"
         d="m 11,10 h 1 v 1 h -1"
         style="opacity:1;fill:#000000;fill-opacity:0" />
      <path
         inkscape:connector-curvature="0"
         id="path5142"
         d="m 0,11 h 1 v 1 H 0"
         style="opacity:1;fill:#000000;fill-opacity:0" />
      <path
         inkscape:connector-curvature="0"
         id="path5144"
         d="m 1,11 h 1 v 1 H 1"
         style="opacity:1;fill:#000000;fill-opacity:0" />
      <path
         inkscape:connector-curvature="0"
         id="path5146"
         d="m 2,11 h 1 v 1 H 2"
         style="opacity:1;fill:#000000;fill-opacity:0" />
      <path
         inkscape:connector-curvature="0"
         id="path5148"
         d="m 3,11 h 1 v 1 H 3"
         style="opacity:1;fill:#000000;fill-opacity:0" />
      <path
         inkscape:connector-curvature="0"
         id="path5150"
         d="m 4,11 h 1 v 1 H 4"
         style="opacity:1;fill:#000000;fill-opacity:0" />
      <path
         inkscape:connector-curvature="0"
         id="path5152"
         d="m 5,11 h 1 v 1 H 5"
         style="opacity:1;fill:#d3d3d3;fill-opacity:1" />
      <path
         inkscape:connector-curvature="0"
         id="path5154"
         d="m 6,11 h 1 v 1 H 6"
         style="opacity:1;fill:#d3d3d3;fill-opacity:1" />
      <path
         inkscape:connector-curvature="0"
         id="path5156"
         d="m 7,11 h 1 v 1 H 7"
         style="opacity:1;fill:#000000;fill-opacity:0" />
      <path
         inkscape:connector-curvature="0"
         id="path5158"
         d="m 8,11 h 1 v 1 H 8"
         style="opacity:1;fill:#000000;fill-opacity:0" />
      <path
         inkscape:connector-curvature="0"
         id="path5160"
         d="m 9,11 h 1 v 1 H 9"
         style="opacity:1;fill:#000000;fill-opacity:0" />
      <path
         inkscape:connector-curvature="0"
         id="path5162"
         d="m 10,11 h 1 v 1 h -1"
         style="opacity:1;fill:#000000;fill-opacity:0" />
      <path
         inkscape:connector-curvature="0"
         id="path5164"
         d="m 11,11 h 1 v 1 h -1"
         style="opacity:1;fill:#000000;fill-opacity:0" />
    </g>
  </g>
</svg>
