<?xml version="1.0" encoding="UTF-8" standalone="no"?>
<svg
   xmlns:dc="http://purl.org/dc/elements/1.1/"
   xmlns:cc="http://creativecommons.org/ns#"
   xmlns:rdf="http://www.w3.org/1999/02/22-rdf-syntax-ns#"
   xmlns:svg="http://www.w3.org/2000/svg"
   xmlns="http://www.w3.org/2000/svg"
   id="svg8528"
   version="1.1"
   viewBox="0 0 44.505951 54.845238"
   height="54.845238mm"
   width="44.505951mm">
  <defs
     id="defs8522" />
  <metadata
     id="metadata8525">
    <rdf:RDF>
      <cc:Work
         rdf:about="">
        <dc:format>image/svg+xml</dc:format>
        <dc:type
           rdf:resource="http://purl.org/dc/dcmitype/StillImage" />
        <dc:title></dc:title>
      </cc:Work>
    </rdf:RDF>
  </metadata>
  <g
     transform="translate(-94.16369,-132.75)"
     id="layer1">
    <g
       id="g5632"
       transform="matrix(3.7088294,0,0,4.9859306,94.16369,132.75)">
      <path
         style="opacity:1;fill:#969696;fill-opacity:1"
         d="M 0,0 H 1 L 0.75,0.75 0,1"
         id="path5368" />
      <path
         style="opacity:1;fill:#666666;fill-opacity:1"
         d="M 1,0 H 2 V 1 L 1.25,1.25 0.75,0.75"
         id="path5370" />
      <path
         style="opacity:1;fill:#d3d3d3;fill-opacity:1"
         d="M 2,0 H 3 L 2.75,0.75 2,1"
         id="path5372" />
      <path
         style="opacity:1;fill:#d3d3d3;fill-opacity:1"
         d="M 3,0 H 4 V 1 L 3.25,1.25 2.75,0.75"
         id="path5374" />
      <path
         style="opacity:1;fill:#d3d3d3;fill-opacity:1"
         d="M 4,0 H 5 V 1 H 4"
         id="path5376" />
      <path
         style="opacity:1;fill:#d3d3d3;fill-opacity:1"
         d="M 5,0 H 6 V 1 H 5"
         id="path5378" />
      <path
         style="opacity:1;fill:#d3d3d3;fill-opacity:1"
         d="M 6,0 H 7 V 1 H 6"
         id="path5380" />
      <path
         style="opacity:1;fill:#d3d3d3;fill-opacity:1"
         d="M 7,0 H 8 V 1 H 7"
         id="path5382" />
      <path
         style="opacity:1;fill:#d3d3d3;fill-opacity:1"
         d="M 8,0 H 9 V 1 H 8"
         id="path5384" />
      <path
         style="opacity:1;fill:#d3d3d3;fill-opacity:1"
         d="m 9,0 h 1 L 10.25,0.75 9.75,1.25 9,1"
         id="path5386" />
      <path
         style="opacity:1;fill:#d3d3d3;fill-opacity:1"
         d="m 10,0 h 1 V 1 L 10.25,0.75"
         id="path5388" />
      <path
         style="opacity:1;fill:#000000;fill-opacity:0"
         d="m 11,0 h 1 v 1 h -1"
         id="path5390" />
      <path
         style="opacity:1;fill:#434343;fill-opacity:1"
         d="M 0,1 0.75,0.75 1.25,1.25 1,2 H 0"
         id="path5392" />
      <path
         style="opacity:1;fill:#000000;fill-opacity:0"
         d="M 1.25,1.25 2,1 V 2 H 1"
         id="path5394" />
      <path
         style="opacity:1;fill:#d3d3d3;fill-opacity:1"
         d="M 2,1 2.75,0.75 3.25,1.25 3,2 H 2"
         id="path5396" />
      <path
         style="opacity:1;fill:#505050;fill-opacity:1"
         d="M 3.25,1.25 4,1 3.75,1.75 3,2"
         id="path5398" />
      <path
         style="opacity:1;fill:#505050;fill-opacity:1"
         d="M 4,1 H 5 V 2 L 4.25,2.25 3.75,1.75"
         id="path5400" />
      <path
         style="opacity:1;fill:#505050;fill-opacity:1"
         d="M 5,1 H 6 V 2 H 5"
         id="path5402" />
      <path
         style="opacity:1;fill:#505050;fill-opacity:1"
         d="M 6,1 H 7 V 2 H 6"
         id="path5404" />
      <path
         style="opacity:1;fill:#505050;fill-opacity:1"
         d="M 7,1 H 8 V 2 H 7"
         id="path5406" />
      <path
         style="opacity:1;fill:#505050;fill-opacity:1"
         d="M 8,1 H 9 L 9.25,1.75 8.75,2.25 8,2"
         id="path5408" />
      <path
         style="opacity:1;fill:#505050;fill-opacity:1"
         d="M 9,1 9.75,1.25 10,2 9.25,1.75"
         id="path5410" />
      <path
         style="opacity:1;fill:#d3d3d3;fill-opacity:1"
         d="M 9.75,1.25 10.25,0.75 11,1 v 1 h -1"
         id="path5412" />
      <path
         style="opacity:1;fill:#000000;fill-opacity:0"
         d="m 11,1 h 1 v 1 h -1"
         id="path5414" />
      <path
         style="opacity:1;fill:#666666;fill-opacity:1"
         d="M 0,2 H 1 V 3 H 0"
         id="path5416" />
      <path
         style="opacity:1;fill:#000000;fill-opacity:0"
         d="M 1,2 H 2 V 3 H 1"
         id="path5418" />
      <path
         style="opacity:1;fill:#d3d3d3;fill-opacity:1"
         d="M 2,2 H 3 V 3 H 2"
         id="path5420" />
      <path
         style="opacity:1;fill:#505050;fill-opacity:1"
         d="M 3,2 3.75,1.75 4.25,2.25 4,3 H 3"
         id="path5422" />
      <path
         style="opacity:1;fill:#aeaeae;fill-opacity:1"
         d="M 4.25,2.25 5,2 V 3 H 4"
         id="path5424" />
      <path
         style="opacity:1;fill:#aeaeae;fill-opacity:1"
         d="M 5,2 H 6 V 3 H 5"
         id="path5426" />
      <path
         style="opacity:1;fill:#aeaeae;fill-opacity:1"
         d="M 6,2 H 7 V 3 H 6"
         id="path5428" />
      <path
         style="opacity:1;fill:#aeaeae;fill-opacity:1"
         d="M 7,2 H 8 L 8.25,2.75 7.75,3.25 7,3"
         id="path5430" />
      <path
         style="opacity:1;fill:#808080;fill-opacity:1"
         d="M 8,2 8.75,2.25 9,3 8.25,2.75"
         id="path5432" />
      <path
         style="opacity:1;fill:#505050;fill-opacity:1"
         d="M 8.75,2.25 9.25,1.75 10,2 V 3 H 9"
         id="path5434" />
      <path
         style="opacity:1;fill:#d3d3d3;fill-opacity:1"
         d="m 10,2 h 1 v 1 h -1"
         id="path5436" />
      <path
         style="opacity:1;fill:#666666;fill-opacity:1"
         d="m 11,2 h 1 v 1 h -1"
         id="path5438" />
      <path
         style="opacity:1;fill:#666666;fill-opacity:1"
         d="M 0,3 H 1 V 4 H 0"
         id="path5440" />
      <path
         style="opacity:1;fill:#000000;fill-opacity:0"
         d="M 1,3 H 2 V 4 H 1"
         id="path5442" />
      <path
         style="opacity:1;fill:#d3d3d3;fill-opacity:1"
         d="M 2,3 H 3 V 4 H 2"
         id="path5444" />
      <path
         style="opacity:1;fill:#505050;fill-opacity:1"
         d="M 3,3 H 4 L 4.25,3.75 3.75,4.25 3,4"
         id="path5446" />
      <path
         style="opacity:1;fill:#aeaeae;fill-opacity:1"
         d="M 4,3 H 5 V 4 L 4.25,3.75"
         id="path5448" />
      <path
         style="opacity:1;fill:#aeaeae;fill-opacity:1"
         d="M 5,3 H 6 V 4 H 5"
         id="path5450" />
      <path
         style="opacity:1;fill:#aeaeae;fill-opacity:1"
         d="M 6,3 H 7 V 4 H 6"
         id="path5452" />
      <path
         style="opacity:1;fill:#aeaeae;fill-opacity:1"
         d="M 7,3 7.75,3.25 8,4 H 7"
         id="path5454" />
      <path
         style="opacity:1;fill:#aeaeae;fill-opacity:1"
         d="M 7.75,3.25 8.25,2.75 9,3 8.75,3.75 8,4"
         id="path5456" />
      <path
         style="opacity:1;fill:#505050;fill-opacity:1"
         d="m 9,3 h 1 V 4 L 9.25,4.25 8.75,3.75"
         id="path5458" />
      <path
         style="opacity:1;fill:#d3d3d3;fill-opacity:1"
         d="m 10,3 h 1 v 1 h -1"
         id="path5460" />
      <path
         style="opacity:1;fill:#666666;fill-opacity:1"
         d="m 11,3 h 1 v 1 h -1"
         id="path5462" />
      <path
         style="opacity:1;fill:#666666;fill-opacity:1"
         d="M 0,4 H 1 V 5 H 0"
         id="path5464" />
      <path
         style="opacity:1;fill:#000000;fill-opacity:0"
         d="M 1,4 H 2 V 5 H 1"
         id="path5466" />
      <path
         style="opacity:1;fill:#d3d3d3;fill-opacity:1"
         d="M 2,4 H 3 V 5 H 2"
         id="path5468" />
      <path
         style="opacity:1;fill:#505050;fill-opacity:1"
         d="m 3,4 0.75,0.25 v 0.5 L 3,5"
         id="path5470" />
      <path
         style="opacity:1;fill:#505050;fill-opacity:1"
         d="M 3.75,4.25 4.25,3.75 5,4 V 5 L 4.25,5.25 3.75,4.75"
         id="path5472" />
      <path
         style="opacity:1;fill:#505050;fill-opacity:1"
         d="M 5,4 H 6 V 5 H 5"
         id="path5474" />
      <path
         style="opacity:1;fill:#505050;fill-opacity:1"
         d="M 6,4 H 7 V 5 H 6"
         id="path5476" />
      <path
         style="opacity:1;fill:#505050;fill-opacity:1"
         d="M 7,4 H 8 V 5 H 7"
         id="path5478" />
      <path
         style="opacity:1;fill:#505050;fill-opacity:1"
         d="m 8,4 0.75,-0.25 0.5,0.5 v 0.5 L 8.75,5.25 8,5"
         id="path5480" />
      <path
         style="opacity:1;fill:#505050;fill-opacity:1"
         d="M 9.25,4.25 10,4 V 5 L 9.25,4.75"
         id="path5482" />
      <path
         style="opacity:1;fill:#d3d3d3;fill-opacity:1"
         d="m 10,4 h 1 v 1 h -1"
         id="path5484" />
      <path
         style="opacity:1;fill:#000000;fill-opacity:0"
         d="m 11,4 h 1 v 1 h -1"
         id="path5486" />
      <path
         style="opacity:1;fill:#666666;fill-opacity:1"
         d="M 0,5 H 1 V 6 H 0"
         id="path5488" />
      <path
         style="opacity:1;fill:#000000;fill-opacity:0"
         d="M 1,5 H 2 V 6 H 1"
         id="path5490" />
      <path
         style="opacity:1;fill:#d3d3d3;fill-opacity:1"
         d="M 2,5 H 3 V 6 H 2"
         id="path5492" />
      <path
         style="opacity:1;fill:#505050;fill-opacity:1"
         d="m 3,5 0.75,-0.25 0.5,0.5 v 0.5 L 3.75,6.25 3,6"
         id="path5494" />
      <path
         style="opacity:1;fill:#aeaeae;fill-opacity:1"
         d="M 4.25,5.25 5,5 V 6 L 4.25,5.75"
         id="path5496" />
      <path
         style="opacity:1;fill:#808080;fill-opacity:1"
         d="M 5,5 H 6 V 6 H 5"
         id="path5498" />
      <path
         style="opacity:1;fill:#aeaeae;fill-opacity:1"
         d="M 6,5 H 7 V 6 H 6"
         id="path5500" />
      <path
         style="opacity:1;fill:#aeaeae;fill-opacity:1"
         d="M 7,5 H 8 V 6 H 7"
         id="path5502" />
      <path
         style="opacity:1;fill:#aeaeae;fill-opacity:1"
         d="m 8,5 0.75,0.25 v 0.5 L 8,6"
         id="path5504" />
      <path
         style="opacity:1;fill:#505050;fill-opacity:1"
         d="M 8.75,5.25 9.25,4.75 10,5 V 6 L 9.25,6.25 8.75,5.75"
         id="path5506" />
      <path
         style="opacity:1;fill:#d3d3d3;fill-opacity:1"
         d="m 10,5 h 1 v 1 h -1"
         id="path5508" />
      <path
         style="opacity:1;fill:#000000;fill-opacity:0"
         d="m 11,5 h 1 v 1 h -1"
         id="path5510" />
      <path
         style="opacity:1;fill:#434343;fill-opacity:1"
         d="M 0,6 H 1 L 1.25,6.75 0.75,7.25 0,7"
         id="path5512" />
      <path
         style="opacity:1;fill:#000000;fill-opacity:0"
         d="M 1,6 H 2 V 7 L 1.25,6.75"
         id="path5514" />
      <path
         style="opacity:1;fill:#d3d3d3;fill-opacity:1"
         d="M 2,6 H 3 V 7 H 2"
         id="path5516" />
      <path
         style="opacity:1;fill:#505050;fill-opacity:1"
         d="m 3,6 0.75,0.25 v 0.5 L 3,7"
         id="path5518" />
      <path
         style="opacity:1;fill:#505050;fill-opacity:1"
         d="M 3.75,6.25 4.25,5.75 5,6 V 7 L 4.25,7.25 3.75,6.75"
         id="path5520" />
      <path
         style="opacity:1;fill:#505050;fill-opacity:1"
         d="M 5,6 H 6 V 7 H 5"
         id="path5522" />
      <path
         style="opacity:1;fill:#505050;fill-opacity:1"
         d="M 6,6 H 7 V 7 H 6"
         id="path5524" />
      <path
         style="opacity:1;fill:#505050;fill-opacity:1"
         d="M 7,6 H 8 V 7 H 7"
         id="path5526" />
      <path
         style="opacity:1;fill:#505050;fill-opacity:1"
         d="m 8,6 0.75,-0.25 0.5,0.5 v 0.5 L 8.75,7.25 8,7"
         id="path5528" />
      <path
         style="opacity:1;fill:#505050;fill-opacity:1"
         d="M 9.25,6.25 10,6 V 7 L 9.25,6.75"
         id="path5530" />
      <path
         style="opacity:1;fill:#d3d3d3;fill-opacity:1"
         d="m 10,6 h 1 v 1 h -1"
         id="path5532" />
      <path
         style="opacity:1;fill:#000000;fill-opacity:0"
         d="m 11,6 h 1 v 1 h -1"
         id="path5534" />
      <path
         style="opacity:1;fill:#969696;fill-opacity:1"
         d="M 0,7 0.75,7.25 1,8 H 0"
         id="path5536" />
      <path
         style="opacity:1;fill:#666666;fill-opacity:1"
         d="M 0.75,7.25 1.25,6.75 2,7 V 8 H 1"
         id="path5538" />
      <path
         style="opacity:1;fill:#d3d3d3;fill-opacity:1"
         d="M 2,7 H 3 V 8 H 2"
         id="path5540" />
      <path
         style="opacity:1;fill:#505050;fill-opacity:1"
         d="m 3,7 0.75,-0.25 0.5,0.5 v 0.5 L 3.75,8.25 3,8"
         id="path5542" />
      <path
         style="opacity:1;fill:#aeaeae;fill-opacity:1"
         d="M 4.25,7.25 5,7 V 8 L 4.25,7.75"
         id="path5544" />
      <path
         style="opacity:1;fill:#aeaeae;fill-opacity:1"
         d="M 5,7 H 6 V 8 H 5"
         id="path5546" />
      <path
         style="opacity:1;fill:#aeaeae;fill-opacity:1"
         d="M 6,7 H 7 V 8 H 6"
         id="path5548" />
      <path
         style="opacity:1;fill:#808080;fill-opacity:1"
         d="M 7,7 H 8 V 8 H 7"
         id="path5550" />
      <path
         style="opacity:1;fill:#aeaeae;fill-opacity:1"
         d="m 8,7 0.75,0.25 v 0.5 L 8,8"
         id="path5552" />
      <path
         style="opacity:1;fill:#505050;fill-opacity:1"
         d="M 8.75,7.25 9.25,6.75 10,7 V 8 L 9.25,8.25 8.75,7.75"
         id="path5554" />
      <path
         style="opacity:1;fill:#d3d3d3;fill-opacity:1"
         d="m 10,7 h 1 v 1 h -1"
         id="path5556" />
      <path
         style="opacity:1;fill:#000000;fill-opacity:0"
         d="m 11,7 h 1 v 1 h -1"
         id="path5558" />
      <path
         style="opacity:1;fill:#000000;fill-opacity:0"
         d="M 0,8 H 1 V 9 H 0"
         id="path5560" />
      <path
         style="opacity:1;fill:#000000;fill-opacity:0"
         d="M 1,8 H 2 V 9 H 1"
         id="path5562" />
      <path
         style="opacity:1;fill:#d3d3d3;fill-opacity:1"
         d="M 2,8 H 3 L 3.25,8.75 2.75,9.25 2,9"
         id="path5564" />
      <path
         style="opacity:1;fill:#505050;fill-opacity:1"
         d="M 3,8 3.75,8.25 4,9 3.25,8.75"
         id="path5566" />
      <path
         style="opacity:1;fill:#505050;fill-opacity:1"
         d="M 3.75,8.25 4.25,7.75 5,8 V 9 H 4"
         id="path5568" />
      <path
         style="opacity:1;fill:#505050;fill-opacity:1"
         d="M 5,8 H 6 V 9 H 5"
         id="path5570" />
      <path
         style="opacity:1;fill:#505050;fill-opacity:1"
         d="M 6,8 H 7 V 9 H 6"
         id="path5572" />
      <path
         style="opacity:1;fill:#505050;fill-opacity:1"
         d="M 7,8 H 8 V 9 H 7"
         id="path5574" />
      <path
         style="opacity:1;fill:#505050;fill-opacity:1"
         d="M 8,8 8.75,7.75 9.25,8.25 9,9 H 8"
         id="path5576" />
      <path
         style="opacity:1;fill:#505050;fill-opacity:1"
         d="M 9.25,8.25 10,8 9.75,8.75 9,9"
         id="path5578" />
      <path
         style="opacity:1;fill:#d3d3d3;fill-opacity:1"
         d="m 10,8 h 1 v 1 l -0.75,0.25 -0.5,-0.5"
         id="path5580" />
      <path
         style="opacity:1;fill:#000000;fill-opacity:0"
         d="m 11,8 h 1 v 1 h -1"
         id="path5582" />
      <path
         style="opacity:1;fill:#000000;fill-opacity:0"
         d="m 0,9 h 1 v 1 H 0"
         id="path5584" />
      <path
         style="opacity:1;fill:#000000;fill-opacity:0"
         d="m 1,9 h 1 v 1 H 1"
         id="path5586" />
      <path
         style="opacity:1;fill:#d3d3d3;fill-opacity:1"
         d="M 2,9 2.75,9.25 3,10 H 2"
         id="path5588" />
      <path
         style="opacity:1;fill:#d3d3d3;fill-opacity:1"
         d="M 2.75,9.25 3.25,8.75 4,9 v 1 H 3"
         id="path5590" />
      <path
         style="opacity:1;fill:#d3d3d3;fill-opacity:1"
         d="m 4,9 h 1 v 1 H 4"
         id="path5592" />
      <path
         style="opacity:1;fill:#d3d3d3;fill-opacity:1"
         d="m 5,9 h 1 v 1 H 5"
         id="path5594" />
      <path
         style="opacity:1;fill:#d3d3d3;fill-opacity:1"
         d="m 6,9 h 1 v 1 H 6"
         id="path5596" />
      <path
         style="opacity:1;fill:#d3d3d3;fill-opacity:1"
         d="m 7,9 h 1 v 1 H 7"
         id="path5598" />
      <path
         style="opacity:1;fill:#d3d3d3;fill-opacity:1"
         d="m 8,9 h 1 v 1 H 8"
         id="path5600" />
      <path
         style="opacity:1;fill:#d3d3d3;fill-opacity:1"
         d="M 9,9 9.75,8.75 10.25,9.25 10,10 H 9"
         id="path5602" />
      <path
         style="opacity:1;fill:#d3d3d3;fill-opacity:1"
         d="M 10.25,9.25 11,9 v 1 h -1"
         id="path5604" />
      <path
         style="opacity:1;fill:#000000;fill-opacity:0"
         d="m 11,9 h 1 v 1 h -1"
         id="path5606" />
      <path
         style="opacity:1;fill:#000000;fill-opacity:0"
         d="m 0,10 h 1 v 1 H 0"
         id="path5608" />
      <path
         style="opacity:1;fill:#000000;fill-opacity:0"
         d="m 1,10 h 1 v 1 H 1"
         id="path5610" />
      <path
         style="opacity:1;fill:#666666;fill-opacity:1"
         d="m 2,10 h 1 v 1 H 2"
         id="path5612" />
      <path
         style="opacity:1;fill:#666666;fill-opacity:1"
         d="m 3,10 h 1 v 1 H 3"
         id="path5614" />
      <path
         style="opacity:1;fill:#666666;fill-opacity:1"
         d="m 4,10 h 1 v 1 H 4"
         id="path5616" />
      <path
         style="opacity:1;fill:#666666;fill-opacity:1"
         d="m 5,10 h 1 v 1 H 5"
         id="path5618" />
      <path
         style="opacity:1;fill:#666666;fill-opacity:1"
         d="m 6,10 h 1 v 1 H 6"
         id="path5620" />
      <path
         style="opacity:1;fill:#666666;fill-opacity:1"
         d="m 7,10 h 1 v 1 H 7"
         id="path5622" />
      <path
         style="opacity:1;fill:#666666;fill-opacity:1"
         d="m 8,10 h 1 v 1 H 8"
         id="path5624" />
      <path
         style="opacity:1;fill:#666666;fill-opacity:1"
         d="m 9,10 h 1 v 1 H 9"
         id="path5626" />
      <path
         style="opacity:1;fill:#666666;fill-opacity:1"
         d="m 10,10 h 1 v 1 h -1"
         id="path5628" />
      <path
         style="opacity:1;fill:#000000;fill-opacity:0"
         d="m 11,10 h 1 v 1 h -1"
         id="path5630" />
    </g>
  </g>
</svg>
