<?xml version="1.0" encoding="UTF-8" standalone="no"?>
<svg
   xmlns:dc="http://purl.org/dc/elements/1.1/"
   xmlns:cc="http://creativecommons.org/ns#"
   xmlns:rdf="http://www.w3.org/1999/02/22-rdf-syntax-ns#"
   xmlns:svg="http://www.w3.org/2000/svg"
   xmlns="http://www.w3.org/2000/svg"
   id="svg9593"
   version="1.1"
   viewBox="0 0 47.624996 47.822926"
   height="47.822926mm"
   width="47.624996mm">
  <defs
     id="defs9587" />
  <metadata
     id="metadata9590">
    <rdf:RDF>
      <cc:Work
         rdf:about="">
        <dc:format>image/svg+xml</dc:format>
        <dc:type
           rdf:resource="http://purl.org/dc/dcmitype/StillImage" />
        <dc:title></dc:title>
      </cc:Work>
    </rdf:RDF>
  </metadata>
  <g
     transform="translate(-78.997025,-124.16592)"
     id="layer1">
    <g
       id="g5946"
       transform="matrix(5.9531247,0,0,5.3136586,78.997025,124.16592)">
      <path
         style="opacity:1;fill:#969696;fill-opacity:1"
         d="M 0,0 H 1 V 1 H 0"
         id="path5802" />
      <path
         style="opacity:1;fill:#d3d3d3;fill-opacity:1"
         d="M 1,0 H 2 V 1 H 1"
         id="path5804" />
      <path
         style="opacity:1;fill:#d3d3d3;fill-opacity:1"
         d="M 2,0 H 3 V 1 H 2"
         id="path5806" />
      <path
         style="opacity:1;fill:#d3d3d3;fill-opacity:1"
         d="M 3,0 H 4 V 1 H 3"
         id="path5808" />
      <path
         style="opacity:1;fill:#d3d3d3;fill-opacity:1"
         d="M 4,0 H 5 V 1 H 4"
         id="path5810" />
      <path
         style="opacity:1;fill:#d3d3d3;fill-opacity:1"
         d="M 5,0 H 6 V 1 H 5"
         id="path5812" />
      <path
         style="opacity:1;fill:#d3d3d3;fill-opacity:1"
         d="M 6,0 H 7 V 1 H 6"
         id="path5814" />
      <path
         style="opacity:1;fill:#969696;fill-opacity:1"
         d="M 7,0 H 8 V 1 H 7"
         id="path5816" />
      <path
         style="opacity:1;fill:#000000;fill-opacity:0"
         d="M 0,1 H 1 V 2 H 0"
         id="path5818" />
      <path
         style="opacity:1;fill:#616161;fill-opacity:1"
         d="M 1,1 H 2 V 2 H 1"
         id="path5820" />
      <path
         style="opacity:1;fill:#616161;fill-opacity:1"
         d="M 2,1 H 3 V 2 H 2"
         id="path5822" />
      <path
         style="opacity:1;fill:#616161;fill-opacity:1"
         d="M 3,1 H 4 V 2 H 3"
         id="path5824" />
      <path
         style="opacity:1;fill:#434343;fill-opacity:1"
         d="M 4,1 H 5 V 2 H 4"
         id="path5826" />
      <path
         style="opacity:1;fill:#434343;fill-opacity:1"
         d="M 5,1 H 6 V 2 H 5"
         id="path5828" />
      <path
         style="opacity:1;fill:#616161;fill-opacity:1"
         d="M 6,1 H 7 V 2 H 6"
         id="path5830" />
      <path
         style="opacity:1;fill:#000000;fill-opacity:0"
         d="M 7,1 H 8 V 2 H 7"
         id="path5832" />
      <path
         style="opacity:1;fill:#000000;fill-opacity:0"
         d="M 0,2 H 1 V 3 H 0"
         id="path5834" />
      <path
         style="opacity:1;fill:#d1d1d1;fill-opacity:1"
         d="M 1,2 H 2 L 2.25,2.75 1.75,3.25 1,3"
         id="path5836" />
      <path
         style="opacity:1;fill:#fefefe;fill-opacity:1"
         d="M 2,2 H 3 L 2.75,2.75 h -0.5"
         id="path5838" />
      <path
         style="opacity:1;fill:#d1d1d1;fill-opacity:1"
         d="M 3,2 H 4 L 3.75,2.75 3.25,3.25 2.75,2.75"
         id="path5840" />
      <path
         style="opacity:1;fill:#a0a0a0;fill-opacity:1"
         d="M 4,2 H 5 V 3 L 4.25,3.25 3.75,2.75"
         id="path5842" />
      <path
         style="opacity:1;fill:#a0a0a0;fill-opacity:1"
         d="M 5,2 H 6 V 3 H 5"
         id="path5844" />
      <path
         style="opacity:1;fill:#d1d1d1;fill-opacity:1"
         d="M 6,2 H 7 V 3 H 6"
         id="path5846" />
      <path
         style="opacity:1;fill:#000000;fill-opacity:0"
         d="M 7,2 H 8 V 3 H 7"
         id="path5848" />
      <path
         style="opacity:1;fill:#000000;fill-opacity:0"
         d="M 0,3 H 1 V 4 H 0"
         id="path5850" />
      <path
         style="opacity:1;fill:#616161;fill-opacity:1"
         d="m 1,3 0.75,0.25 v 0.5 L 1,4"
         id="path5852" />
      <path
         style="opacity:1;fill:#d1d1d1;fill-opacity:1"
         d="m 1.75,3.25 0.5,-0.5 h 0.5 l 0.5,0.5 v 0.5 l -0.5,0.5 h -0.5 l -0.5,-0.5"
         id="path5854" />
      <path
         style="opacity:1;fill:#a0a0a0;fill-opacity:1"
         d="m 3.25,3.25 0.5,-0.5 0.5,0.5 v 0.5 l -0.5,0.5 -0.5,-0.5"
         id="path5856" />
      <path
         style="opacity:1;fill:#616161;fill-opacity:1"
         d="M 4.25,3.25 5,3 V 4 L 4.25,3.75"
         id="path5858" />
      <path
         style="opacity:1;fill:#616161;fill-opacity:1"
         d="M 5,3 H 6 V 4 H 5"
         id="path5860" />
      <path
         style="opacity:1;fill:#616161;fill-opacity:1"
         d="M 6,3 H 7 V 4 H 6"
         id="path5862" />
      <path
         style="opacity:1;fill:#000000;fill-opacity:0"
         d="M 7,3 H 8 V 4 H 7"
         id="path5864" />
      <path
         style="opacity:1;fill:#000000;fill-opacity:0"
         d="M 0,4 H 1 V 5 H 0"
         id="path5866" />
      <path
         style="opacity:1;fill:#d1d1d1;fill-opacity:1"
         d="m 1,4 0.75,-0.25 0.5,0.5 v 0.5 L 1.75,5.25 1,5"
         id="path5868" />
      <path
         style="opacity:1;fill:#fefefe;fill-opacity:1"
         d="m 2.25,4.25 h 0.5 v 0.5 h -0.5"
         id="path5870" />
      <path
         style="opacity:1;fill:#d1d1d1;fill-opacity:1"
         d="m 2.75,4.25 0.5,-0.5 0.5,0.5 v 0.5 l -0.5,0.5 -0.5,-0.5"
         id="path5872" />
      <path
         style="opacity:1;fill:#a0a0a0;fill-opacity:1"
         d="M 3.75,4.25 4.25,3.75 5,4 V 5 L 4.25,5.25 3.75,4.75"
         id="path5874" />
      <path
         style="opacity:1;fill:#a0a0a0;fill-opacity:1"
         d="M 5,4 H 6 V 5 H 5"
         id="path5876" />
      <path
         style="opacity:1;fill:#d1d1d1;fill-opacity:1"
         d="M 6,4 H 7 V 5 H 6"
         id="path5878" />
      <path
         style="opacity:1;fill:#000000;fill-opacity:0"
         d="M 7,4 H 8 V 5 H 7"
         id="path5880" />
      <path
         style="opacity:1;fill:#000000;fill-opacity:0"
         d="M 0,5 H 1 V 6 H 0"
         id="path5882" />
      <path
         style="opacity:1;fill:#616161;fill-opacity:1"
         d="m 1,5 0.75,0.25 v 0.5 L 1,6"
         id="path5884" />
      <path
         style="opacity:1;fill:#d1d1d1;fill-opacity:1"
         d="m 1.75,5.25 0.5,-0.5 h 0.5 l 0.5,0.5 v 0.5 l -0.5,0.5 h -0.5 l -0.5,-0.5"
         id="path5886" />
      <path
         style="opacity:1;fill:#a0a0a0;fill-opacity:1"
         d="m 3.25,5.25 0.5,-0.5 0.5,0.5 v 0.5 l -0.5,0.5 -0.5,-0.5"
         id="path5888" />
      <path
         style="opacity:1;fill:#616161;fill-opacity:1"
         d="M 4.25,5.25 5,5 V 6 L 4.25,5.75"
         id="path5890" />
      <path
         style="opacity:1;fill:#616161;fill-opacity:1"
         d="M 5,5 H 6 V 6 H 5"
         id="path5892" />
      <path
         style="opacity:1;fill:#616161;fill-opacity:1"
         d="M 6,5 H 7 V 6 H 6"
         id="path5894" />
      <path
         style="opacity:1;fill:#000000;fill-opacity:0"
         d="M 7,5 H 8 V 6 H 7"
         id="path5896" />
      <path
         style="opacity:1;fill:#000000;fill-opacity:0"
         d="M 0,6 H 1 V 7 H 0"
         id="path5898" />
      <path
         style="opacity:1;fill:#d1d1d1;fill-opacity:1"
         d="m 1,6 0.75,-0.25 0.5,0.5 v 0.5 L 1.75,7.25 1,7"
         id="path5900" />
      <path
         style="opacity:1;fill:#fefefe;fill-opacity:1"
         d="m 2.25,6.25 h 0.5 v 0.5 h -0.5"
         id="path5902" />
      <path
         style="opacity:1;fill:#d1d1d1;fill-opacity:1"
         d="m 2.75,6.25 0.5,-0.5 0.5,0.5 v 0.5 l -0.5,0.5 -0.5,-0.5"
         id="path5904" />
      <path
         style="opacity:1;fill:#a0a0a0;fill-opacity:1"
         d="M 3.75,6.25 4.25,5.75 5,6 V 7 L 4.25,7.25 3.75,6.75"
         id="path5906" />
      <path
         style="opacity:1;fill:#a0a0a0;fill-opacity:1"
         d="M 5,6 H 6 V 7 H 5"
         id="path5908" />
      <path
         style="opacity:1;fill:#d1d1d1;fill-opacity:1"
         d="M 6,6 H 7 V 7 H 6"
         id="path5910" />
      <path
         style="opacity:1;fill:#000000;fill-opacity:0"
         d="M 7,6 H 8 V 7 H 7"
         id="path5912" />
      <path
         style="opacity:1;fill:#000000;fill-opacity:0"
         d="M 0,7 H 1 V 8 H 0"
         id="path5914" />
      <path
         style="opacity:1;fill:#616161;fill-opacity:1"
         d="M 1,7 1.75,7.25 2,8 H 1"
         id="path5916" />
      <path
         style="opacity:1;fill:#d1d1d1;fill-opacity:1"
         d="m 1.75,7.25 0.5,-0.5 h 0.5 L 3.25,7.25 3,8 H 2"
         id="path5918" />
      <path
         style="opacity:1;fill:#a0a0a0;fill-opacity:1"
         d="m 3.25,7.25 0.5,-0.5 0.5,0.5 L 4,8 H 3"
         id="path5920" />
      <path
         style="opacity:1;fill:#616161;fill-opacity:1"
         d="M 4.25,7.25 5,7 V 8 H 4"
         id="path5922" />
      <path
         style="opacity:1;fill:#616161;fill-opacity:1"
         d="M 5,7 H 6 V 8 H 5"
         id="path5924" />
      <path
         style="opacity:1;fill:#616161;fill-opacity:1"
         d="M 6,7 H 7 V 8 H 6"
         id="path5926" />
      <path
         style="opacity:1;fill:#000000;fill-opacity:0"
         d="M 7,7 H 8 V 8 H 7"
         id="path5928" />
      <path
         style="opacity:1;fill:#969696;fill-opacity:1"
         d="M 0,8 H 1 V 9 H 0"
         id="path5930" />
      <path
         style="opacity:1;fill:#d3d3d3;fill-opacity:1"
         d="M 1,8 H 2 V 9 H 1"
         id="path5932" />
      <path
         style="opacity:1;fill:#d3d3d3;fill-opacity:1"
         d="M 2,8 H 3 V 9 H 2"
         id="path5934" />
      <path
         style="opacity:1;fill:#d3d3d3;fill-opacity:1"
         d="M 3,8 H 4 V 9 H 3"
         id="path5936" />
      <path
         style="opacity:1;fill:#d3d3d3;fill-opacity:1"
         d="M 4,8 H 5 V 9 H 4"
         id="path5938" />
      <path
         style="opacity:1;fill:#d3d3d3;fill-opacity:1"
         d="M 5,8 H 6 V 9 H 5"
         id="path5940" />
      <path
         style="opacity:1;fill:#d3d3d3;fill-opacity:1"
         d="M 6,8 H 7 V 9 H 6"
         id="path5942" />
      <path
         style="opacity:1;fill:#969696;fill-opacity:1"
         d="M 7,8 H 8 V 9 H 7"
         id="path5944" />
    </g>
  </g>
</svg>
