<?xml version="1.0" encoding="UTF-8" standalone="no"?>
<!-- Created with Inkscape (http://www.inkscape.org/) -->

<svg
   xmlns:dc="http://purl.org/dc/elements/1.1/"
   xmlns:cc="http://creativecommons.org/ns#"
   xmlns:rdf="http://www.w3.org/1999/02/22-rdf-syntax-ns#"
   xmlns:svg="http://www.w3.org/2000/svg"
   xmlns="http://www.w3.org/2000/svg"
   xmlns:sodipodi="http://sodipodi.sourceforge.net/DTD/sodipodi-0.dtd"
   xmlns:inkscape="http://www.inkscape.org/namespaces/inkscape"
   width="39.487061mm"
   height="54.293591mm"
   viewBox="0 0 39.487061 54.293591"
   version="1.1"
   id="svg11405"
   inkscape:version="0.92.4 (5da689c313, 2019-01-14)"
   sodipodi:docname="drawing-11.svg">
  <defs
     id="defs11399" />
  <sodipodi:namedview
     id="base"
     pagecolor="#ffffff"
     bordercolor="#666666"
     borderopacity="1.0"
     inkscape:pageopacity="0.0"
     inkscape:pageshadow="2"
     inkscape:zoom="0.35"
     inkscape:cx="-905.37878"
     inkscape:cy="85.459186"
     inkscape:document-units="mm"
     inkscape:current-layer="layer1"
     showgrid="false"
     inkscape:window-width="2560"
     inkscape:window-height="1377"
     inkscape:window-x="-8"
     inkscape:window-y="-8"
     inkscape:window-maximized="1" />
  <metadata
     id="metadata11402">
    <rdf:RDF>
      <cc:Work
         rdf:about="">
        <dc:format>image/svg+xml</dc:format>
        <dc:type
           rdf:resource="http://purl.org/dc/dcmitype/StillImage" />
        <dc:title></dc:title>
      </cc:Work>
    </rdf:RDF>
  </metadata>
  <g
     inkscape:label="Layer 1"
     inkscape:groupmode="layer"
     id="layer1"
     transform="translate(-79.286232,-117.15082)">
    <g
       transform="matrix(3.5897328,0,0,4.5244658,79.286232,117.15082)"
       id="g6488">
      <path
         inkscape:connector-curvature="0"
         id="path6224"
         d="M 0,0 H 1 V 1 H 0"
         style="opacity:1;fill:#666666;fill-opacity:1" />
      <path
         inkscape:connector-curvature="0"
         id="path6226"
         d="M 1,0 H 2 L 2.25,0.75 1.75,1.25 1,1"
         style="opacity:1;fill:#666666;fill-opacity:1" />
      <path
         inkscape:connector-curvature="0"
         id="path6228"
         d="M 2,0 H 3 V 1 L 2.25,0.75"
         style="opacity:1;fill:#000000;fill-opacity:0" />
      <path
         inkscape:connector-curvature="0"
         id="path6230"
         d="M 3,0 H 4 V 1 H 3"
         style="opacity:1;fill:#000000;fill-opacity:0" />
      <path
         inkscape:connector-curvature="0"
         id="path6232"
         d="M 4,0 H 5 V 1 H 4"
         style="opacity:1;fill:#000000;fill-opacity:0" />
      <path
         inkscape:connector-curvature="0"
         id="path6234"
         d="M 5,0 H 6 V 1 H 5"
         style="opacity:1;fill:#000000;fill-opacity:0" />
      <path
         inkscape:connector-curvature="0"
         id="path6236"
         d="M 6,0 H 7 V 1 H 6"
         style="opacity:1;fill:#000000;fill-opacity:0" />
      <path
         inkscape:connector-curvature="0"
         id="path6238"
         d="M 7,0 H 8 V 1 H 7"
         style="opacity:1;fill:#000000;fill-opacity:0" />
      <path
         inkscape:connector-curvature="0"
         id="path6240"
         d="M 8,0 H 9 V 1 H 8"
         style="opacity:1;fill:#000000;fill-opacity:0" />
      <path
         inkscape:connector-curvature="0"
         id="path6242"
         d="m 9,0 h 1 V 1 H 9"
         style="opacity:1;fill:#000000;fill-opacity:0" />
      <path
         inkscape:connector-curvature="0"
         id="path6244"
         d="m 10,0 h 1 v 1 h -1"
         style="opacity:1;fill:#000000;fill-opacity:0" />
      <path
         inkscape:connector-curvature="0"
         id="path6246"
         d="M 0,1 H 1 V 2 H 0"
         style="opacity:1;fill:#969696;fill-opacity:1" />
      <path
         inkscape:connector-curvature="0"
         id="path6248"
         d="M 1,1 1.75,1.25 2,2 H 1"
         style="opacity:1;fill:#969696;fill-opacity:1" />
      <path
         inkscape:connector-curvature="0"
         id="path6250"
         d="M 1.75,1.25 2.25,0.75 3,1 V 2 H 2"
         style="opacity:1;fill:#969696;fill-opacity:1" />
      <path
         inkscape:connector-curvature="0"
         id="path6252"
         d="M 3,1 H 4 L 3.75,1.75 3,2"
         style="opacity:1;fill:#969696;fill-opacity:1" />
      <path
         inkscape:connector-curvature="0"
         id="path6254"
         d="m 4,1 h 1 l 0.25,0.75 -0.5,0.5 h -0.5 l -0.5,-0.5"
         style="opacity:1;fill:#666666;fill-opacity:1" />
      <path
         inkscape:connector-curvature="0"
         id="path6256"
         d="M 5,1 H 6 L 5.75,1.75 h -0.5"
         style="opacity:1;fill:#969696;fill-opacity:1" />
      <path
         inkscape:connector-curvature="0"
         id="path6258"
         d="M 6,1 H 7 V 2 L 6.25,2.25 5.75,1.75"
         style="opacity:1;fill:#969696;fill-opacity:1" />
      <path
         inkscape:connector-curvature="0"
         id="path6260"
         d="M 7,1 H 8 L 8.25,1.75 7.75,2.25 7,2"
         style="opacity:1;fill:#969696;fill-opacity:1" />
      <path
         inkscape:connector-curvature="0"
         id="path6262"
         d="M 8,1 H 9 L 8.75,1.75 h -0.5"
         style="opacity:1;fill:#969696;fill-opacity:1" />
      <path
         inkscape:connector-curvature="0"
         id="path6264"
         d="m 9,1 h 1 l 0.25,0.75 -0.5,0.5 h -0.5 l -0.5,-0.5"
         style="opacity:1;fill:#969696;fill-opacity:1" />
      <path
         inkscape:connector-curvature="0"
         id="path6266"
         d="m 10,1 h 1 V 2 L 10.25,1.75"
         style="opacity:1;fill:#969696;fill-opacity:1" />
      <path
         inkscape:connector-curvature="0"
         id="path6268"
         d="M 0,2 H 1 V 3 H 0"
         style="opacity:1;fill:#969696;fill-opacity:1" />
      <path
         inkscape:connector-curvature="0"
         id="path6270"
         d="M 1,2 H 2 L 2.25,2.75 1.75,3.25 1,3"
         style="opacity:1;fill:#969696;fill-opacity:1" />
      <path
         inkscape:connector-curvature="0"
         id="path6272"
         d="M 2,2 H 3 V 3 L 2.25,2.75"
         style="opacity:1;fill:#969696;fill-opacity:1" />
      <path
         inkscape:connector-curvature="0"
         id="path6274"
         d="M 3,2 3.75,1.75 4.25,2.25 3.75,2.75 3,3"
         style="opacity:1;fill:#969696;fill-opacity:1" />
      <path
         inkscape:connector-curvature="0"
         id="path6276"
         d="m 4.25,2.25 h 0.5 l 0.5,0.5 -0.5,0.5 h -0.5 l -0.5,-0.5"
         style="opacity:1;fill:#434343;fill-opacity:1" />
      <path
         inkscape:connector-curvature="0"
         id="path6278"
         d="m 4.75,2.25 0.5,-0.5 h 0.5 L 6.25,2.25 6,3 5.25,2.75"
         style="opacity:1;fill:#969696;fill-opacity:1" />
      <path
         inkscape:connector-curvature="0"
         id="path6280"
         d="M 6.25,2.25 7,2 V 3 H 6"
         style="opacity:1;fill:#000000;fill-opacity:0" />
      <path
         inkscape:connector-curvature="0"
         id="path6282"
         d="M 7,2 7.75,2.25 8,3 H 7"
         style="opacity:1;fill:#000000;fill-opacity:0" />
      <path
         inkscape:connector-curvature="0"
         id="path6284"
         d="m 7.75,2.25 0.5,-0.5 h 0.5 l 0.5,0.5 v 0.5 L 8.75,3.25 8,3"
         style="opacity:1;fill:#666666;fill-opacity:1" />
      <path
         inkscape:connector-curvature="0"
         id="path6286"
         d="m 9.25,2.25 h 0.5 v 0.5 h -0.5"
         style="opacity:1;fill:#434343;fill-opacity:1" />
      <path
         inkscape:connector-curvature="0"
         id="path6288"
         d="M 9.75,2.25 10.25,1.75 11,2 v 1 l -0.75,0.25 -0.5,-0.5"
         style="opacity:1;fill:#969696;fill-opacity:1" />
      <path
         inkscape:connector-curvature="0"
         id="path6290"
         d="M 0,3 H 1 V 4 H 0"
         style="opacity:1;fill:#000000;fill-opacity:0" />
      <path
         inkscape:connector-curvature="0"
         id="path6292"
         d="M 1,3 1.75,3.25 2,4 H 1"
         style="opacity:1;fill:#000000;fill-opacity:0" />
      <path
         inkscape:connector-curvature="0"
         id="path6294"
         d="M 1.75,3.25 2.25,2.75 3,3 V 4 H 2"
         style="opacity:1;fill:#666666;fill-opacity:1" />
      <path
         inkscape:connector-curvature="0"
         id="path6296"
         d="M 3,3 3.75,2.75 4.25,3.25 4,4 H 3"
         style="opacity:1;fill:#666666;fill-opacity:1" />
      <path
         inkscape:connector-curvature="0"
         id="path6298"
         d="m 4.25,3.25 h 0.5 L 5,4 H 4"
         style="opacity:1;fill:#434343;fill-opacity:1" />
      <path
         inkscape:connector-curvature="0"
         id="path6300"
         d="M 4.75,3.25 5.25,2.75 6,3 V 4 H 5"
         style="opacity:1;fill:#666666;fill-opacity:1" />
      <path
         inkscape:connector-curvature="0"
         id="path6302"
         d="M 6,3 H 7 L 7.25,3.75 6.75,4.25 6,4"
         style="opacity:1;fill:#000000;fill-opacity:0" />
      <path
         inkscape:connector-curvature="0"
         id="path6304"
         d="M 7,3 H 8 V 4 L 7.25,3.75"
         style="opacity:1;fill:#000000;fill-opacity:0" />
      <path
         inkscape:connector-curvature="0"
         id="path6306"
         d="m 8,3 0.75,0.25 v 0.5 L 8,4"
         style="opacity:1;fill:#969696;fill-opacity:1" />
      <path
         inkscape:connector-curvature="0"
         id="path6308"
         d="m 8.75,3.25 0.5,-0.5 h 0.5 l 0.5,0.5 v 0.5 l -0.5,0.5 h -0.5 l -0.5,-0.5"
         style="opacity:1;fill:#666666;fill-opacity:1" />
      <path
         inkscape:connector-curvature="0"
         id="path6310"
         d="M 10.25,3.25 11,3 V 4 L 10.25,3.75"
         style="opacity:1;fill:#969696;fill-opacity:1" />
      <path
         inkscape:connector-curvature="0"
         id="path6312"
         d="M 0,4 H 1 V 5 H 0"
         style="opacity:1;fill:#000000;fill-opacity:0" />
      <path
         inkscape:connector-curvature="0"
         id="path6314"
         d="M 1,4 H 2 V 5 H 1"
         style="opacity:1;fill:#000000;fill-opacity:0" />
      <path
         inkscape:connector-curvature="0"
         id="path6316"
         d="M 2,4 H 3 V 5 H 2"
         style="opacity:1;fill:#d3d3d3;fill-opacity:1" />
      <path
         inkscape:connector-curvature="0"
         id="path6318"
         d="M 3,4 H 4 V 5 H 3"
         style="opacity:1;fill:#d3d3d3;fill-opacity:1" />
      <path
         inkscape:connector-curvature="0"
         id="path6320"
         d="M 4,4 H 5 V 5 H 4"
         style="opacity:1;fill:#d3d3d3;fill-opacity:1" />
      <path
         inkscape:connector-curvature="0"
         id="path6322"
         d="M 5,4 H 6 V 5 H 5"
         style="opacity:1;fill:#d3d3d3;fill-opacity:1" />
      <path
         inkscape:connector-curvature="0"
         id="path6324"
         d="M 6,4 6.75,4.25 7,5 H 6"
         style="opacity:1;fill:#d3d3d3;fill-opacity:1" />
      <path
         inkscape:connector-curvature="0"
         id="path6326"
         d="M 6.75,4.25 7.25,3.75 8,4 V 5 H 7"
         style="opacity:1;fill:#000000;fill-opacity:0" />
      <path
         inkscape:connector-curvature="0"
         id="path6328"
         d="m 8,4 0.75,-0.25 0.5,0.5 v 0.5 L 8.75,5.25 8,5"
         style="opacity:1;fill:#969696;fill-opacity:1" />
      <path
         inkscape:connector-curvature="0"
         id="path6330"
         d="m 9.25,4.25 h 0.5 v 0.5 h -0.5"
         style="opacity:1;fill:#434343;fill-opacity:1" />
      <path
         inkscape:connector-curvature="0"
         id="path6332"
         d="M 9.75,4.25 10.25,3.75 11,4 v 1 l -0.75,0.25 -0.5,-0.5"
         style="opacity:1;fill:#969696;fill-opacity:1" />
      <path
         inkscape:connector-curvature="0"
         id="path6334"
         d="M 0,5 H 1 V 6 H 0"
         style="opacity:1;fill:#000000;fill-opacity:0" />
      <path
         inkscape:connector-curvature="0"
         id="path6336"
         d="M 1,5 H 2 V 6 H 1"
         style="opacity:1;fill:#000000;fill-opacity:0" />
      <path
         inkscape:connector-curvature="0"
         id="path6338"
         d="M 2,5 H 3 V 6 H 2"
         style="opacity:1;fill:#737373;fill-opacity:1" />
      <path
         inkscape:connector-curvature="0"
         id="path6340"
         d="M 3,5 H 4 V 6 H 3"
         style="opacity:1;fill:#737373;fill-opacity:1" />
      <path
         inkscape:connector-curvature="0"
         id="path6342"
         d="M 4,5 H 5 L 5.25,5.75 4.75,6.25 4,6"
         style="opacity:1;fill:#737373;fill-opacity:1" />
      <path
         inkscape:connector-curvature="0"
         id="path6344"
         d="M 5,5 H 6 V 6 L 5.25,5.75"
         style="opacity:1;fill:#737373;fill-opacity:1" />
      <path
         inkscape:connector-curvature="0"
         id="path6346"
         d="M 6,5 H 7 V 6 H 6"
         style="opacity:1;fill:#737373;fill-opacity:1" />
      <path
         inkscape:connector-curvature="0"
         id="path6348"
         d="M 7,5 H 8 V 6 H 7"
         style="opacity:1;fill:#000000;fill-opacity:0" />
      <path
         inkscape:connector-curvature="0"
         id="path6350"
         d="m 8,5 0.75,0.25 v 0.5 L 8,6"
         style="opacity:1;fill:#969696;fill-opacity:1" />
      <path
         inkscape:connector-curvature="0"
         id="path6352"
         d="m 8.75,5.25 0.5,-0.5 h 0.5 l 0.5,0.5 v 0.5 l -0.5,0.5 h -0.5 l -0.5,-0.5"
         style="opacity:1;fill:#666666;fill-opacity:1" />
      <path
         inkscape:connector-curvature="0"
         id="path6354"
         d="M 10.25,5.25 11,5 V 6 L 10.25,5.75"
         style="opacity:1;fill:#969696;fill-opacity:1" />
      <path
         inkscape:connector-curvature="0"
         id="path6356"
         d="M 0,6 H 1 V 7 H 0"
         style="opacity:1;fill:#000000;fill-opacity:0" />
      <path
         inkscape:connector-curvature="0"
         id="path6358"
         d="M 1,6 H 2 V 7 H 1"
         style="opacity:1;fill:#000000;fill-opacity:0" />
      <path
         inkscape:connector-curvature="0"
         id="path6360"
         d="M 2,6 H 3 V 7 H 2"
         style="opacity:1;fill:#fefefe;fill-opacity:1" />
      <path
         inkscape:connector-curvature="0"
         id="path6362"
         d="M 3,6 H 4 V 7 H 3"
         style="opacity:1;fill:#fefefe;fill-opacity:1" />
      <path
         inkscape:connector-curvature="0"
         id="path6364"
         d="M 4,6 4.75,6.25 5,7 H 4"
         style="opacity:1;fill:#fefefe;fill-opacity:1" />
      <path
         inkscape:connector-curvature="0"
         id="path6366"
         d="M 4.75,6.25 5.25,5.75 6,6 V 7 H 5"
         style="opacity:1;fill:#737373;fill-opacity:1" />
      <path
         inkscape:connector-curvature="0"
         id="path6368"
         d="M 6,6 H 7 V 7 H 6"
         style="opacity:1;fill:#737373;fill-opacity:1" />
      <path
         inkscape:connector-curvature="0"
         id="path6370"
         d="M 7,6 H 8 L 7.75,6.75 7,7"
         style="opacity:1;fill:#000000;fill-opacity:0" />
      <path
         inkscape:connector-curvature="0"
         id="path6372"
         d="m 8,6 0.75,-0.25 0.5,0.5 v 0.5 l -0.5,0.5 h -0.5 l -0.5,-0.5"
         style="opacity:1;fill:#666666;fill-opacity:1" />
      <path
         inkscape:connector-curvature="0"
         id="path6374"
         d="m 9.25,6.25 h 0.5 v 0.5 h -0.5"
         style="opacity:1;fill:#434343;fill-opacity:1" />
      <path
         inkscape:connector-curvature="0"
         id="path6376"
         d="M 9.75,6.25 10.25,5.75 11,6 v 1 l -0.75,0.25 -0.5,-0.5"
         style="opacity:1;fill:#969696;fill-opacity:1" />
      <path
         inkscape:connector-curvature="0"
         id="path6378"
         d="M 0,7 H 1 V 8 H 0"
         style="opacity:1;fill:#000000;fill-opacity:0" />
      <path
         inkscape:connector-curvature="0"
         id="path6380"
         d="M 1,7 H 2 V 8 H 1"
         style="opacity:1;fill:#000000;fill-opacity:0" />
      <path
         inkscape:connector-curvature="0"
         id="path6382"
         d="M 2,7 H 3 V 8 H 2"
         style="opacity:1;fill:#fefefe;fill-opacity:1" />
      <path
         inkscape:connector-curvature="0"
         id="path6384"
         d="M 3,7 H 4 V 8 H 3"
         style="opacity:1;fill:#fefefe;fill-opacity:1" />
      <path
         inkscape:connector-curvature="0"
         id="path6386"
         d="M 4,7 H 5 L 4.75,7.75 4,8"
         style="opacity:1;fill:#fefefe;fill-opacity:1" />
      <path
         inkscape:connector-curvature="0"
         id="path6388"
         d="M 5,7 H 6 V 8 L 5.25,8.25 4.75,7.75"
         style="opacity:1;fill:#737373;fill-opacity:1" />
      <path
         inkscape:connector-curvature="0"
         id="path6390"
         d="M 6,7 H 7 V 8 H 6"
         style="opacity:1;fill:#737373;fill-opacity:1" />
      <path
         inkscape:connector-curvature="0"
         id="path6392"
         d="M 7,7 7.75,6.75 8.25,7.25 8,8 H 7"
         style="opacity:1;fill:#666666;fill-opacity:1" />
      <path
         inkscape:connector-curvature="0"
         id="path6394"
         d="m 8.25,7.25 h 0.5 L 9,8 H 8"
         style="opacity:1;fill:#969696;fill-opacity:1" />
      <path
         inkscape:connector-curvature="0"
         id="path6396"
         d="m 8.75,7.25 0.5,-0.5 h 0.5 l 0.5,0.5 L 10,8 H 9"
         style="opacity:1;fill:#969696;fill-opacity:1" />
      <path
         inkscape:connector-curvature="0"
         id="path6398"
         d="M 10.25,7.25 11,7 v 1 h -1"
         style="opacity:1;fill:#969696;fill-opacity:1" />
      <path
         inkscape:connector-curvature="0"
         id="path6400"
         d="M 0,8 H 1 V 9 H 0"
         style="opacity:1;fill:#000000;fill-opacity:0" />
      <path
         inkscape:connector-curvature="0"
         id="path6402"
         d="M 1,8 H 2 V 9 H 1"
         style="opacity:1;fill:#000000;fill-opacity:0" />
      <path
         inkscape:connector-curvature="0"
         id="path6404"
         d="M 2,8 H 3 V 9 H 2"
         style="opacity:1;fill:#737373;fill-opacity:1" />
      <path
         inkscape:connector-curvature="0"
         id="path6406"
         d="M 3,8 H 4 V 9 H 3"
         style="opacity:1;fill:#737373;fill-opacity:1" />
      <path
         inkscape:connector-curvature="0"
         id="path6408"
         d="M 4,8 4.75,7.75 5.25,8.25 5,9 H 4"
         style="opacity:1;fill:#737373;fill-opacity:1" />
      <path
         inkscape:connector-curvature="0"
         id="path6410"
         d="M 5.25,8.25 6,8 V 9 H 5"
         style="opacity:1;fill:#737373;fill-opacity:1" />
      <path
         inkscape:connector-curvature="0"
         id="path6412"
         d="M 6,8 H 7 V 9 H 6"
         style="opacity:1;fill:#737373;fill-opacity:1" />
      <path
         inkscape:connector-curvature="0"
         id="path6414"
         d="M 7,8 H 8 V 9 H 7"
         style="opacity:1;fill:#000000;fill-opacity:0" />
      <path
         inkscape:connector-curvature="0"
         id="path6416"
         d="M 8,8 H 9 V 9 H 8"
         style="opacity:1;fill:#000000;fill-opacity:0" />
      <path
         inkscape:connector-curvature="0"
         id="path6418"
         d="m 9,8 h 1 V 9 H 9"
         style="opacity:1;fill:#000000;fill-opacity:0" />
      <path
         inkscape:connector-curvature="0"
         id="path6420"
         d="m 10,8 h 1 v 1 h -1"
         style="opacity:1;fill:#000000;fill-opacity:0" />
      <path
         inkscape:connector-curvature="0"
         id="path6422"
         d="m 0,9 h 1 v 1 H 0"
         style="opacity:1;fill:#000000;fill-opacity:0" />
      <path
         inkscape:connector-curvature="0"
         id="path6424"
         d="m 1,9 h 1 v 1 H 1"
         style="opacity:1;fill:#000000;fill-opacity:0" />
      <path
         inkscape:connector-curvature="0"
         id="path6426"
         d="m 2,9 h 1 v 1 H 2"
         style="opacity:1;fill:#737373;fill-opacity:1" />
      <path
         inkscape:connector-curvature="0"
         id="path6428"
         d="m 3,9 h 1 v 1 H 3"
         style="opacity:1;fill:#737373;fill-opacity:1" />
      <path
         inkscape:connector-curvature="0"
         id="path6430"
         d="m 4,9 h 1 v 1 H 4"
         style="opacity:1;fill:#737373;fill-opacity:1" />
      <path
         inkscape:connector-curvature="0"
         id="path6432"
         d="m 5,9 h 1 v 1 H 5"
         style="opacity:1;fill:#737373;fill-opacity:1" />
      <path
         inkscape:connector-curvature="0"
         id="path6434"
         d="m 6,9 h 1 v 1 H 6"
         style="opacity:1;fill:#737373;fill-opacity:1" />
      <path
         inkscape:connector-curvature="0"
         id="path6436"
         d="m 7,9 h 1 v 1 H 7"
         style="opacity:1;fill:#000000;fill-opacity:0" />
      <path
         inkscape:connector-curvature="0"
         id="path6438"
         d="m 8,9 h 1 v 1 H 8"
         style="opacity:1;fill:#000000;fill-opacity:0" />
      <path
         inkscape:connector-curvature="0"
         id="path6440"
         d="m 9,9 h 1 v 1 H 9"
         style="opacity:1;fill:#000000;fill-opacity:0" />
      <path
         inkscape:connector-curvature="0"
         id="path6442"
         d="m 10,9 h 1 v 1 h -1"
         style="opacity:1;fill:#000000;fill-opacity:0" />
      <path
         inkscape:connector-curvature="0"
         id="path6444"
         d="m 0,10 h 1 v 1 H 0"
         style="opacity:1;fill:#000000;fill-opacity:0" />
      <path
         inkscape:connector-curvature="0"
         id="path6446"
         d="m 1,10 h 1 v 1 H 1"
         style="opacity:1;fill:#000000;fill-opacity:0" />
      <path
         inkscape:connector-curvature="0"
         id="path6448"
         d="m 2,10 h 1 v 1 H 2"
         style="opacity:1;fill:#737373;fill-opacity:1" />
      <path
         inkscape:connector-curvature="0"
         id="path6450"
         d="m 3,10 h 1 v 1 H 3"
         style="opacity:1;fill:#737373;fill-opacity:1" />
      <path
         inkscape:connector-curvature="0"
         id="path6452"
         d="m 4,10 h 1 v 1 H 4"
         style="opacity:1;fill:#737373;fill-opacity:1" />
      <path
         inkscape:connector-curvature="0"
         id="path6454"
         d="m 5,10 h 1 v 1 H 5"
         style="opacity:1;fill:#737373;fill-opacity:1" />
      <path
         inkscape:connector-curvature="0"
         id="path6456"
         d="m 6,10 h 1 v 1 H 6"
         style="opacity:1;fill:#737373;fill-opacity:1" />
      <path
         inkscape:connector-curvature="0"
         id="path6458"
         d="m 7,10 h 1 v 1 H 7"
         style="opacity:1;fill:#000000;fill-opacity:0" />
      <path
         inkscape:connector-curvature="0"
         id="path6460"
         d="m 8,10 h 1 v 1 H 8"
         style="opacity:1;fill:#000000;fill-opacity:0" />
      <path
         inkscape:connector-curvature="0"
         id="path6462"
         d="m 9,10 h 1 v 1 H 9"
         style="opacity:1;fill:#000000;fill-opacity:0" />
      <path
         inkscape:connector-curvature="0"
         id="path6464"
         d="m 10,10 h 1 v 1 h -1"
         style="opacity:1;fill:#000000;fill-opacity:0" />
      <path
         inkscape:connector-curvature="0"
         id="path6466"
         d="m 0,11 h 1 v 1 H 0"
         style="opacity:1;fill:#000000;fill-opacity:0" />
      <path
         inkscape:connector-curvature="0"
         id="path6468"
         d="m 1,11 h 1 v 1 H 1"
         style="opacity:1;fill:#000000;fill-opacity:0" />
      <path
         inkscape:connector-curvature="0"
         id="path6470"
         d="m 2,11 h 1 v 1 H 2"
         style="opacity:1;fill:#737373;fill-opacity:1" />
      <path
         inkscape:connector-curvature="0"
         id="path6472"
         d="m 3,11 h 1 v 1 H 3"
         style="opacity:1;fill:#737373;fill-opacity:1" />
      <path
         inkscape:connector-curvature="0"
         id="path6474"
         d="m 4,11 h 1 v 1 H 4"
         style="opacity:1;fill:#737373;fill-opacity:1" />
      <path
         inkscape:connector-curvature="0"
         id="path6476"
         d="m 5,11 h 1 v 1 H 5"
         style="opacity:1;fill:#737373;fill-opacity:1" />
      <path
         inkscape:connector-curvature="0"
         id="path6478"
         d="m 6,11 h 1 v 1 H 6"
         style="opacity:1;fill:#737373;fill-opacity:1" />
      <path
         inkscape:connector-curvature="0"
         id="path6480"
         d="m 7,11 h 1 v 1 H 7"
         style="opacity:1;fill:#000000;fill-opacity:0" />
      <path
         inkscape:connector-curvature="0"
         id="path6482"
         d="m 8,11 h 1 v 1 H 8"
         style="opacity:1;fill:#000000;fill-opacity:0" />
      <path
         inkscape:connector-curvature="0"
         id="path6484"
         d="m 9,11 h 1 v 1 H 9"
         style="opacity:1;fill:#000000;fill-opacity:0" />
      <path
         inkscape:connector-curvature="0"
         id="path6486"
         d="m 10,11 h 1 v 1 h -1"
         style="opacity:1;fill:#000000;fill-opacity:0" />
    </g>
  </g>
</svg>
