<?xml version="1.0" encoding="UTF-8" standalone="no"?>
<!-- Created with Inkscape (http://www.inkscape.org/) -->

<svg
   xmlns:dc="http://purl.org/dc/elements/1.1/"
   xmlns:cc="http://creativecommons.org/ns#"
   xmlns:rdf="http://www.w3.org/1999/02/22-rdf-syntax-ns#"
   xmlns:svg="http://www.w3.org/2000/svg"
   xmlns="http://www.w3.org/2000/svg"
   xmlns:sodipodi="http://sodipodi.sourceforge.net/DTD/sodipodi-0.dtd"
   xmlns:inkscape="http://www.inkscape.org/namespaces/inkscape"
   width="26.410713mm"
   height="46.017857mm"
   viewBox="0 0 26.410713 46.017857"
   version="1.1"
   id="svg11106"
   inkscape:version="0.92.4 (5da689c313, 2019-01-14)"
   sodipodi:docname="drawing-10.svg">
  <defs
     id="defs11100" />
  <sodipodi:namedview
     id="base"
     pagecolor="#ffffff"
     bordercolor="#666666"
     borderopacity="1.0"
     inkscape:pageopacity="0.0"
     inkscape:pageshadow="2"
     inkscape:zoom="0.35"
     inkscape:cx="-950.08999"
     inkscape:cy="98.391434"
     inkscape:document-units="mm"
     inkscape:current-layer="layer1"
     showgrid="false"
     inkscape:window-width="2560"
     inkscape:window-height="1377"
     inkscape:window-x="-8"
     inkscape:window-y="-8"
     inkscape:window-maximized="1" />
  <metadata
     id="metadata11103">
    <rdf:RDF>
      <cc:Work
         rdf:about="">
        <dc:format>image/svg+xml</dc:format>
        <dc:type
           rdf:resource="http://purl.org/dc/dcmitype/StillImage" />
        <dc:title></dc:title>
      </cc:Work>
    </rdf:RDF>
  </metadata>
  <g
     inkscape:label="Layer 1"
     inkscape:groupmode="layer"
     id="layer1"
     transform="translate(-91.116072,-128.84821)">
    <g
       transform="matrix(4.4017856,0,0,3.8348214,91.116072,128.84821)"
       id="g5789">
      <path
         inkscape:connector-curvature="0"
         id="path5645"
         d="M 0,0 H 1 V 1 H 0"
         style="opacity:1;fill:#000000;fill-opacity:0" />
      <path
         inkscape:connector-curvature="0"
         id="path5647"
         d="M 1,0 H 2 L 1.75,0.75 1,1"
         style="opacity:1;fill:#969696;fill-opacity:1" />
      <path
         inkscape:connector-curvature="0"
         id="path5649"
         d="M 2,0 H 3 V 1 L 2.25,1.25 1.75,0.75"
         style="opacity:1;fill:#969696;fill-opacity:1" />
      <path
         inkscape:connector-curvature="0"
         id="path5651"
         d="M 3,0 H 4 L 4.25,0.75 3.75,1.25 3,1"
         style="opacity:1;fill:#969696;fill-opacity:1" />
      <path
         inkscape:connector-curvature="0"
         id="path5653"
         d="M 4,0 H 5 V 1 L 4.25,0.75"
         style="opacity:1;fill:#969696;fill-opacity:1" />
      <path
         inkscape:connector-curvature="0"
         id="path5655"
         d="M 5,0 H 6 V 1 H 5"
         style="opacity:1;fill:#000000;fill-opacity:0" />
      <path
         inkscape:connector-curvature="0"
         id="path5657"
         d="M 0,1 H 1 L 0.75,1.75 0,2"
         style="opacity:1;fill:#000000;fill-opacity:0" />
      <path
         inkscape:connector-curvature="0"
         id="path5659"
         d="M 1,1 1.75,0.75 2.25,1.25 2,2 1.25,2.25 0.75,1.75"
         style="opacity:1;fill:#666666;fill-opacity:1" />
      <path
         inkscape:connector-curvature="0"
         id="path5661"
         d="M 2.25,1.25 3,1 V 2 H 2"
         style="opacity:1;fill:#000000;fill-opacity:0" />
      <path
         inkscape:connector-curvature="0"
         id="path5663"
         d="M 3,1 3.75,1.25 4,2 H 3"
         style="opacity:1;fill:#000000;fill-opacity:0" />
      <path
         inkscape:connector-curvature="0"
         id="path5665"
         d="M 3.75,1.25 4.25,0.75 5,1 5.25,1.75 4.75,2.25 4,2"
         style="opacity:1;fill:#666666;fill-opacity:1" />
      <path
         inkscape:connector-curvature="0"
         id="path5667"
         d="M 5,1 H 6 V 2 L 5.25,1.75"
         style="opacity:1;fill:#000000;fill-opacity:0" />
      <path
         inkscape:connector-curvature="0"
         id="path5669"
         d="M 0,2 0.75,1.75 1.25,2.25 1,3 H 0"
         style="opacity:1;fill:#969696;fill-opacity:1" />
      <path
         inkscape:connector-curvature="0"
         id="path5671"
         d="M 1.25,2.25 2,2 V 3 H 1"
         style="opacity:1;fill:#d3d3d3;fill-opacity:1" />
      <path
         inkscape:connector-curvature="0"
         id="path5673"
         d="M 2,2 H 3 V 3 H 2"
         style="opacity:1;fill:#d3d3d3;fill-opacity:1" />
      <path
         inkscape:connector-curvature="0"
         id="path5675"
         d="M 3,2 H 4 V 3 H 3"
         style="opacity:1;fill:#d3d3d3;fill-opacity:1" />
      <path
         inkscape:connector-curvature="0"
         id="path5677"
         d="M 4,2 4.75,2.25 5,3 H 4"
         style="opacity:1;fill:#d3d3d3;fill-opacity:1" />
      <path
         inkscape:connector-curvature="0"
         id="path5679"
         d="M 4.75,2.25 5.25,1.75 6,2 V 3 H 5"
         style="opacity:1;fill:#969696;fill-opacity:1" />
      <path
         inkscape:connector-curvature="0"
         id="path5681"
         d="M 0,3 H 1 V 4 H 0"
         style="opacity:1;fill:#434343;fill-opacity:1" />
      <path
         inkscape:connector-curvature="0"
         id="path5683"
         d="M 1,3 H 2 V 4 H 1"
         style="opacity:1;fill:#000000;fill-opacity:0" />
      <path
         inkscape:connector-curvature="0"
         id="path5685"
         d="M 2,3 H 3 V 4 H 2"
         style="opacity:1;fill:#000000;fill-opacity:0" />
      <path
         inkscape:connector-curvature="0"
         id="path5687"
         d="M 3,3 H 4 V 4 H 3"
         style="opacity:1;fill:#000000;fill-opacity:0" />
      <path
         inkscape:connector-curvature="0"
         id="path5689"
         d="M 4,3 H 5 V 4 H 4"
         style="opacity:1;fill:#000000;fill-opacity:0" />
      <path
         inkscape:connector-curvature="0"
         id="path5691"
         d="M 5,3 H 6 V 4 H 5"
         style="opacity:1;fill:#434343;fill-opacity:1" />
      <path
         inkscape:connector-curvature="0"
         id="path5693"
         d="M 0,4 H 1 V 5 H 0"
         style="opacity:1;fill:#666666;fill-opacity:1" />
      <path
         inkscape:connector-curvature="0"
         id="path5695"
         d="M 1,4 H 2 V 5 H 1"
         style="opacity:1;fill:#aeaeae;fill-opacity:1" />
      <path
         inkscape:connector-curvature="0"
         id="path5697"
         d="M 2,4 H 3 L 3.25,4.75 2.75,5.25 2,5"
         style="opacity:1;fill:#aeaeae;fill-opacity:1" />
      <path
         inkscape:connector-curvature="0"
         id="path5699"
         d="M 3,4 H 4 V 5 L 3.25,4.75"
         style="opacity:1;fill:#aeaeae;fill-opacity:1" />
      <path
         inkscape:connector-curvature="0"
         id="path5701"
         d="M 4,4 H 5 V 5 H 4"
         style="opacity:1;fill:#aeaeae;fill-opacity:1" />
      <path
         inkscape:connector-curvature="0"
         id="path5703"
         d="M 5,4 H 6 V 5 H 5"
         style="opacity:1;fill:#666666;fill-opacity:1" />
      <path
         inkscape:connector-curvature="0"
         id="path5705"
         d="M 0,5 H 1 V 6 H 0"
         style="opacity:1;fill:#fefefe;fill-opacity:1" />
      <path
         inkscape:connector-curvature="0"
         id="path5707"
         d="M 1,5 H 2 V 6 H 1"
         style="opacity:1;fill:#fefefe;fill-opacity:1" />
      <path
         inkscape:connector-curvature="0"
         id="path5709"
         d="M 2,5 2.75,5.25 3,6 H 2"
         style="opacity:1;fill:#fefefe;fill-opacity:1" />
      <path
         inkscape:connector-curvature="0"
         id="path5711"
         d="M 2.75,5.25 3.25,4.75 4,5 V 6 H 3"
         style="opacity:1;fill:#aeaeae;fill-opacity:1" />
      <path
         inkscape:connector-curvature="0"
         id="path5713"
         d="M 4,5 H 5 V 6 H 4"
         style="opacity:1;fill:#aeaeae;fill-opacity:1" />
      <path
         inkscape:connector-curvature="0"
         id="path5715"
         d="M 5,5 H 6 V 6 H 5"
         style="opacity:1;fill:#666666;fill-opacity:1" />
      <path
         inkscape:connector-curvature="0"
         id="path5717"
         d="M 0,6 H 1 V 7 H 0"
         style="opacity:1;fill:#fefefe;fill-opacity:1" />
      <path
         inkscape:connector-curvature="0"
         id="path5719"
         d="M 1,6 H 2 V 7 H 1"
         style="opacity:1;fill:#fefefe;fill-opacity:1" />
      <path
         inkscape:connector-curvature="0"
         id="path5721"
         d="M 2,6 H 3 V 7 H 2"
         style="opacity:1;fill:#fefefe;fill-opacity:1" />
      <path
         inkscape:connector-curvature="0"
         id="path5723"
         d="M 3,6 H 4 V 7 H 3"
         style="opacity:1;fill:#aeaeae;fill-opacity:1" />
      <path
         inkscape:connector-curvature="0"
         id="path5725"
         d="M 4,6 H 5 V 7 H 4"
         style="opacity:1;fill:#aeaeae;fill-opacity:1" />
      <path
         inkscape:connector-curvature="0"
         id="path5727"
         d="M 5,6 H 6 V 7 H 5"
         style="opacity:1;fill:#666666;fill-opacity:1" />
      <path
         inkscape:connector-curvature="0"
         id="path5729"
         d="M 0,7 H 1 V 8 H 0"
         style="opacity:1;fill:#fefefe;fill-opacity:1" />
      <path
         inkscape:connector-curvature="0"
         id="path5731"
         d="M 1,7 H 2 V 8 H 1"
         style="opacity:1;fill:#fefefe;fill-opacity:1" />
      <path
         inkscape:connector-curvature="0"
         id="path5733"
         d="M 2,7 H 3 V 8 H 2"
         style="opacity:1;fill:#fefefe;fill-opacity:1" />
      <path
         inkscape:connector-curvature="0"
         id="path5735"
         d="M 3,7 H 4 V 8 H 3"
         style="opacity:1;fill:#aeaeae;fill-opacity:1" />
      <path
         inkscape:connector-curvature="0"
         id="path5737"
         d="M 4,7 H 5 V 8 H 4"
         style="opacity:1;fill:#aeaeae;fill-opacity:1" />
      <path
         inkscape:connector-curvature="0"
         id="path5739"
         d="M 5,7 H 6 V 8 H 5"
         style="opacity:1;fill:#666666;fill-opacity:1" />
      <path
         inkscape:connector-curvature="0"
         id="path5741"
         d="M 0,8 H 1 V 9 H 0"
         style="opacity:1;fill:#434343;fill-opacity:1" />
      <path
         inkscape:connector-curvature="0"
         id="path5743"
         d="M 1,8 H 2 V 9 H 1"
         style="opacity:1;fill:#808080;fill-opacity:1" />
      <path
         inkscape:connector-curvature="0"
         id="path5745"
         d="M 2,8 H 3 L 2.75,8.75 2,9"
         style="opacity:1;fill:#808080;fill-opacity:1" />
      <path
         inkscape:connector-curvature="0"
         id="path5747"
         d="M 3,8 H 4 V 9 L 3.25,9.25 2.75,8.75"
         style="opacity:1;fill:#aeaeae;fill-opacity:1" />
      <path
         inkscape:connector-curvature="0"
         id="path5749"
         d="M 4,8 H 5 V 9 H 4"
         style="opacity:1;fill:#aeaeae;fill-opacity:1" />
      <path
         inkscape:connector-curvature="0"
         id="path5751"
         d="M 5,8 H 6 V 9 H 5"
         style="opacity:1;fill:#666666;fill-opacity:1" />
      <path
         inkscape:connector-curvature="0"
         id="path5753"
         d="m 0,9 h 1 v 1 H 0"
         style="opacity:1;fill:#666666;fill-opacity:1" />
      <path
         inkscape:connector-curvature="0"
         id="path5755"
         d="m 1,9 h 1 v 1 H 1"
         style="opacity:1;fill:#aeaeae;fill-opacity:1" />
      <path
         inkscape:connector-curvature="0"
         id="path5757"
         d="M 2,9 2.75,8.75 3.25,9.25 3,10 H 2"
         style="opacity:1;fill:#aeaeae;fill-opacity:1" />
      <path
         inkscape:connector-curvature="0"
         id="path5759"
         d="M 3.25,9.25 4,9 v 1 H 3"
         style="opacity:1;fill:#aeaeae;fill-opacity:1" />
      <path
         inkscape:connector-curvature="0"
         id="path5761"
         d="m 4,9 h 1 v 1 H 4"
         style="opacity:1;fill:#aeaeae;fill-opacity:1" />
      <path
         inkscape:connector-curvature="0"
         id="path5763"
         d="m 5,9 h 1 v 1 H 5"
         style="opacity:1;fill:#666666;fill-opacity:1" />
      <path
         inkscape:connector-curvature="0"
         id="path5765"
         d="m 0,10 h 1 l 0.25,0.75 -0.5,0.5 L 0,11"
         style="opacity:1;fill:#666666;fill-opacity:1" />
      <path
         inkscape:connector-curvature="0"
         id="path5767"
         d="m 1,10 h 1 v 1 L 1.25,10.75"
         style="opacity:1;fill:#aeaeae;fill-opacity:1" />
      <path
         inkscape:connector-curvature="0"
         id="path5769"
         d="m 2,10 h 1 v 1 H 2"
         style="opacity:1;fill:#aeaeae;fill-opacity:1" />
      <path
         inkscape:connector-curvature="0"
         id="path5771"
         d="m 3,10 h 1 v 1 H 3"
         style="opacity:1;fill:#aeaeae;fill-opacity:1" />
      <path
         inkscape:connector-curvature="0"
         id="path5773"
         d="M 4,10 H 5 L 4.75,10.75 4,11"
         style="opacity:1;fill:#aeaeae;fill-opacity:1" />
      <path
         inkscape:connector-curvature="0"
         id="path5775"
         d="m 5,10 h 1 v 1 l -0.75,0.25 -0.5,-0.5"
         style="opacity:1;fill:#666666;fill-opacity:1" />
      <path
         inkscape:connector-curvature="0"
         id="path5777"
         d="M 0,11 0.75,11.25 1,12 H 0"
         style="opacity:1;fill:#000000;fill-opacity:0" />
      <path
         inkscape:connector-curvature="0"
         id="path5779"
         d="M 0.75,11.25 1.25,10.75 2,11 v 1 H 1"
         style="opacity:1;fill:#666666;fill-opacity:1" />
      <path
         inkscape:connector-curvature="0"
         id="path5781"
         d="m 2,11 h 1 v 1 H 2"
         style="opacity:1;fill:#666666;fill-opacity:1" />
      <path
         inkscape:connector-curvature="0"
         id="path5783"
         d="m 3,11 h 1 v 1 H 3"
         style="opacity:1;fill:#666666;fill-opacity:1" />
      <path
         inkscape:connector-curvature="0"
         id="path5785"
         d="m 4,11 0.75,-0.25 0.5,0.5 L 5,12 H 4"
         style="opacity:1;fill:#666666;fill-opacity:1" />
      <path
         inkscape:connector-curvature="0"
         id="path5787"
         d="M 5.25,11.25 6,11 v 1 H 5"
         style="opacity:1;fill:#000000;fill-opacity:0" />
    </g>
  </g>
</svg>
